<svg id="Layer_1" data-name="Layer 1" xmlns="http://www.w3.org/2000/svg" xmlns:xlink="http://www.w3.org/1999/xlink" viewBox="0 0 495.7 433.83"><defs><style>.cls-1,.cls-19,.cls-21{fill:none;}.cls-2{fill:#e3d7d5;}.cls-3{fill:#354adb;}.cls-4{fill:#7c2c00;}.cls-5{fill:#602202;}.cls-6{fill:#002029;}.cls-7{fill:#173953;}.cls-8{fill:#fff;}.cls-9{fill:#2a5b74;}.cls-10{fill:#3263ff;}.cls-11{fill:#000202;}.cls-12{clip-path:url(#clip-path);}.cls-13{fill:#0b0947;}.cls-14{fill:#4300aa;}.cls-15{fill:#c1a8f8;}.cls-16,.cls-20{fill:#17d3ff;}.cls-17{fill:#d9d1ec;}.cls-18{fill:#eae5f6;}.cls-19{stroke:#d9d1ec;}.cls-19,.cls-21{stroke-miterlimit:10;stroke-width:2px;}.cls-20{opacity:0.2;}.cls-21{stroke:#fff;stroke-linecap:round;}.cls-22{fill:#4c5fec;}.cls-23{fill:#ffcda7;}.cls-24{fill:#0097fa;}.cls-25{fill:#ff61cd;}</style><clipPath id="clip-path" transform="translate(-2.3 -56.86)"><path class="cls-1" d="M358.79,249.72c20,80.14-18.9,184.37-102,225.07-88.55,43.34-206.66,4.55-241-76-22.18-52-19.61-146.61,34.11-162.45,45.26-13.34,57-56.9,105.53-67.37,60.37-13,74.17-15.82,121.12-19.62C311.09,146.6,347.16,203.12,358.79,249.72Z"/></clipPath></defs><title>artificial</title><ellipse class="cls-2" cx="440.65" cy="422.66" rx="55.05" ry="7.46"/><path class="cls-3" d="M353,166.91A108.92,108.92,0,0,0,366.3,183a92,92,0,0,0,16.48,12.92,7,7,0,0,0,7.56-.12l.85-.56L423.39,174c5.07-3.33,6.71-10.53,3.66-16.08s-9.64-7.33-14.72-4a13.08,13.08,0,0,0-1.12.84L385.3,177.16a73.76,73.76,0,0,1-9.92-6.49,91.75,91.75,0,0,1-13.05-12.42l0,0a5.79,5.79,0,0,0-8.69-.21A7.17,7.17,0,0,0,353,166.91Z" transform="translate(-2.3 -56.86)"/><path class="cls-4" d="M348.25,160.89h0l.25.07s.1.21.3.54c.92,1.6,3.92,6.12,7.49,4.6a6.55,6.55,0,0,0,.8-.38,9.47,9.47,0,0,0,.82-.51,12.87,12.87,0,0,0,4.37-5.67s.85-8-2.1-9.88c-1.7-1.11-2.7-.8-3.23-.35a1.88,1.88,0,0,0-.53.74l-.43-.6c-1.56-2.12-6.86-9.23-8.17-9.38-1.54-.18,3.9,9.91,3.9,9.91s-1.29-.42-4,2.48S344.14,159.72,348.25,160.89Z" transform="translate(-2.3 -56.86)"/><path class="cls-5" d="M352.65,156.75a.39.39,0,0,0,.38-.35.42.42,0,0,0-.32-.47s-1.09-.26-2.17-2.3a.36.36,0,0,0-.52-.15.42.42,0,0,0-.13.56c1.29,2.44,2.65,2.7,2.7,2.71Z" transform="translate(-2.3 -56.86)"/><path class="cls-5" d="M351,159.46a.39.39,0,0,0,.37-.3.43.43,0,0,0-.27-.51,4.56,4.56,0,0,1-2.63-2.48.37.37,0,0,0-.5-.21.43.43,0,0,0-.19.55,5.29,5.29,0,0,0,3.12,2.94Z" transform="translate(-2.3 -56.86)"/><path class="cls-5" d="M354.39,154.22a2,2,0,0,0,1.63.58,15.14,15.14,0,0,0,4.72-1.18.42.42,0,0,0,.23-.53.37.37,0,0,0-.49-.24c-1.9.77-5,1.57-5.5.85-.18-.25,0-.84.44-1.63l1.53-2.76a1.88,1.88,0,0,0-.53.74l-.43-.6-1.22,2.18C354.53,152.05,353.76,153.36,354.39,154.22Z" transform="translate(-2.3 -56.86)"/><path class="cls-5" d="M348.25,160.89l.25.07s.1.21.3.54c6.24-4,4.57-9.77,4.55-9.83a.38.38,0,0,0-.48-.27.42.42,0,0,0-.24.52C352.7,152.15,354.14,157.26,348.25,160.89Z" transform="translate(-2.3 -56.86)"/><polygon class="cls-6" points="436.7 260.8 445 397.6 431.38 396.68 401.97 226.04 434 227.22 436.7 260.8"/><path class="cls-4" d="M446.34,453.49l1,13a15.19,15.19,0,0,1-10.4,1.38l-2-15.39Z" transform="translate(-2.3 -56.86)"/><path class="cls-7" d="M431.9,450.77a14.09,14.09,0,0,0,.54,8l16.32-.84a22.4,22.4,0,0,0,.14-7.83Z" transform="translate(-2.3 -56.86)"/><path class="cls-3" d="M408.53,481.41c.88,2,39.67-.15,39.67-.15s1.24-12.59,0-16.46-6.87.48-10.75-.5c0,0-2.32-3.51-4.2-3.39-.7,0-3.14,1.76-6.19,3.95l-1.53,1.1c-.36.27-.73.53-1.11.8l-1.84,1.31-.7.49h0l-1.7,1.18c-3.4,2.31-6.62,4.27-8.48,4.63C406.73,475.33,407.64,479.35,408.53,481.41Z" transform="translate(-2.3 -56.86)"/><path class="cls-8" d="M422.6,468.07a3.3,3.3,0,0,1,2.13.46,10,10,0,0,1,3,3.57.72.72,0,0,0,.4.35.63.63,0,0,0,.55-.05.8.8,0,0,0,.27-1c-.06-.12-1.54-3-3.57-4.18a5.37,5.37,0,0,0-.93-.42C423.42,466.85,422.57,467.1,422.6,468.07Z" transform="translate(-2.3 -56.86)"/><path class="cls-8" d="M425.55,466a3.72,3.72,0,0,1,1.28.45,10.19,10.19,0,0,1,3,3.58.68.68,0,0,0,.4.35.61.61,0,0,0,.54-.06.8.8,0,0,0,.28-1c-.06-.12-1.54-3-3.58-4.18l-.39-.21C426.43,464.92,425.7,464.88,425.55,466Z" transform="translate(-2.3 -56.86)"/><path class="cls-8" d="M420.2,469.74a3.34,3.34,0,0,1,1.69.48,10,10,0,0,1,3,3.57.72.72,0,0,0,.41.36.61.61,0,0,0,.54-.06.79.79,0,0,0,.27-1,11.37,11.37,0,0,0-3.57-4.19,6.11,6.11,0,0,0-.63-.31h0C420.79,468.45,420.14,468.75,420.2,469.74Z" transform="translate(-2.3 -56.86)"/><path class="cls-7" d="M478,455l-12.11.6-31.06-80.15-6.37-86.76L456.93,284l1.58-.26,4.75-.79c-2.07,18.54-5,84.12-5,84.12a308.48,308.48,0,0,1,9.35,29.68C471.73,412.82,478,455,478,455Z" transform="translate(-2.3 -56.86)"/><path class="cls-6" d="M475.34,454.11h-.14a.81.81,0,0,1-.77-.7C474.36,453,467,409,462.68,395c-2.86-9.2-10.05-27.57-10.13-27.76a1,1,0,0,1-.06-.38L456.93,284l1.58-.26-4.45,83.11c.77,2,7.37,18.94,10.1,27.68,4.38,14.09,11.73,58.19,11.81,58.64A.86.86,0,0,1,475.34,454.11Z" transform="translate(-2.3 -56.86)"/><path class="cls-4" d="M476.31,453.27l3.51,13.24a15.17,15.17,0,0,1-10.4,1.38l-3.49-15.52Z" transform="translate(-2.3 -56.86)"/><path class="cls-9" d="M462.6,451.85c-.59,3.17-.42,5.53,1.79,7.46l17.05-1.08a14,14,0,0,0-.59-7.59Z" transform="translate(-2.3 -56.86)"/><path class="cls-10" d="M441.81,481.41c.88,2,39.67-.15,39.67-.15s1.23-12.59,0-16.46-6.87.48-10.75-.5c0,0-2.32-3.51-4.2-3.39-.7,0-3.14,1.76-6.19,3.95l-1.53,1.1-1.11.8-1.84,1.31-.7.49h0l-1.7,1.18c-3.4,2.31-6.62,4.27-8.48,4.63C440,475.33,440.92,479.35,441.81,481.41Z" transform="translate(-2.3 -56.86)"/><path class="cls-8" d="M455.88,468.07a3.26,3.26,0,0,1,2.12.46,10,10,0,0,1,3,3.57.72.72,0,0,0,.4.35.63.63,0,0,0,.55-.05.8.8,0,0,0,.27-1c-.06-.12-1.54-3-3.57-4.18a5.37,5.37,0,0,0-.93-.42C456.7,466.85,455.85,467.1,455.88,468.07Z" transform="translate(-2.3 -56.86)"/><path class="cls-8" d="M458.83,466a3.72,3.72,0,0,1,1.28.45,10.19,10.19,0,0,1,3,3.58.66.66,0,0,0,.4.35.61.61,0,0,0,.54-.06.78.78,0,0,0,.27-1,11.26,11.26,0,0,0-3.57-4.18l-.39-.21C459.71,464.92,459,464.88,458.83,466Z" transform="translate(-2.3 -56.86)"/><path class="cls-8" d="M453.48,469.74a3.34,3.34,0,0,1,1.69.48,10,10,0,0,1,3,3.57.72.72,0,0,0,.41.36.61.61,0,0,0,.54-.06.79.79,0,0,0,.27-1,11.37,11.37,0,0,0-3.57-4.19,6.11,6.11,0,0,0-.63-.31h0C454.07,468.45,453.42,468.75,453.48,469.74Z" transform="translate(-2.3 -56.86)"/><path class="cls-10" d="M406.4,288.67c6,3.45,45.85,2.79,54.76-2.76,2.75-1.72,4-12.8,4.4-27.65,0-.67,0-1.34.05-2,.06-2.72.08-5.56.08-8.48v-.89c0-1.29,0-2.59,0-3.91,0-1.07,0-2.16,0-3.25l-.06-4c0-.25,0-.5,0-.75,0-.62,0-1.24,0-1.87s0-1.07,0-1.6l0-1.4c0-.43,0-.87,0-1.31-.06-2.35-.13-4.71-.21-7.06,0-.69-.05-1.38-.07-2.07-.13-3.57-.28-7.11-.44-10.58,0-.3,0-.59,0-.89,0-.84-.07-1.66-.12-2.49,0-.35,0-.71-.05-1.06l-.06-1.16c0-.5-.05-1-.07-1.48l-.06-1.15c0-.37,0-.72-.06-1.08l-.15-2.67c0-.3,0-.59-.05-.88-.88-15.42-1.89-27.65-2.45-31.19-1.82-11.54-27.31-23-27.31-23l-11.56,4.09a19.16,19.16,0,0,0-2,.82c-.41.19-.81.39-1.2.61-8.07,4.46-13,14-12,24.06.38,4.08.54,8.58.56,13.25,0,.77,0,1.55,0,2.33,0,2.23-.05,4.48-.1,6.72l-.06,2.3v.09c0,.39,0,.77,0,1.16l0,1.07c0,.39,0,.77,0,1.16,0,1.22-.08,2.44-.13,3.64,0,.36,0,.73,0,1.09,0,1-.08,2-.11,2.93,0,.36,0,.73,0,1.09-.06,1.7-.13,3.35-.17,4.93,0,.47,0,.93-.05,1.38l0,1.27,0,1.29c0,2.26-.06,4.34,0,6.18,0,.19,0,.38,0,.56,0,.58,0,1.17,0,1.78,0,2.43-.06,5.09-.2,7.91l-.06,1.13-.06,1.05c0,.37-.05.75-.07,1.13-.06.9-.12,1.82-.18,2.75,0,.45-.07.91-.11,1.37a.76.76,0,0,1,0,.15v.06c0,.35-.05.7-.08,1,0,0,0,.09,0,.14,0,.65-.1,1.31-.15,2,0,.3-.05.6-.07.89-.08.91-.15,1.82-.23,2.73-.15,1.64-.29,3.29-.43,4.94C404.12,270.11,402.67,286.54,406.4,288.67Z" transform="translate(-2.3 -56.86)"/><path class="cls-3" d="M419,267.49c8.32,0,15.63-3.1,20.68-6A53.43,53.43,0,0,0,450.73,253a.75.75,0,0,0,0-1,.62.62,0,0,0-.92,0A53.72,53.72,0,0,1,439,260.23c-6.06,3.51-15.47,7.27-25.88,5.3a.65.65,0,0,0-.75.58.71.71,0,0,0,.53.82A32.55,32.55,0,0,0,419,267.49Z" transform="translate(-2.3 -56.86)"/><path class="cls-3" d="M430.7,172.61a.67.67,0,0,0,.63-.52.73.73,0,0,0-.46-.88A27,27,0,0,1,415.93,158a.62.62,0,0,0-.88-.29.76.76,0,0,0-.27,1,27.72,27.72,0,0,0,15.75,14Z" transform="translate(-2.3 -56.86)"/><path class="cls-3" d="M446.45,220.39a.66.66,0,0,0,.6-.42c6.31-15.88-2.35-45.05-2.72-46.28a.64.64,0,0,0-.82-.45.72.72,0,0,0-.41.89c.09.3,8.87,29.89,2.75,45.27a.75.75,0,0,0,.34.94A.6.6,0,0,0,446.45,220.39Z" transform="translate(-2.3 -56.86)"/><path class="cls-3" d="M445.11,179.88a.63.63,0,0,0,.54-.33.74.74,0,0,0-.19-1l-4.86-3.39a.61.61,0,0,0-.89.22.74.74,0,0,0,.19,1l4.86,3.39A.63.63,0,0,0,445.11,179.88Z" transform="translate(-2.3 -56.86)"/><path class="cls-3" d="M465.54,233.06c-1.77,3.82-3.61,7.21-5,8.36-.31.25-1,.77-5.06,1.18-3.81.38-10.63.67-23,.56-7.78-.07-20.68-.47-26-.65a.57.57,0,0,1,0-.13c0-.35.05-.7.08-1,19.54.63,50.89.84,53.18-1,1.46-1.19,3.64-5.55,5.69-10.25Z" transform="translate(-2.3 -56.86)"/><path class="cls-10" d="M461.54,162.12l.26.68.22.57.39,1.1c.26.73.5,1.45.73,2.16.48,1.44.91,2.86,1.33,4.3q1.25,4.31,2.21,8.68a123.45,123.45,0,0,1,2.65,18,90.19,90.19,0,0,1-.59,18.94,70.24,70.24,0,0,1-2.06,9.64c-.46,1.6-1,3.18-1.59,4.76s-1.28,3.11-2,4.64h0l-.49.94a8.6,8.6,0,0,1-7.55,4.75c-5,0-9.91,0-14.86-.1s-9.9-.13-14.84-.23c-9.9-.19-23.66-2.36-33.6-2.85-1.49-.25-1.74-1.17-1.6-4.61a6,6,0,0,1,5.16-5.93h0c9.72-1,19.46-2.27,29.19-3.59q7.31-1,14.61-2c4.86-.7,9.74-1.41,14.56-2.15l-8,5.69h0a41.54,41.54,0,0,0,3.59-12.24,67.58,67.58,0,0,0,.4-14,100.86,100.86,0,0,0-2.15-14.57c-.54-2.42-1.15-4.84-1.84-7.22-.35-1.19-.71-2.37-1.09-3.53-.19-.58-.38-1.15-.58-1.71l-.29-.82-.25-.66-.13-.33c-2.07-5.51.35-11.81,5.39-14.07S459.45,156.67,461.54,162.12Z" transform="translate(-2.3 -56.86)"/><path class="cls-3" d="M455.16,225.31a.61.61,0,0,1-.43-.18c-.06,0-5.67-5.37-11.05-4.2a.65.65,0,0,1-.76-.55.71.71,0,0,1,.51-.84c6-1.31,11.91,4.29,12.16,4.53a.76.76,0,0,1,.06,1A.63.63,0,0,1,455.16,225.31Z" transform="translate(-2.3 -56.86)"/><path class="cls-3" d="M448.73,221.38a.61.61,0,0,1-.52-.29.74.74,0,0,1,.14-1c2.16-1.73,6.31-2.09,6.49-2.11a.69.69,0,0,1,.7.66.7.7,0,0,1-.6.76s-4,.35-5.83,1.83A.62.62,0,0,1,448.73,221.38Z" transform="translate(-2.3 -56.86)"/><path class="cls-11" d="M406.43,115.34s-4-.27-6-8c-2.4-9.17,6.84-2.17,13.83-3.07s17.3-.21,20.81,6.22,1,13.58,1,13.58Z" transform="translate(-2.3 -56.86)"/><path class="cls-4" d="M433.35,145.91s1.88-1.91,2.76-2.93c-2-2.8-6.09-9.09-6.53-15.33l-14.44,11.5s.37.76,1,2a1.28,1.28,0,0,1,.11.2l0,.05c.46.85,1,1.91,1.72,3.08l.77,1.31c.25.4.5.82.76,1.23a60.83,60.83,0,0,0,4.27,6.11C427.06,151.54,433.35,145.91,433.35,145.91Z" transform="translate(-2.3 -56.86)"/><path class="cls-5" d="M416.15,141.12a1.28,1.28,0,0,1,.11.2l0,.05c.46.85,1,1.91,1.72,3.08l.77,1.31c.25.4.5.82.76,1.23,1.47-3.4,1.67-8.78,1.71-8.89Z" transform="translate(-2.3 -56.86)"/><path class="cls-4" d="M434.15,127.71a48.69,48.69,0,0,1-5.53,5.52c-6.81,5.93-16.1,12-18.78,12.5-2,.37-3.42-.85-4.32-4.63-.14-.58-.27-1.19-.39-1.82l-.62-3.85c-.06-.46-.11-.92-.17-1.38-1-.15-3.09-.56-2.79-1.22.37-.84,2.31-5,2.39-5.14h0a43.83,43.83,0,0,1,.56-8.34,8.47,8.47,0,0,1,.82-2.41,7.75,7.75,0,0,1,3.71-3.51c4.79-2.1,13.82-5.63,18.76-4.8C434.75,109.78,439.79,120.78,434.15,127.71Z" transform="translate(-2.3 -56.86)"/><path class="cls-5" d="M414.38,131.08c.05.92-1.27,1.75-2.93,1.84s-3-.58-3.08-1.51,1.26-1.75,2.93-1.85S414.34,130.15,414.38,131.08Z" transform="translate(-2.3 -56.86)"/><path class="cls-11" d="M404.34,134.05s4.75-2.31,7.93-.52,3.72-1.64,3.16-3.72,0-6.68,0-6.68l1.35.09s-.36,6.66,1.75,8.28,1.19,10.57-1.88,13-7.37,4.5-10,2.43S404.34,134.05,404.34,134.05Z" transform="translate(-2.3 -56.86)"/><path class="cls-9" d="M406.68,138.45h-.22a.39.39,0,0,1-.37-.42.39.39,0,0,1,.38-.4,3,3,0,0,0,2.49-1.77.36.36,0,0,1,.5-.2.43.43,0,0,1,.17.55A3.72,3.72,0,0,1,406.68,138.45Z" transform="translate(-2.3 -56.86)"/><path class="cls-6" d="M406,126.28c-.05.75.23,1.39.61,1.41s.73-.56.77-1.32-.23-1.39-.61-1.41S406.08,125.52,406,126.28Z" transform="translate(-2.3 -56.86)"/><path class="cls-11" d="M409.82,124.8a.43.43,0,0,0,.26-.09.7.7,0,0,0,.21-.9,4.07,4.07,0,0,0-4.8-2.07.69.69,0,0,0-.39.83.6.6,0,0,0,.76.42c2.14-.75,3.35,1.41,3.4,1.5A.56.56,0,0,0,409.82,124.8Z" transform="translate(-2.3 -56.86)"/><path class="cls-5" d="M419.39,128.83a.43.43,0,0,0,.37-.4,7.74,7.74,0,0,1,2.32-4.84.49.49,0,0,0,.07-.64.39.39,0,0,0-.59-.08,8.62,8.62,0,0,0-2.63,5.46.45.45,0,0,0,.38.5Z" transform="translate(-2.3 -56.86)"/><path class="cls-5" d="M422.44,126.36a.42.42,0,0,0,.35-.27.48.48,0,0,0-.22-.6,4.29,4.29,0,0,0-2.54-.37.46.46,0,0,0-.3.55.42.42,0,0,0,.51.33,3.46,3.46,0,0,1,2,.33A.36.36,0,0,0,422.44,126.36Z" transform="translate(-2.3 -56.86)"/><path class="cls-11" d="M427.8,108.62c-4.94-.83-14,2.7-18.76,4.8a7.5,7.5,0,0,0-2.61,1.92,23.64,23.64,0,0,0,4.44-1.18c1.11,1.65,2.63,3,4.09,3,.09,2,.37,3.87.46,5.94a6.22,6.22,0,0,0,1.35.09s3-5.82,7.33-2.46c2.48,1.91,1.89,5.53.09,8.13,1,2.87,2.88,4.44,4.43,4.34a48.69,48.69,0,0,0,5.53-5.52C439.79,120.78,434.75,109.78,427.8,108.62Z" transform="translate(-2.3 -56.86)"/><path class="cls-8" d="M404,126a2.45,2.45,0,0,0,0,.27l0,.3c.38,3.13,1.66,5.42,3,5.27s2.14-2.87,1.8-6.15-1.65-5.74-3-5.57S403.71,122.8,404,126Zm.6.76c0-.18-.05-.37-.07-.55s0-.1,0-.14c-.29-3.1.46-5.29,1.36-5.39s2.11,1.94,2.43,5.07-.46,5.42-1.35,5.53S405,129.57,404.58,126.72Z" transform="translate(-2.3 -56.86)"/><path class="cls-8" d="M403.51,126.79a.25.25,0,0,0,.36-.08.73.73,0,0,1,.16-.18l.09,0a.48.48,0,0,1,.3.14.27.27,0,0,0,.16.08c0-.18-.05-.37-.07-.55s0-.1,0-.14a.77.77,0,0,0-.44-.09l-.08,0a.9.9,0,0,0-.54.44A.3.3,0,0,0,403.51,126.79Z" transform="translate(-2.3 -56.86)"/><path class="cls-8" d="M408.44,124.82l6.92-1.06c0,.2-.06.39-.08.58l-6.77,1h0a.28.28,0,0,1-.07-.56Z" transform="translate(-2.3 -56.86)"/><rect class="cls-7" x="356.56" y="226.05" width="53.7" height="5.23" transform="translate(764.51 400.48) rotate(-180)"/><polygon class="cls-7" points="340.66 122.31 358.49 172.64 354.25 174.43 335.87 122.31 340.66 122.31"/><path class="cls-4" d="M378.7,233.1a13.22,13.22,0,0,0,1.85,1.47c3,2,8.26,4.58,14.08,3.1a16.25,16.25,0,0,0,8.93-6.35s-.61-4-2.84-4.88c-1.91-.76-.54,2.51-1.08,3.54s-7.42,1.43-11.51,1a43.19,43.19,0,0,0-6.54-.18l-.84,0-1.38.09a1.07,1.07,0,0,0-.6.24,1.23,1.23,0,0,0-.35.46A1.33,1.33,0,0,0,378.7,233.1Z" transform="translate(-2.3 -56.86)"/><path class="cls-4" d="M378.42,231.6a14.64,14.64,0,0,0,6.1,3.72h.09a.25.25,0,0,0,.25-.2.29.29,0,0,0-.17-.37,13.94,13.94,0,0,1-5.92-3.62A1.23,1.23,0,0,0,378.42,231.6Z" transform="translate(-2.3 -56.86)"/><path class="cls-4" d="M380.75,230.81a15.64,15.64,0,0,0,5.53,3.14h.08a.29.29,0,0,0,.26-.2.3.3,0,0,0-.18-.37,16,16,0,0,1-4.85-2.62Z" transform="translate(-2.3 -56.86)"/><g class="cls-12"><path class="cls-13" d="M357.75,247.64c20,80.14-18.9,184.37-102,225.07-88.54,43.34-206.66,4.55-241-75.95-22.18-52.05-17-139.56,34.11-162.45,37-16.55,67.83,50.39,116.39,39.92,60.37-13,63.31-123.11,110.26-126.91C310.05,144.52,346.12,201,357.75,247.64Z" transform="translate(-2.3 -56.86)"/><circle class="cls-14" cx="147.1" cy="188.59" r="15.56"/><circle class="cls-14" cx="200.45" cy="197.58" r="7.59" transform="translate(-28.92 307.02) rotate(-80.8)"/><circle class="cls-14" cx="250.97" cy="171.47" r="7.59" transform="translate(39.21 334.87) rotate(-80.78)"/><path class="cls-14" d="M279.67,287.24a6.75,6.75,0,1,1-6.74-6.75A6.75,6.75,0,0,1,279.67,287.24Z" transform="translate(-2.3 -56.86)"/><path class="cls-14" d="M275.94,283.11l-1.58,9.95s-11.77-5-12.21-5.89.07-9,.07-9Z" transform="translate(-2.3 -56.86)"/><polygon class="cls-14" points="253.29 182.34 259.85 190.65 251.54 196.37 253.29 182.34"/><polygon class="cls-14" points="242.04 113.63 253.17 109.29 259.68 130.64 252.45 133.78 242.04 113.63"/><polygon class="cls-14" points="192.14 142.41 201.39 136.07 218.16 156.79 209.87 163.38 192.14 142.41"/><polygon class="cls-14" points="118.61 312.23 120.27 311.26 77.61 264.69 71.14 274.32 118.61 312.23"/><path class="cls-15" d="M234.34,323.71s-17.15,13.51-21.13,15-5.37-5.8-1-13.42,9.75-15.07,9.75-15.07l-42.48-20.95,34.64-47.41,40.7,58Z" transform="translate(-2.3 -56.86)"/><path class="cls-16" d="M232.78,321.55l-19.57,17.14c3.47-1.28,16.91-11.69,20.33-14.36Z" transform="translate(-2.3 -56.86)"/><polygon class="cls-14" points="202.95 198.57 212.56 194.12 206.21 169.77 202.95 198.57"/><path class="cls-17" d="M261.45,283.11,271.57,287l3.47,7.53S242,325.61,235.21,327.69s-6.5-17.32-3.25-24.24S261.45,283.11,261.45,283.11Z" transform="translate(-2.3 -56.86)"/><polygon class="cls-17" points="261.03 190.48 275.34 225.12 270.66 228.23 259.06 223.38 247.63 192.38 261.03 190.48"/><polygon class="cls-16" points="262.49 195.53 273.64 226.25 275.34 225.12 263.08 195.53 262.49 195.53"/><circle class="cls-14" cx="253.17" cy="192.66" r="10.32"/><path class="cls-16" d="M264.79,252.39a13.38,13.38,0,0,1-.13,1.8,10.32,10.32,0,0,0-9.19-15l-.32,0A13.82,13.82,0,0,1,264.79,252.39Z" transform="translate(-2.3 -56.86)"/><polygon class="cls-14" points="263.88 216.28 260.75 224.71 250.09 215.59 253.17 209.36 263.88 216.28"/><path class="cls-18" d="M252.35,270.63l9.87,7.53s1.73,6.24.87,5.89-24.77,16.45-29.62,20.61-9.47-7.27-6.2-15.76S252.35,270.63,252.35,270.63Z" transform="translate(-2.3 -56.86)"/><polygon class="cls-14" points="208.14 213.77 213.16 210.65 225.76 235.28 218.91 239.24 208.14 213.77"/><polygon class="cls-18" points="248.67 199.14 255.44 194.12 262.88 198.41 266.68 213.77 260.79 219.05 250.05 213.77 248.67 199.14"/><polygon class="cls-18" points="205.28 163.38 253.17 180.78 254.03 191.86 238.97 206.59 209.87 195.03 205.28 163.38"/><polygon class="cls-16" points="206.21 169.77 250.09 184.17 254.03 191.86 253.17 180.78 205.28 163.38 206.21 169.77"/><polygon class="cls-17" points="208.3 184.17 245.55 200.52 238.97 206.59 209.87 195.03 208.3 184.17"/><polygon class="cls-18" points="206.32 165.66 206.21 197.14 183.98 233 170.47 237.67 160.86 208.06 206.32 165.66"/><polygon class="cls-17" points="206.24 182.34 168.32 231.04 170.47 237.67 183.98 233 206.21 197.14 206.24 182.34"/><polygon class="cls-14" points="144.5 184.94 152.55 174.03 171.6 204.16 169.91 206.05 144.5 184.94"/><path class="cls-8" d="M122.57,368.12,78,330.64l-1.3-12.21s40.18-48.84,44.25-54,4.59-12.47,6.92-15.07c1.26-1.39,6.62-3.46,11.33-5.08,4.06-1.39,14.94,3.61,14.94,3.61l20.84,17.31L177,285.61l17.42,33.84s-2.18,12.92-11.54,22.62S122.57,368.12,122.57,368.12Z" transform="translate(-2.3 -56.86)"/><path class="cls-17" d="M194.44,319.45l-1-1.88-22.17,9.34s-22.17-11.17-29.36-4.76-16.36,3-20.34-3.08-8.19,0-8.19,0c-4.72,29,13.9,44.13,16.63,46.56h0c14.51-4.94,45.75-16.18,52.86-23.56C192.26,332.37,194.44,319.45,194.44,319.45Z" transform="translate(-2.3 -56.86)"/><path class="cls-8" d="M15.15,408l45.79-69.3a4.66,4.66,0,0,1,6.81-1.07l43.57,34.79a4.67,4.67,0,0,1,1.63,4.73L90.83,470.29c-.81,3.42,1.22,3.18-7.62,2.43l-66-57.44C15.48,413.74,13.87,410,15.15,408Z" transform="translate(-2.3 -56.86)"/><path class="cls-16" d="M114.77,280.67s-1.24,5.17-7.63,12.47S95,302.87,95,302.87s9.35-1.49,14.64-8.43A23.93,23.93,0,0,0,114.77,280.67Z" transform="translate(-2.3 -56.86)"/><polygon class="cls-16" points="170.56 206.59 171.6 211.17 172.34 227.15 174.6 227.55 172.64 208.32 170.56 206.59"/><path class="cls-16" d="M156.75,353.67c-13.5,5-30.48,8.11-30.48,8.11l3.77,3.85c14.51-4.94,45.75-16.18,52.86-23.56A263.32,263.32,0,0,1,156.75,353.67Z" transform="translate(-2.3 -56.86)"/><path class="cls-16" d="M88,304.66h3.74l21.69-26.11v-4.91C106.37,282.26,95.93,295,88,304.66Z" transform="translate(-2.3 -56.86)"/><path class="cls-17" d="M184.05,340.81a48.32,48.32,0,0,0,10.39-21.36l-4.23-8.21-35.36,30.67S169.87,344,184.05,340.81Z" transform="translate(-2.3 -56.86)"/><polygon class="cls-8" points="154.8 188.05 152.55 174.03 190.09 142.59 197.9 141.91 209.87 157.4 209.87 165.66 175.58 204.16 171.6 204.16 154.8 188.05"/><polygon class="cls-8" points="219.75 157.06 212.47 155.84 200.18 140.6 202.08 133.5 240.01 113.07 246.24 114.8 253.17 127.44 252.3 135.06 219.75 157.06"/><path class="cls-8" d="M251,170.79l5.54-5.71,33-6.38a5.28,5.28,0,0,1,6.24,5.81h0a20.94,20.94,0,0,1-14.16,17.33l-18.82,6.27L257.55,184Z" transform="translate(-2.3 -56.86)"/><path class="cls-8" d="M149.39,301.54l59-30.91h3.81l11,21.3s-.89,5.75-.89,5.49-51.84,41.27-51.84,41.27Z" transform="translate(-2.3 -56.86)"/><path class="cls-8" d="M215.46,270.63V266s30-17.14,37.93-11.78,3.46,15.59-1.39,20.79-22.34,18-22.34,18l-4.79-2.77Z" transform="translate(-2.3 -56.86)"/><path class="cls-17" d="M170.44,338.69s51.84-41.53,51.84-41.27.89-5.49.89-5.49l-.18-.34a10.36,10.36,0,0,0,2.2-1.12l4.47,2.59s17.5-12.82,22.34-18c3-3.22,5.86-8.34,5.73-13.06A39.69,39.69,0,0,1,246,275.91c-9.61,6.93-14.07,9.18-14.07,9.18l-2.21-5.68-16.19,11.21,4.5,3.91-36.89,27a82.86,82.86,0,0,0-4-8.52c-.94-1.65-7.88,5-14,12.81Z" transform="translate(-2.3 -56.86)"/><polygon class="cls-16" points="220.35 238.4 219.98 240.57 168.14 281.83 167.1 278.97 220.35 238.4"/><circle class="cls-14" cx="156.04" cy="264.69" r="20.67"/><circle class="cls-14" cx="216.95" cy="224.71" r="10.71"/><path class="cls-16" d="M218.54,273.29a9.61,9.61,0,0,1,8.83,13.4,9.6,9.6,0,1,0-16.94-8.92A9.58,9.58,0,0,1,218.54,273.29Z" transform="translate(-2.3 -56.86)"/><path class="cls-16" d="M157.07,306a17.9,17.9,0,0,1,16.45,25,17.9,17.9,0,1,0-31.58-16.63A17.9,17.9,0,0,1,157.07,306Z" transform="translate(-2.3 -56.86)"/><path class="cls-17" d="M113.84,329.25a46.48,46.48,0,0,1,63.33-43.34l-.15-.3-.21-2.06a48.55,48.55,0,0,0-48.09,82.53l2.29-.78A46.41,46.41,0,0,1,113.84,329.25Z" transform="translate(-2.3 -56.86)"/><line class="cls-19" x1="103.6" y1="300.24" x2="60.76" y2="398.47"/><line class="cls-19" x1="164.65" y1="197.5" x2="205.75" y2="152.06"/><line class="cls-19" x1="208.14" y1="150.48" x2="251.55" y2="124.48"/><path class="cls-17" d="M256.26,181.38l38.45-12.5a21.39,21.39,0,0,0,.66-2.41l-40.05,13Z" transform="translate(-2.3 -56.86)"/><polygon class="cls-17" points="109.47 304.93 74.36 408.6 94.02 415.79 118.61 312.23 109.47 304.93"/><path class="cls-15" d="M275,294.53,271.57,287l-34.7,39.91C246.18,321.65,275,294.53,275,294.53Z" transform="translate(-2.3 -56.86)"/><path class="cls-15" d="M261.89,284.6,227,300.51c1.26,4,3.84,6.43,6.49,4.15C237.75,301,256.85,287.49,261.89,284.6Z" transform="translate(-2.3 -56.86)"/><polygon class="cls-16" points="255.44 194.12 260.49 199.48 263.88 211.56 260.79 219.05 266.68 213.77 262.88 198.41 255.44 194.12"/><polygon class="cls-17" points="219.75 157.06 252.3 135.06 253.17 127.44 212.47 155.84 219.75 157.06"/><polygon class="cls-17" points="209.87 165.66 209.87 157.4 171.6 204.16 175.58 204.16 209.87 165.66"/><path class="cls-17" d="M279.67,177.37c-7.92,2.86-22.12,6.58-22.12,6.58l5.19,4.16,18.82-6.27a20.93,20.93,0,0,0,12-10.37A138,138,0,0,1,279.67,177.37Z" transform="translate(-2.3 -56.86)"/><path class="cls-16" d="M275,294.53l-.68-1.47h0l-22,21.83C263.32,305.54,275,294.53,275,294.53Z" transform="translate(-2.3 -56.86)"/><path class="cls-16" d="M279.67,287.24A6.72,6.72,0,0,0,278,282.8l-.82.47a8.2,8.2,0,0,1,1.08,8.09A6.73,6.73,0,0,0,279.67,287.24Z" transform="translate(-2.3 -56.86)"/><path class="cls-16" d="M289.48,158.7l-33,6.38,38.45-4A5.27,5.27,0,0,0,289.48,158.7Z" transform="translate(-2.3 -56.86)"/><polygon class="cls-16" points="200.18 140.6 203.21 135.06 238.79 116.5 246.24 114.8 240.01 113.07 202.08 133.5 200.18 140.6"/><polygon class="cls-16" points="154.8 188.05 156.19 175.41 190.56 145.63 197.9 141.91 190.09 142.59 152.55 174.03 154.8 188.05"/><path class="cls-16" d="M139.16,244.25c-4.71,1.62-10.07,3.69-11.33,5.08-2.33,2.6-2.85,9.87-6.92,15.07-.74.94-2.66,3.31-5.31,6.56l1.65,5.51,2.66-5.84s8.27-7.36,9.14-12.11,2.25-6.16,7.79-9.8,17.26-.86,17.26-.86S143.22,242.86,139.16,244.25Z" transform="translate(-2.3 -56.86)"/><path class="cls-17" d="M117.25,275.91a30.09,30.09,0,0,0-.64-6.19l-1.73,2.13a28.53,28.53,0,0,1,.29,4.06A28.13,28.13,0,0,1,88.54,304l-1.73,2.11h.27A30.21,30.21,0,0,0,117.25,275.91Z" transform="translate(-2.3 -56.86)"/><polygon class="cls-16" points="118.61 312.23 115.61 309.83 106.44 363.48 118.61 312.23"/><polygon class="cls-16" points="124.63 309.83 120.27 306.9 117.31 308.78 120.27 311.26 124.63 309.83"/><path class="cls-16" d="M149.68,232.6l.61-2.67c-.3,0-.59,0-.9,0a15.57,15.57,0,0,0-15.26,12.54,16.78,16.78,0,0,1,15.26-9.85Z" transform="translate(-2.3 -56.86)"/><polygon class="cls-16" points="83.34 250.64 86.39 250.64 77.04 262.87 75.66 273.78 74.36 261.57 83.34 250.64"/><polygon class="cls-16" points="74.36 276.89 30.52 363.62 68.73 272.39 74.36 276.89"/><path class="cls-16" d="M253.39,254.26c-8-5.36-37.93,11.78-37.93,11.78v4.59a32.82,32.82,0,0,1,1.65-3.76c.43-.57,12.55-5.16,21.91-9.32s15.75-2.19,15.76-2.19A13.2,13.2,0,0,0,253.39,254.26Z" transform="translate(-2.3 -56.86)"/><path class="cls-16" d="M212.86,272h0l-.69-1.33h-3.81l-59,30.91C154.5,301.72,208,272,208,272Z" transform="translate(-2.3 -56.86)"/><path class="cls-16" d="M222,213.91l32.56-22,.29-2.56-.29.09-34.14,24.2Z" transform="translate(-2.3 -56.86)"/><polygon class="cls-16" points="209.87 162.31 209.83 162.34 173.85 204.16 175.58 204.16 209.87 165.66 209.87 162.31"/><path class="cls-16" d="M281.56,181.84a20.93,20.93,0,0,0,9.8-6.89,88.09,88.09,0,0,1-10.13,5.39c-4,1.84-13.11,4.86-19.56,6.91l1.07.86Z" transform="translate(-2.3 -56.86)"/><path class="cls-16" d="M203.14,190.48a7.52,7.52,0,0,0-2.69-.5,7.6,7.6,0,0,0-7.57,7.12,7.55,7.55,0,0,1,9.72-5.19Z" transform="translate(-2.3 -56.86)"/><path class="cls-16" d="M255.15,165.13a7.61,7.61,0,0,0-10.26,1.79,7.74,7.74,0,0,1,8.68-.47C254.05,166.06,254.62,165.58,255.15,165.13Z" transform="translate(-2.3 -56.86)"/><path class="cls-16" d="M252,275.05a22.75,22.75,0,0,0,5.29-9.4h0s-4.77,7.85-10.48,12.52-18.75,14-18.75,14l1.6.93S247.16,280.24,252,275.05Z" transform="translate(-2.3 -56.86)"/><path class="cls-16" d="M263.05,281.56s-21.75,15.41-25,19.52h0c8.58-6.39,24.31-17.3,25-17C263.49,284.21,263.33,283,263.05,281.56Z" transform="translate(-2.3 -56.86)"/></g><circle class="cls-20" cx="296" cy="94.3" r="42.69"/><circle class="cls-20" cx="296" cy="94.3" r="32.3"/><circle class="cls-20" cx="296" cy="94.3" r="21.91"/><line class="cls-21" x1="245.07" y1="59.05" x2="198.74" y2="26.63"/><line class="cls-21" x1="217.84" y1="99.56" x2="134.57" y2="99.56"/><rect class="cls-8" x="319.12" y="36.52" width="30.39" height="3.38"/><rect class="cls-8" x="319.12" y="44.83" width="10.07" height="3.38"/><rect class="cls-8" x="161.01" y="36.99" width="30.39" height="3.38"/><rect class="cls-8" x="181.34" y="45.3" width="10.07" height="3.38"/><rect class="cls-8" x="86.93" y="181.81" width="30.39" height="3.38" transform="translate(201.95 310.13) rotate(180)"/><rect class="cls-8" x="86.93" y="190.12" width="10.07" height="3.38" transform="translate(181.62 326.76) rotate(180)"/><path class="cls-22" d="M143.45,56.86a15,15,0,1,0,15,15A15,15,0,0,0,143.45,56.86Zm0,22.47a7.47,7.47,0,1,1,7.47-7.47A7.48,7.48,0,0,1,143.45,79.33Z" transform="translate(-2.3 -56.86)"/><path class="cls-22" d="M180.86,56.86a15,15,0,1,0,15,15A15,15,0,0,0,180.86,56.86Zm0,22.47a7.47,7.47,0,1,1,7.47-7.47A7.48,7.48,0,0,1,180.86,79.33Z" transform="translate(-2.3 -56.86)"/><rect class="cls-14" x="88.71" y="85.65" width="27.83" height="27.83" rx="2.56"/><rect class="cls-17" x="93.05" y="89.99" width="19.15" height="19.15" rx="1.52"/><path class="cls-23" d="M96.52,144.88h0a1.17,1.17,0,0,1-1.18-1.17v-4a1.18,1.18,0,0,1,1.18-1.18h0a1.17,1.17,0,0,1,1.17,1.18v4A1.17,1.17,0,0,1,96.52,144.88Z" transform="translate(-2.3 -56.86)"/><path class="cls-23" d="M102.12,144.88h0a1.17,1.17,0,0,1-1.17-1.17v-4a1.17,1.17,0,0,1,1.17-1.18h0a1.18,1.18,0,0,1,1.18,1.18v4A1.17,1.17,0,0,1,102.12,144.88Z" transform="translate(-2.3 -56.86)"/><path class="cls-23" d="M107.73,144.88h0a1.17,1.17,0,0,1-1.18-1.17v-4a1.18,1.18,0,0,1,1.18-1.18h0a1.17,1.17,0,0,1,1.17,1.18v4A1.17,1.17,0,0,1,107.73,144.88Z" transform="translate(-2.3 -56.86)"/><path class="cls-23" d="M113.33,144.88h0a1.17,1.17,0,0,1-1.17-1.17v-4a1.17,1.17,0,0,1,1.17-1.18h0a1.18,1.18,0,0,1,1.18,1.18v4A1.17,1.17,0,0,1,113.33,144.88Z" transform="translate(-2.3 -56.86)"/><path class="cls-23" d="M96.52,174.27h0a1.17,1.17,0,0,1-1.18-1.17v-4A1.18,1.18,0,0,1,96.52,168h0a1.17,1.17,0,0,1,1.17,1.17v4A1.17,1.17,0,0,1,96.52,174.27Z" transform="translate(-2.3 -56.86)"/><path class="cls-23" d="M102.12,174.27h0A1.17,1.17,0,0,1,101,173.1v-4a1.17,1.17,0,0,1,1.17-1.17h0a1.18,1.18,0,0,1,1.18,1.17v4A1.17,1.17,0,0,1,102.12,174.27Z" transform="translate(-2.3 -56.86)"/><path class="cls-23" d="M107.73,174.27h0a1.17,1.17,0,0,1-1.18-1.17v-4a1.18,1.18,0,0,1,1.18-1.17h0a1.17,1.17,0,0,1,1.17,1.17v4A1.17,1.17,0,0,1,107.73,174.27Z" transform="translate(-2.3 -56.86)"/><path class="cls-23" d="M113.33,174.27h0a1.17,1.17,0,0,1-1.17-1.17v-4a1.17,1.17,0,0,1,1.17-1.17h0a1.18,1.18,0,0,1,1.18,1.17v4A1.17,1.17,0,0,1,113.33,174.27Z" transform="translate(-2.3 -56.86)"/><path class="cls-23" d="M116.46,148h0a1.18,1.18,0,0,1,1.18-1.17h4a1.18,1.18,0,0,1,1.18,1.17h0a1.18,1.18,0,0,1-1.18,1.18h-4A1.18,1.18,0,0,1,116.46,148Z" transform="translate(-2.3 -56.86)"/><path class="cls-23" d="M116.46,153.62h0a1.18,1.18,0,0,1,1.18-1.18h4a1.18,1.18,0,0,1,1.18,1.18h0a1.17,1.17,0,0,1-1.18,1.17h-4A1.17,1.17,0,0,1,116.46,153.62Z" transform="translate(-2.3 -56.86)"/><path class="cls-23" d="M116.46,159.22h0a1.18,1.18,0,0,1,1.18-1.17h4a1.18,1.18,0,0,1,1.18,1.17h0a1.18,1.18,0,0,1-1.18,1.18h-4A1.18,1.18,0,0,1,116.46,159.22Z" transform="translate(-2.3 -56.86)"/><path class="cls-23" d="M116.46,164.83h0a1.18,1.18,0,0,1,1.18-1.18h4a1.18,1.18,0,0,1,1.18,1.18h0A1.17,1.17,0,0,1,121.6,166h-4A1.17,1.17,0,0,1,116.46,164.83Z" transform="translate(-2.3 -56.86)"/><path class="cls-23" d="M87.07,148h0a1.18,1.18,0,0,1,1.18-1.17h4A1.18,1.18,0,0,1,93.39,148h0a1.18,1.18,0,0,1-1.18,1.18h-4A1.18,1.18,0,0,1,87.07,148Z" transform="translate(-2.3 -56.86)"/><path class="cls-23" d="M87.07,153.62h0a1.18,1.18,0,0,1,1.18-1.18h4a1.18,1.18,0,0,1,1.18,1.18h0a1.17,1.17,0,0,1-1.18,1.17h-4A1.17,1.17,0,0,1,87.07,153.62Z" transform="translate(-2.3 -56.86)"/><path class="cls-23" d="M87.07,159.22h0a1.18,1.18,0,0,1,1.18-1.17h4a1.18,1.18,0,0,1,1.18,1.17h0a1.18,1.18,0,0,1-1.18,1.18h-4A1.18,1.18,0,0,1,87.07,159.22Z" transform="translate(-2.3 -56.86)"/><path class="cls-23" d="M87.07,164.83h0a1.18,1.18,0,0,1,1.18-1.18h4a1.18,1.18,0,0,1,1.18,1.18h0A1.17,1.17,0,0,1,92.21,166h-4A1.17,1.17,0,0,1,87.07,164.83Z" transform="translate(-2.3 -56.86)"/><path class="cls-14" d="M339.4,237.8h-5.47a1.16,1.16,0,0,0-1.13.91l-1.17,5.4H341.7l-1.17-5.4A1.16,1.16,0,0,0,339.4,237.8Z" transform="translate(-2.3 -56.86)"/><path class="cls-14" d="M323.91,243.59l-2.74,4.73a1.17,1.17,0,0,0,.23,1.44l4.09,3.71,5-8.72-5.25-1.69A1.16,1.16,0,0,0,323.91,243.59Z" transform="translate(-2.3 -56.86)"/><path class="cls-14" d="M321.17,259.9l2.74,4.73a1.17,1.17,0,0,0,1.36.53l5.25-1.69-5-8.72-4.09,3.71A1.17,1.17,0,0,0,321.17,259.9Z" transform="translate(-2.3 -56.86)"/><path class="cls-14" d="M333.93,270.42h5.47a1.15,1.15,0,0,0,1.13-.92l1.17-5.39H331.63l1.17,5.39A1.15,1.15,0,0,0,333.93,270.42Z" transform="translate(-2.3 -56.86)"/><path class="cls-14" d="M349.42,264.63l2.74-4.73a1.16,1.16,0,0,0-.23-1.44l-4.09-3.71-5,8.72,5.25,1.69A1.17,1.17,0,0,0,349.42,264.63Z" transform="translate(-2.3 -56.86)"/><path class="cls-14" d="M352.16,248.32l-2.74-4.73a1.16,1.16,0,0,0-1.36-.53l-5.25,1.69,5,8.72,4.09-3.71A1.16,1.16,0,0,0,352.16,248.32Z" transform="translate(-2.3 -56.86)"/><circle class="cls-24" cx="334.37" cy="197.25" r="12.86"/><path class="cls-22" d="M344.16,254.11a7.49,7.49,0,1,1-7.49-7.49A7.49,7.49,0,0,1,344.16,254.11Z" transform="translate(-2.3 -56.86)"/><circle class="cls-14" cx="334.37" cy="197.25" r="3.51"/><polygon class="cls-8" points="405.44 48.12 403.32 45.99 399.83 49.48 396.34 45.99 394.22 48.12 397.7 51.61 394.22 55.09 396.34 57.22 399.83 53.73 403.32 57.22 405.44 55.09 401.95 51.61 405.44 48.12"/><circle class="cls-8" cx="151.18" cy="72.57" r="3.65"/><circle class="cls-25" cx="243.41" cy="10.19" r="2.61"/></svg>