<svg id="Layer_1" data-name="Layer 1" xmlns="http://www.w3.org/2000/svg" xmlns:xlink="http://www.w3.org/1999/xlink" viewBox="0 0 698 569.21"><defs><style>.cls-1{fill:none;}.cls-2{fill:#fbbb4e;}.cls-3{fill:#864df9;}.cls-4{fill:#007aff;}.cls-5{fill:#ff3915;}.cls-6{clip-path:url(#clip-path);}.cls-7{fill:#fff;}</style><clipPath id="clip-path" transform="translate(0 -7.03)"><path class="cls-1" d="M536.17,65.19c10.31.27,34.55,6.53,44.8,9.61,96.36,29,137.2,138.7,102.59,242.92-50.21,151.23-417.77,282.1-562,210.73-197.88-97.89-115.15-460.81-8.7-462,76-.85,155.08,64.08,314.47,34.41C482.84,90.52,497.66,64.2,536.17,65.19Z"/></clipPath></defs><title>become-tutor</title><path class="cls-2" d="M275.68,11.09C295.44-6,333.18,34.66,343,63c2,5.83,11.58,20.12-.12,28.91-7.85,5.91-13.78,1.65-21.78-5.91-10.61-10-16.3-24.17-28.6-33-13.09-9.4-16.86-8.77-20.77-18.61C269.07,27.62,268.81,17,275.68,11.09Z" transform="translate(0 -7.03)"/><path class="cls-3" d="M408.48,23.35c1.45-1.05,10.11-3.72,14.56-.37,3.9,2.93,4.43,8.29,4.63,10.26,1.85,18.63-31.79,51.35-40.36,45.9S393.5,34.14,408.48,23.35Z" transform="translate(0 -7.03)"/><path class="cls-4" d="M614.21,485.76c13.48,22.39-33.05,52.62-62.66,57.49-6.09,1-21.8,8-28.46-5.06-4.48-8.75.73-13.86,9.54-20.45C544.32,509,559.24,505.81,570,495.2c11.49-11.29,11.52-15.11,21.88-17.28C599.06,476.42,609.53,478,614.21,485.76Z" transform="translate(0 -7.03)"/><path class="cls-5" d="M460.72,573.5c-1.36,1.16-9.77,4.52-14.48,1.54-4.12-2.62-5.08-7.91-5.43-9.86-3.33-18.42,27.58-53.74,36.55-49S474.79,561.55,460.72,573.5Z" transform="translate(0 -7.03)"/><g class="cls-6"><path class="cls-7" d="M535.17,65.19c10.31.27,34.55,6.53,44.8,9.61,96.36,29,137.2,138.7,102.59,242.92-50.21,151.23-417.77,282.1-562,210.73-197.88-97.89-115.15-460.81-8.7-462,76-.85,155.08,64.08,314.47,34.41C481.84,90.52,496.66,64.2,535.17,65.19Z" transform="translate(0 -7.03)"/><image width="6016" height="4016" transform="translate(0 51.97) scale(0.12 0.12)" xlink:href="../../../../Downloads/christina-wocintechchat-com-UcZcsHSp8o4-unsplash.jpg"/></g></svg>