<svg xmlns="http://www.w3.org/2000/svg" viewBox="0 0 623.88 632.13"><defs><style>.cls-1{isolation:isolate;}.cls-2{fill:#02324c;}.cls-3{fill:#b1dafc;}.cls-4{fill:#8fcaf2;}.cls-5{fill:#759bd5;}.cls-6{fill:#e1edf9;}.cls-7{opacity:0.3;mix-blend-mode:multiply;}.cls-8{fill:#6c9fbc;}.cls-9{fill:#fff;}.cls-10,.cls-14,.cls-15,.cls-16,.cls-17{fill:none;stroke-miterlimit:10;}.cls-10{stroke:#eb5d62;stroke-width:5.29px;}.cls-11{fill:#eb5d62;}.cls-12{fill:#3f49a5;}.cls-13{opacity:0.29;}.cls-14,.cls-15{stroke:#fff;}.cls-14,.cls-15,.cls-17{stroke-linecap:round;}.cls-14{stroke-width:0.53px;}.cls-15{stroke-width:0.92px;}.cls-16{stroke:#3f49a5;stroke-width:1.44px;}.cls-17{stroke:#141b5e;stroke-width:1.5px;}.cls-18{fill:#7c2c00;}.cls-19{fill:#010b2b;}.cls-20{fill:#2034aa;}.cls-21{fill:#102772;}.cls-22{fill:#081a5e;}.cls-23{fill:#541b02;}.cls-24{fill:#000002;}</style></defs><title>business</title><g class="cls-1"><g id="OBJECTS"><path class="cls-2" d="M520.68,127.84c74.67,122.31,81.86,313-9.39,420.56C414.11,663,227.85,656.57,133.19,540.64,72,465.69,27.88,319,85.24,256.36c41.48-45.28,123.42,50,184.52,9.08,76-50.85,15.51-233.7,78.29-262.84C394.22-18.83,477.27,56.74,520.68,127.84Z" transform="translate(-5.41 1.1)"/><rect class="cls-3" x="215.72" y="433.16" width="78.15" height="68.24"/><polygon class="cls-4" points="293.87 462.65 215.72 453.3 215.72 433.15 293.87 433.15 293.87 462.65"/><path class="cls-5" d="M339.51,498H180.89c-5,0-9.07,4.91-9.07,11v11H348.58V509C348.58,503,344.52,498,339.51,498Z" transform="translate(-5.41 1.1)"/><path class="cls-5" d="M504.71,32.66h-489c-5.27,0-9.53,5.16-9.53,11.52V434.4c0,6.36,4.26,11.52,9.53,11.52h489c5.27,0,9.53-5.16,9.53-11.52V44.18c0-6.36-4.26-11.52-9.53-11.52Z" transform="translate(-5.41 1.1)"/><rect class="cls-6" x="8.7" y="45.28" width="492.2" height="354.97" rx="2.46"/><path class="cls-4" d="M269.64,421c0,6.29-4.23,11.4-9.44,11.4s-9.44-5.11-9.44-11.4,4.23-11.41,9.44-11.41S269.64,414.73,269.64,421Z" transform="translate(-5.41 1.1)"/><g class="cls-7"><rect class="cls-8" x="22.25" y="133.3" width="62.41" height="249.31" rx="2.96"/></g><rect class="cls-9" x="20.39" y="131.43" width="62.41" height="249.31" rx="2.96"/><rect class="cls-6" x="24.76" y="135.63" width="53.93" height="240.39" rx="1.04"/><g class="cls-7"><rect class="cls-8" x="118.18" y="221.55" width="62.41" height="161.05" rx="2.96"/></g><rect class="cls-9" x="116.32" y="219.69" width="62.41" height="161.05" rx="2.96"/><rect class="cls-6" x="120.69" y="223.89" width="53.93" height="152.13" rx="1.04"/><g class="cls-7"><rect class="cls-8" x="214.11" y="178.72" width="62.41" height="203.88" rx="2.96"/></g><rect class="cls-9" x="212.25" y="176.86" width="62.41" height="203.88" rx="2.96"/><rect class="cls-6" x="216.62" y="181.06" width="53.93" height="194.97" rx="1.04"/><g class="cls-7"><rect class="cls-8" x="310.04" y="222.15" width="62.41" height="160.46" rx="2.96"/></g><rect class="cls-9" x="308.18" y="220.29" width="62.41" height="160.46" rx="2.96"/><rect class="cls-6" x="312.55" y="224.48" width="53.93" height="151.54" rx="1.04"/><g class="cls-7"><rect class="cls-8" x="405.26" y="276.62" width="62.41" height="105.28" rx="1.84"/></g><rect class="cls-9" x="404.11" y="275.46" width="62.41" height="105.28" rx="1.84"/><rect class="cls-6" x="408.48" y="280.45" width="53.93" height="95.57" rx="0.62"/><polyline class="cls-10" points="51.59 82.13 147.65 189.95 245.78 142.65 341.25 185.73 435.31 246.93"/><path class="cls-9" d="M57.13,96.33c-6.73,0-12.2-6.86-12.2-15.29s5.47-15.29,12.2-15.29S69.32,72.61,69.32,81,63.85,96.33,57.13,96.33Z" transform="translate(-5.41 1.1)"/><path class="cls-11" d="M57.13,68.39c5.18,0,9.55,5.79,9.55,12.65s-4.37,12.64-9.55,12.64S47.57,87.89,47.57,81,52,68.39,57.13,68.39m0-5.29c-8.2,0-14.85,8-14.85,17.94S48.93,99,57.13,99,72,90.94,72,81,65.32,63.1,57.13,63.1Z" transform="translate(-5.41 1.1)"/><path class="cls-9" d="M153.06,203.73c-6.73,0-12.2-6.86-12.2-15.29s5.47-15.29,12.2-15.29,12.19,6.85,12.19,15.29S159.78,203.73,153.06,203.73Z" transform="translate(-5.41 1.1)"/><path class="cls-11" d="M153.06,175.79c5.18,0,9.55,5.79,9.55,12.65s-4.37,12.64-9.55,12.64-9.56-5.79-9.56-12.64,4.38-12.65,9.56-12.65m0-5.29c-8.2,0-14.85,8-14.85,17.94s6.65,17.93,14.85,17.93,14.84-8,14.84-17.93-6.65-17.94-14.84-17.94Z" transform="translate(-5.41 1.1)"/><path class="cls-9" d="M251.09,156.88c-6.73,0-12.2-6.86-12.2-15.29s5.47-15.29,12.2-15.29,12.2,6.86,12.2,15.29S257.82,156.88,251.09,156.88Z" transform="translate(-5.41 1.1)"/><path class="cls-11" d="M251.09,128.94c5.18,0,9.56,5.79,9.56,12.65s-4.38,12.65-9.56,12.65-9.56-5.79-9.56-12.65,4.38-12.65,9.56-12.65m0-5.28c-8.2,0-14.84,8-14.84,17.93s6.64,17.93,14.84,17.93,14.84-8,14.84-17.93-6.64-17.93-14.84-17.93Z" transform="translate(-5.41 1.1)"/><path class="cls-9" d="M346.85,200.15c-6.72,0-12.2-6.86-12.2-15.29s5.48-15.29,12.2-15.29,12.2,6.86,12.2,15.29S353.58,200.15,346.85,200.15Z" transform="translate(-5.41 1.1)"/><path class="cls-11" d="M346.85,172.21c5.18,0,9.56,5.79,9.56,12.65s-4.38,12.65-9.56,12.65-9.55-5.8-9.55-12.65,4.37-12.65,9.55-12.65m0-5.28c-8.19,0-14.84,8-14.84,17.93s6.65,17.93,14.84,17.93,14.84-8,14.84-17.93-6.64-17.93-14.84-17.93Z" transform="translate(-5.41 1.1)"/><path class="cls-9" d="M440.85,261.13c-6.73,0-12.2-6.86-12.2-15.29s5.47-15.29,12.2-15.29,12.2,6.86,12.2,15.29S447.57,261.13,440.85,261.13Z" transform="translate(-5.41 1.1)"/><path class="cls-11" d="M440.85,233.19c5.18,0,9.55,5.79,9.55,12.65s-4.37,12.64-9.55,12.64-9.56-5.79-9.56-12.64,4.38-12.65,9.56-12.65m0-5.29c-8.2,0-14.85,8-14.85,17.94s6.65,17.93,14.85,17.93,14.84-8,14.84-17.93S449,227.9,440.85,227.9Z" transform="translate(-5.41 1.1)"/><rect class="cls-12" x="283.26" y="78.4" width="137.82" height="92.43" rx="3.09"/><g class="cls-13"><line class="cls-14" x1="288.09" y1="101.93" x2="288.09" y2="162.92"/><line class="cls-14" x1="298.7" y1="101.93" x2="298.7" y2="162.92"/><line class="cls-14" x1="309.32" y1="101.93" x2="309.32" y2="162.92"/><line class="cls-14" x1="319.93" y1="101.93" x2="319.93" y2="162.92"/><line class="cls-14" x1="330.55" y1="101.93" x2="330.55" y2="162.92"/><line class="cls-14" x1="341.16" y1="101.93" x2="341.16" y2="162.92"/><line class="cls-14" x1="351.78" y1="101.93" x2="351.78" y2="162.92"/><line class="cls-14" x1="362.4" y1="101.93" x2="362.4" y2="162.92"/><line class="cls-14" x1="373.01" y1="101.93" x2="373.01" y2="162.92"/><line class="cls-14" x1="383.63" y1="101.93" x2="383.63" y2="162.92"/><line class="cls-14" x1="394.24" y1="101.93" x2="394.24" y2="162.92"/><line class="cls-14" x1="404.86" y1="101.93" x2="404.86" y2="162.92"/><line class="cls-14" x1="415.47" y1="101.93" x2="415.47" y2="162.92"/></g><line class="cls-15" x1="287.91" y1="94.39" x2="415.47" y2="94.39"/><line class="cls-15" x1="408.79" y1="82.47" x2="415.47" y2="89.15"/><line class="cls-15" x1="415.47" y1="82.47" x2="408.79" y2="89.15"/><rect class="cls-15" x="396.78" y="82.47" width="6.68" height="6.68" rx="0.32"/><line class="cls-15" x1="384.39" y1="89.15" x2="391.07" y2="89.15"/><path class="cls-15" d="M293.32,114.09s11.34-12.2,27.12-7.7c15.94,4.54,20.44,24.92,39.42,31.43,12.58,4.32,24.17-6.18,39.83-6.33,14.51-.14,21.19,13.42,21.19,13.42" transform="translate(-5.41 1.1)"/><path class="cls-9" d="M296.55,114a3.06,3.06,0,1,1-3.06-3.07A3.06,3.06,0,0,1,296.55,114Z" transform="translate(-5.41 1.1)"/><path class="cls-9" d="M360.16,136.58a3.06,3.06,0,1,1-3.06-3.06A3.06,3.06,0,0,1,360.16,136.58Z" transform="translate(-5.41 1.1)"/><path class="cls-9" d="M423.94,144.91a3.06,3.06,0,1,1-3.06-3.06A3.06,3.06,0,0,1,423.94,144.91Z" transform="translate(-5.41 1.1)"/><rect class="cls-12" x="318.86" y="399.16" width="26.96" height="123.09" transform="translate(659.28 922.51) rotate(180)"/><rect class="cls-12" x="275.53" y="418.9" width="26.96" height="103.35" transform="translate(572.62 942.25) rotate(180)"/><rect class="cls-12" x="361.8" y="435.75" width="26.96" height="86.5" transform="translate(745.15 959.1) rotate(180)"/><rect class="cls-12" x="232.2" y="382.79" width="26.96" height="139.46" transform="translate(485.96 906.15) rotate(180)"/><polyline class="cls-16" points="369.87 420 326.94 378.6 283.61 404.47 240.28 352.8"/><path class="cls-12" d="M370.46,418.72a4.7,4.7,0,1,0,4.7-4.69A4.69,4.69,0,0,0,370.46,418.72Z" transform="translate(-5.41 1.1)"/><path class="cls-12" d="M327.65,378.1a4.7,4.7,0,1,0,4.69-4.69A4.69,4.69,0,0,0,327.65,378.1Z" transform="translate(-5.41 1.1)"/><path class="cls-12" d="M284.32,402.77a4.7,4.7,0,1,0,4.69-4.69A4.69,4.69,0,0,0,284.32,402.77Z" transform="translate(-5.41 1.1)"/><path class="cls-12" d="M241,351.71a4.7,4.7,0,1,0,4.69-4.7A4.69,4.69,0,0,0,241,351.71Z" transform="translate(-5.41 1.1)"/><line class="cls-17" x1="0.75" y1="523.9" x2="618.11" y2="523.9"/><line class="cls-17" x1="377.57" y1="557.28" x2="583.31" y2="557.28"/><path class="cls-18" d="M416.31,517.75v23.77a33.42,33.42,0,0,0,15.19,0l1.13-26.58" transform="translate(-5.41 1.1)"/><path class="cls-19" d="M431.64,538.32s-2.06,2.14-9.51,1.87a10.08,10.08,0,0,0-9.2-1.59s-7.48,6.53-12.77,7.61-11.5,1.7-12.94,4-.89,3.86-.89,3.86-.36,1,6.1,1.26,27.21-.63,30.8-.45,8.45.27,10.69-.45S436,542.46,431.64,538.32Z" transform="translate(-5.41 1.1)"/><path class="cls-18" d="M524.61,513.33l6.8,22A32.4,32.4,0,0,0,545.5,531l-6.55-25" transform="translate(-5.41 1.1)"/><path class="cls-19" d="M553.92,540.2c-1.55,1.64-5.74,3.82-8.92,5.33-1.76.79-7.88,4.35-13.92,7.83a16.1,16.1,0,0,1-7.84,2.06h-9.89c-1.84,0-2.51-1.26-2.46-2.06.13-2.07,1.88-3.81,4.77-4.36a11.94,11.94,0,0,0,2.18-.63,16,16,0,0,0,7.73-6.59c1.84-2.92,3.12-5.48,3.12-5.48,3.48-3.85,8.59-2.85,8.59-2.85,6.5-3.22,7.25-6,7.25-6C550.15,529,555.52,538.57,553.92,540.2Z" transform="translate(-5.41 1.1)"/><path class="cls-20" d="M462.73,311.88a96.25,96.25,0,0,1-1.07,10c-1,5.77-3.38,14.92-6.3,25.13-5.06,17.56-11.68,38.24-15.38,50.21,14.31,29.3-5.08,126.23-7.64,134.28-8.64,2-13.58.26-16.18-.67-3.05-44.72-10.54-135.81-10.5-138,2-120.41,7.95-140,11.19-141.31,7.15-2.67,28.47-8.37,36.84,3.8C462.41,268.09,463.8,294.72,462.73,311.88Z" transform="translate(-5.41 1.1)"/><path class="cls-21" d="M462.73,311.88a96.25,96.25,0,0,1-1.07,10c-1,5.77-3.38,14.92-6.3,25.13-.89-14.49-2.57-54.72-2.57-54.72Z" transform="translate(-5.41 1.1)"/><path class="cls-20" d="M543.56,520.67c-6.06,5-13.52,4.82-16.12,4.68,1.29,1.78-41.42-94-48.32-113.4-.43-1.25-2.21-6.44-2.75-8.19-3.27-10.18-13.93-62.08-19-82.37L443,256.2s-19.64,2.66-5.58,1.84c17.88-1.06,40.17-10,40.17-10,29.77,25.41,32.5,54.64,31.29,69.24-.5,5.91.87,64.49,1.72,79.08,22.8,31.38,26.94,65.93,29.21,93C540.75,500.69,543,515.93,543.56,520.67Z" transform="translate(-5.41 1.1)"/><path class="cls-22" d="M422,124.31c3.65-3.22,5-4.53,11.63-7.56,6-1,21.54.11,32.35,2.91,12.54,3.25,27.13,6,29.29,10.76,2,4.52,9.27,29.56,6.25,45.52-1.35,7.18-8.1,37.33-10.7,58.61-1.75,14.3.42,23.07-.3,23.91-4,4.66-31.38,8.41-44.31,8.41-11.51,0-31.74-2.35-34-5.78.65-7.08,2.22-12.43,2.72-18.17S417.5,129.5,422,124.31Z" transform="translate(-5.41 1.1)"/><path class="cls-18" d="M309.35,173.21l-10.25-2.45s-2.1-1.16-5.62-5.15-8.56-3.54-9.62-3.49-1.15,1.39.72,2.67c1.26.86,3.44.46,4.19,3.39.33,1.3-3.37,1.35-5.27.71s-8.37-3.72-10-4.42-3.06.37,1.27,3.54a57.47,57.47,0,0,0,6.9,4.44,19,19,0,0,0,1.52,2.69,1.92,1.92,0,0,0,.77.51,17.07,17.07,0,0,0,1.43,2.51,1.49,1.49,0,0,0,.32.28c.4.83.78,1.63,1.12,2.32,1.34,2.69,6.52,1.93,8.8,1.64s12,1.91,12,1.91Z" transform="translate(-5.41 1.1)"/><path class="cls-18" d="M284.41,172.35a25.57,25.57,0,0,1-6.53-1.37c-3.84-1.28-8.73-4-9.74-4.12s-1.11,1.17,0,2.17a38.31,38.31,0,0,0,6.07,3.73c2.13,1.06,11.4,3.44,11.4,3.44" transform="translate(-5.41 1.1)"/><path class="cls-18" d="M285.75,175.05a25.3,25.3,0,0,1-6.64-.62c-4-.84-9.13-3-10.14-3s-1,1.29.24,2.16a37.78,37.78,0,0,0,6.45,3c2.23.81,11.72,3.15,11.72,3.15" transform="translate(-5.41 1.1)"/><path class="cls-18" d="M289,179a25.39,25.39,0,0,1-6.65-.62c-4-.84-9.13-3-10.14-3s-1,1.29.25,2.16a37.78,37.78,0,0,0,6.45,3c2.23.81,11.72,2.14,11.72,2.14" transform="translate(-5.41 1.1)"/><path class="cls-22" d="M422,124.31s-44.87,39.39-56.6,54.17c0,0,5,10.67,13.79,15.38,0,0,26.51-12.54,40.21-22.09" transform="translate(-5.41 1.1)"/><path class="cls-22" d="M366.55,177.11l-60.63-5.34-2.23,12.56s48.05,19.81,65.15,18.73,55.61-32.59,55.61-32.59Z" transform="translate(-5.41 1.1)"/><path class="cls-22" d="M500.7,129c-9.38-5.26-29.6-8.05-29.6-8.05l16.68,39.9c5.23,13.89,40.08,42.22,40.08,42.22l30-12.05C552.29,176.12,523.13,141.58,500.7,129Z" transform="translate(-5.41 1.1)"/><path class="cls-18" d="M629.12,124.39c-.94-1-2.33.09-2.94,1.55-.07.18-.17.46-.28.81h0c-1.55-.09-3,1.8-3.34,2.94s-3.86,9.62-5.92,10.38-6.14,1.35-6.19,0,2.33-5.11,3.47-7.23.11-4.94-1.08-3.2-6,6.3-7.82,8.69-2.5,7-3.59,8.25a58.88,58.88,0,0,1-4.94,4.46l5.75,8.41-.92.93s16.57-10.34,19.55-12.76c2.45-3,5-6,5.31-6.48C626.75,140.19,630.05,125.41,629.12,124.39Z" transform="translate(-5.41 1.1)"/><path class="cls-22" d="M602.54,155.87a25.23,25.23,0,0,0-5.43-6.61s-55.5,27.22-69.1,39.31c0,0,15.17,21.82,22,19.31,18-6.56,54.37-45.88,54.37-45.88A15.52,15.52,0,0,0,602.54,155.87Z" transform="translate(-5.41 1.1)"/><path class="cls-18" d="M487.11,80.07s-.92,4.21-2.2,10.37c-.7,3.49-1.56,7.6-2.41,11.92-1.66,8.8-2.4,18.63-3.22,25.61-2.46,2.57-8.63,5.74-15.53,4.54-6.14-1.07-9.32-9.06-9.09-10.47.34-.59.65-1.12.73-1.33a29.6,29.6,0,0,0,3.6-8.21c.12-.29.18-.6.28-.9a37.38,37.38,0,0,0,.75-4,33,33,0,0,0,.15-8.19l1.4-1L484.5,81.94Z" transform="translate(-5.41 1.1)"/><path class="cls-23" d="M475.51,100.31v0c-3.34,4.5-10.73,13.5-19.59,18.73a35.85,35.85,0,0,0,3.83-8.06,19.12,19.12,0,0,1-3.7.89c.17-1,.34-2,.44-3l1.42-.9,3.12-1.66,16.44-8.74S476.79,98.63,475.51,100.31Z" transform="translate(-5.41 1.1)"/><path class="cls-24" d="M442.55,64.85s-4.32,10.39,2.31,16.7l4-16Z" transform="translate(-5.41 1.1)"/><path class="cls-18" d="M479.76,98.26a49.06,49.06,0,0,1-3.82,4.33l0,0a41.12,41.12,0,0,1-7.47,5.9,30.75,30.75,0,0,1-9.45,4,20.19,20.19,0,0,1-4.12.6c-5.91.24-9.25-2.18-9.25-2.18-5.17-8.44-4.38-21.73-2.67-31.77.67-4.06,1.51-7.58,2.14-10,.58-2.23,1-3.55,1-3.55a2.61,2.61,0,0,0,.06-.27c3-12.92,20.41-12.61,32.06-4.75a20.36,20.36,0,0,1,2,1.49,23.32,23.32,0,0,1,7.33,9.4c2.54,6.28.51,13.21-2.63,19l-.51.93A56,56,0,0,1,479.76,98.26Z" transform="translate(-5.41 1.1)"/><path class="cls-24" d="M482.17,59.71S467,81,443.72,68.41C436.92,64.74,436.4,41,442.3,46c12.1,10.25,22.76-7.78,34.52-1C480.59,47.15,484.17,52.18,482.17,59.71Z" transform="translate(-5.41 1.1)"/><path class="cls-24" d="M477.33,62.28s-10.14,42.59-.55,23.25c0,0,2.45-5.41,6.43-4.73s.11,15.32-.71,21.55c0,0,9.44-6.14,13.67-25.48S487.65,49,480,57.07Z" transform="translate(-5.41 1.1)"/><path class="cls-23" d="M482.29,83.84s-2.26.2-2.92,4.3,2,5,2.59,2.89-1.33-3.55-1.8-2.66A5.06,5.06,0,0,1,482.29,83.84Z" transform="translate(-5.41 1.1)"/><path class="cls-22" d="M527.86,203.06s10.42,7.73,14.82,8.25c7,.83,19.47-10.38,19.47-10.38l-24-13.08Z" transform="translate(-5.41 1.1)"/></g></g></svg>