<svg id="Layer_1" data-name="Layer 1" xmlns="http://www.w3.org/2000/svg" viewBox="0 0 181.11 127.71"><defs><style>.cls-1{fill:#5403bf;stroke:#5403bf;stroke-miterlimit:10;}</style></defs><title>crosses1</title><polygon class="cls-1" points="5.79 0.5 4.52 0.5 4.52 4.52 0.5 4.52 0.5 5.79 4.52 5.79 4.52 9.81 5.79 9.81 5.79 5.79 9.81 5.79 9.81 4.52 5.79 4.52 5.79 0.5"/><polygon class="cls-1" points="30.39 0.5 29.12 0.5 29.12 4.52 25.1 4.52 25.1 5.79 29.12 5.79 29.12 9.81 30.39 9.81 30.39 5.79 34.41 5.79 34.41 4.52 30.39 4.52 30.39 0.5"/><polygon class="cls-1" points="54.99 0.5 53.72 0.5 53.72 4.52 49.7 4.52 49.7 5.79 53.72 5.79 53.72 9.81 54.99 9.81 54.99 5.79 59.01 5.79 59.01 4.52 54.99 4.52 54.99 0.5"/><polygon class="cls-1" points="79.59 4.52 79.59 0.5 78.32 0.5 78.32 4.52 74.3 4.52 74.3 5.79 78.32 5.79 78.32 9.81 79.59 9.81 79.59 5.79 83.61 5.79 83.61 4.52 79.59 4.52"/><polygon class="cls-1" points="5.79 24.2 4.52 24.2 4.52 28.22 0.5 28.22 0.5 29.49 4.52 29.49 4.52 33.51 5.79 33.51 5.79 29.49 9.81 29.49 9.81 28.22 5.79 28.22 5.79 24.2"/><polygon class="cls-1" points="30.39 24.2 29.12 24.2 29.12 28.22 25.1 28.22 25.1 29.49 29.12 29.49 29.12 33.51 30.39 33.51 30.39 29.49 34.41 29.49 34.41 28.22 30.39 28.22 30.39 24.2"/><polygon class="cls-1" points="54.99 24.2 53.72 24.2 53.72 28.22 49.7 28.22 49.7 29.49 53.72 29.49 53.72 33.51 54.99 33.51 54.99 29.49 59.01 29.49 59.01 28.22 54.99 28.22 54.99 24.2"/><polygon class="cls-1" points="79.59 24.2 78.32 24.2 78.32 28.22 74.3 28.22 74.3 29.49 78.32 29.49 78.32 33.51 79.59 33.51 79.59 29.49 83.61 29.49 83.61 28.22 79.59 28.22 79.59 24.2"/><polygon class="cls-1" points="5.79 47.91 4.52 47.91 4.52 51.93 0.5 51.93 0.5 53.2 4.52 53.2 4.52 57.21 5.79 57.21 5.79 53.2 9.81 53.2 9.81 51.93 5.79 51.93 5.79 47.91"/><polygon class="cls-1" points="30.39 47.91 29.12 47.91 29.12 51.93 25.1 51.93 25.1 53.2 29.12 53.2 29.12 57.21 30.39 57.21 30.39 53.2 34.41 53.2 34.41 51.93 30.39 51.93 30.39 47.91"/><polygon class="cls-1" points="54.99 47.91 53.72 47.91 53.72 51.93 49.7 51.93 49.7 53.2 53.72 53.2 53.72 57.21 54.99 57.21 54.99 53.2 59.01 53.2 59.01 51.93 54.99 51.93 54.99 47.91"/><polygon class="cls-1" points="79.59 47.91 78.32 47.91 78.32 51.93 74.3 51.93 74.3 53.2 78.32 53.2 78.32 57.21 79.59 57.21 79.59 53.2 83.61 53.2 83.61 51.93 79.59 51.93 79.59 47.91"/><polygon class="cls-1" points="102.79 0.5 101.52 0.5 101.52 4.52 97.5 4.52 97.5 5.79 101.52 5.79 101.52 9.81 102.79 9.81 102.79 5.79 106.81 5.79 106.81 4.52 102.79 4.52 102.79 0.5"/><polygon class="cls-1" points="127.39 0.5 126.12 0.5 126.12 4.52 122.1 4.52 122.1 5.79 126.12 5.79 126.12 9.81 127.39 9.81 127.39 5.79 131.41 5.79 131.41 4.52 127.39 4.52 127.39 0.5"/><polygon class="cls-1" points="151.99 0.5 150.72 0.5 150.72 4.52 146.7 4.52 146.7 5.79 150.72 5.79 150.72 9.81 151.99 9.81 151.99 5.79 156.01 5.79 156.01 4.52 151.99 4.52 151.99 0.5"/><polygon class="cls-1" points="176.59 4.52 176.59 0.5 175.32 0.5 175.32 4.52 171.3 4.52 171.3 5.79 175.32 5.79 175.32 9.81 176.59 9.81 176.59 5.79 180.61 5.79 180.61 4.52 176.59 4.52"/><polygon class="cls-1" points="102.79 24.2 101.52 24.2 101.52 28.22 97.5 28.22 97.5 29.49 101.52 29.49 101.52 33.51 102.79 33.51 102.79 29.49 106.81 29.49 106.81 28.22 102.79 28.22 102.79 24.2"/><polygon class="cls-1" points="127.39 24.2 126.12 24.2 126.12 28.22 122.1 28.22 122.1 29.49 126.12 29.49 126.12 33.51 127.39 33.51 127.39 29.49 131.41 29.49 131.41 28.22 127.39 28.22 127.39 24.2"/><polygon class="cls-1" points="151.99 24.2 150.72 24.2 150.72 28.22 146.7 28.22 146.7 29.49 150.72 29.49 150.72 33.51 151.99 33.51 151.99 29.49 156.01 29.49 156.01 28.22 151.99 28.22 151.99 24.2"/><polygon class="cls-1" points="176.59 24.2 175.32 24.2 175.32 28.22 171.3 28.22 171.3 29.49 175.32 29.49 175.32 33.51 176.59 33.51 176.59 29.49 180.61 29.49 180.61 28.22 176.59 28.22 176.59 24.2"/><polygon class="cls-1" points="102.79 47.91 101.52 47.91 101.52 51.93 97.5 51.93 97.5 53.2 101.52 53.2 101.52 57.21 102.79 57.21 102.79 53.2 106.81 53.2 106.81 51.93 102.79 51.93 102.79 47.91"/><polygon class="cls-1" points="127.39 47.91 126.12 47.91 126.12 51.93 122.1 51.93 122.1 53.2 126.12 53.2 126.12 57.21 127.39 57.21 127.39 53.2 131.41 53.2 131.41 51.93 127.39 51.93 127.39 47.91"/><polygon class="cls-1" points="151.99 47.91 150.72 47.91 150.72 51.93 146.7 51.93 146.7 53.2 150.72 53.2 150.72 57.21 151.99 57.21 151.99 53.2 156.01 53.2 156.01 51.93 151.99 51.93 151.99 47.91"/><polygon class="cls-1" points="176.59 47.91 175.32 47.91 175.32 51.93 171.3 51.93 171.3 53.2 175.32 53.2 175.32 57.21 176.59 57.21 176.59 53.2 180.61 53.2 180.61 51.93 176.59 51.93 176.59 47.91"/><polygon class="cls-1" points="5.79 70.5 4.52 70.5 4.52 74.52 0.5 74.52 0.5 75.79 4.52 75.79 4.52 79.81 5.79 79.81 5.79 75.79 9.81 75.79 9.81 74.52 5.79 74.52 5.79 70.5"/><polygon class="cls-1" points="30.39 70.5 29.12 70.5 29.12 74.52 25.1 74.52 25.1 75.79 29.12 75.79 29.12 79.81 30.39 79.81 30.39 75.79 34.41 75.79 34.41 74.52 30.39 74.52 30.39 70.5"/><polygon class="cls-1" points="54.99 70.5 53.72 70.5 53.72 74.52 49.7 74.52 49.7 75.79 53.72 75.79 53.72 79.81 54.99 79.81 54.99 75.79 59.01 75.79 59.01 74.52 54.99 74.52 54.99 70.5"/><polygon class="cls-1" points="79.59 74.52 79.59 70.5 78.32 70.5 78.32 74.52 74.3 74.52 74.3 75.79 78.32 75.79 78.32 79.81 79.59 79.81 79.59 75.79 83.61 75.79 83.61 74.52 79.59 74.52"/><polygon class="cls-1" points="5.79 94.2 4.52 94.2 4.52 98.22 0.5 98.22 0.5 99.49 4.52 99.49 4.52 103.51 5.79 103.51 5.79 99.49 9.81 99.49 9.81 98.22 5.79 98.22 5.79 94.2"/><polygon class="cls-1" points="30.39 94.2 29.12 94.2 29.12 98.22 25.1 98.22 25.1 99.49 29.12 99.49 29.12 103.51 30.39 103.51 30.39 99.49 34.41 99.49 34.41 98.22 30.39 98.22 30.39 94.2"/><polygon class="cls-1" points="54.99 94.2 53.72 94.2 53.72 98.22 49.7 98.22 49.7 99.49 53.72 99.49 53.72 103.51 54.99 103.51 54.99 99.49 59.01 99.49 59.01 98.22 54.99 98.22 54.99 94.2"/><polygon class="cls-1" points="79.59 94.2 78.32 94.2 78.32 98.22 74.3 98.22 74.3 99.49 78.32 99.49 78.32 103.51 79.59 103.51 79.59 99.49 83.61 99.49 83.61 98.22 79.59 98.22 79.59 94.2"/><polygon class="cls-1" points="5.79 117.91 4.52 117.91 4.52 121.93 0.5 121.93 0.5 123.19 4.52 123.19 4.52 127.21 5.79 127.21 5.79 123.19 9.81 123.19 9.81 121.93 5.79 121.93 5.79 117.91"/><polygon class="cls-1" points="30.39 117.91 29.12 117.91 29.12 121.93 25.1 121.93 25.1 123.19 29.12 123.19 29.12 127.21 30.39 127.21 30.39 123.19 34.41 123.19 34.41 121.93 30.39 121.93 30.39 117.91"/><polygon class="cls-1" points="54.99 117.91 53.72 117.91 53.72 121.93 49.7 121.93 49.7 123.19 53.72 123.19 53.72 127.21 54.99 127.21 54.99 123.19 59.01 123.19 59.01 121.93 54.99 121.93 54.99 117.91"/><polygon class="cls-1" points="79.59 117.91 78.32 117.91 78.32 121.93 74.3 121.93 74.3 123.19 78.32 123.19 78.32 127.21 79.59 127.21 79.59 123.19 83.61 123.19 83.61 121.93 79.59 121.93 79.59 117.91"/><polygon class="cls-1" points="102.79 70.5 101.52 70.5 101.52 74.52 97.5 74.52 97.5 75.79 101.52 75.79 101.52 79.81 102.79 79.81 102.79 75.79 106.81 75.79 106.81 74.52 102.79 74.52 102.79 70.5"/><polygon class="cls-1" points="127.39 70.5 126.12 70.5 126.12 74.52 122.1 74.52 122.1 75.79 126.12 75.79 126.12 79.81 127.39 79.81 127.39 75.79 131.41 75.79 131.41 74.52 127.39 74.52 127.39 70.5"/><polygon class="cls-1" points="151.99 70.5 150.72 70.5 150.72 74.52 146.7 74.52 146.7 75.79 150.72 75.79 150.72 79.81 151.99 79.81 151.99 75.79 156.01 75.79 156.01 74.52 151.99 74.52 151.99 70.5"/><polygon class="cls-1" points="176.59 74.52 176.59 70.5 175.32 70.5 175.32 74.52 171.3 74.52 171.3 75.79 175.32 75.79 175.32 79.81 176.59 79.81 176.59 75.79 180.61 75.79 180.61 74.52 176.59 74.52"/><polygon class="cls-1" points="102.79 94.2 101.52 94.2 101.52 98.22 97.5 98.22 97.5 99.49 101.52 99.49 101.52 103.51 102.79 103.51 102.79 99.49 106.81 99.49 106.81 98.22 102.79 98.22 102.79 94.2"/><polygon class="cls-1" points="127.39 94.2 126.12 94.2 126.12 98.22 122.1 98.22 122.1 99.49 126.12 99.49 126.12 103.51 127.39 103.51 127.39 99.49 131.41 99.49 131.41 98.22 127.39 98.22 127.39 94.2"/><polygon class="cls-1" points="151.99 94.2 150.72 94.2 150.72 98.22 146.7 98.22 146.7 99.49 150.72 99.49 150.72 103.51 151.99 103.51 151.99 99.49 156.01 99.49 156.01 98.22 151.99 98.22 151.99 94.2"/><polygon class="cls-1" points="176.59 94.2 175.32 94.2 175.32 98.22 171.3 98.22 171.3 99.49 175.32 99.49 175.32 103.51 176.59 103.51 176.59 99.49 180.61 99.49 180.61 98.22 176.59 98.22 176.59 94.2"/><polygon class="cls-1" points="102.79 117.91 101.52 117.91 101.52 121.93 97.5 121.93 97.5 123.19 101.52 123.19 101.52 127.21 102.79 127.21 102.79 123.19 106.81 123.19 106.81 121.93 102.79 121.93 102.79 117.91"/><polygon class="cls-1" points="127.39 117.91 126.12 117.91 126.12 121.93 122.1 121.93 122.1 123.19 126.12 123.19 126.12 127.21 127.39 127.21 127.39 123.19 131.41 123.19 131.41 121.93 127.39 121.93 127.39 117.91"/><polygon class="cls-1" points="151.99 117.91 150.72 117.91 150.72 121.93 146.7 121.93 146.7 123.19 150.72 123.19 150.72 127.21 151.99 127.21 151.99 123.19 156.01 123.19 156.01 121.93 151.99 121.93 151.99 117.91"/><polygon class="cls-1" points="176.59 117.91 175.32 117.91 175.32 121.93 171.3 121.93 171.3 123.19 175.32 123.19 175.32 127.21 176.59 127.21 176.59 123.19 180.61 123.19 180.61 121.93 176.59 121.93 176.59 117.91"/></svg>