<svg id="OBJECTS" xmlns="http://www.w3.org/2000/svg" viewBox="0 0 492.69 477.73"><defs><style>.cls-1{fill:#051d6b;}.cls-2{fill:#80a6dd;}.cls-3{fill:#fff;}.cls-4{fill:#6387c1;}.cls-5{fill:#4a73af;}.cls-6{fill:#ebe8ec;}.cls-7{fill:#7c2c00;}.cls-8{fill:#1e2322;}.cls-9{fill:#fed976;}.cls-10{fill:#28243f;}.cls-11{fill:#333049;}.cls-12{fill:#3f2a3f;}.cls-13{fill:#f2b10f;}.cls-14{fill:#000002;}.cls-15{fill:#8cacdd;}.cls-16{fill:#a0bcea;}.cls-17{fill:#d2e1f7;}</style></defs><title>design</title><path class="cls-1" d="M6.48,312.65C9.43,189.14,96.2,48.9,216.84,15.47c128.49-35.6,265.54,58.22,280.72,186.74,9.81,83.1-27.92,209.48-101.34,226.91-53.09,12.6-68.7-95-134.44-94.94-81.72.08-124.64,160.21-185.95,151C30.73,478.45,4.77,384.45,6.48,312.65Z" transform="translate(-6.4 -7.86)"/><rect class="cls-2" x="1.78" y="29.19" width="483.63" height="358.58" rx="5.37"/><path class="cls-3" d="M484.83,37.05H15.17a7,7,0,0,0-7,7V61H491.82V44A7,7,0,0,0,484.83,37.05Z" transform="translate(-6.4 -7.86)"/><path class="cls-4" d="M35.92,48.88a5.25,5.25,0,1,1-5.22-5.27A5.23,5.23,0,0,1,35.92,48.88Z" transform="translate(-6.4 -7.86)"/><path class="cls-4" d="M52.25,49A5.25,5.25,0,1,1,47,43.68,5.25,5.25,0,0,1,52.25,49Z" transform="translate(-6.4 -7.86)"/><path class="cls-4" d="M68.57,49a5.25,5.25,0,1,1-5.22-5.27A5.25,5.25,0,0,1,68.57,49Z" transform="translate(-6.4 -7.86)"/><rect class="cls-5" x="39.42" y="77.46" width="408.35" height="98.33"/><rect class="cls-5" x="39.42" y="192.87" width="91.31" height="57.93"/><rect class="cls-5" x="39.42" y="286.65" width="406.63" height="8.08"/><rect class="cls-5" x="39.42" y="334.9" width="406.63" height="8.08"/><rect class="cls-5" x="39.42" y="354.52" width="406.63" height="8.08"/><rect class="cls-5" x="39.42" y="266.21" width="406.63" height="8.08"/><rect class="cls-5" x="144.82" y="192.87" width="91.31" height="57.93"/><rect class="cls-5" x="250.22" y="192.87" width="91.31" height="57.93"/><rect class="cls-5" x="355.62" y="192.87" width="91.31" height="57.93"/><path class="cls-6" d="M316.06,461.73a271,271,0,0,0,40.35,3.33,247.26,247.26,0,0,0,38.06-3.33L393,458.36C386.28,443.54,361,449.3,355.27,434h0c-4.78,15.3-31,9.54-37.69,24.36Z" transform="translate(-6.4 -7.86)"/><rect class="cls-6" x="350.49" y="346.68" width="10.52" height="98.49" transform="translate(705.09 783.99) rotate(180)"/><polygon class="cls-7" points="347.07 429.24 342.49 419.2 332.43 422.9 335.22 433.23 347.07 429.24"/><path class="cls-8" d="M353.46,436.94l2.41,8.2-10.63,3.36s-24,10.08-28.47,5.41c-2-2.15,5.76-4.26,10.78-7.58s12.89-8,12.89-8A50.69,50.69,0,0,0,353.46,436.94Z" transform="translate(-6.4 -7.86)"/><polygon class="cls-7" points="293.94 444.07 292.38 433.15 281.68 433.86 281.44 444.55 293.94 444.07"/><path class="cls-8" d="M300.37,451.77v8.55l-11.15.22s-25.87,2.89-28.84-2.85c-1.36-2.63,6.73-2.45,12.48-4.22s14.63-4.05,14.63-4.05A50.35,50.35,0,0,0,300.37,451.77Z" transform="translate(-6.4 -7.86)"/><path class="cls-7" d="M203.67,263.61l14.77-4.9L231.52,262c7.36-1.92,9.81-1.81,24.89-5.69,12.73-3.27,27.35-9.8,27.35-9.8l10.84-18.17c7,.64,21.74,8.29,21.74,8.29S296.19,264.06,290.46,266,246,272.6,231.3,270.91c-4.65-.53-13.74-5.45-13.74-5.45L205.9,267.4l-9.09,6.13-1.58-1.31,3.61-4Z" transform="translate(-6.4 -7.86)"/><path class="cls-9" d="M305.78,193.77s18.78,3.14,18.46,20c-.2,11-15.3,31.56-15.3,31.56s-8.28-11.48-18.48-14.66c0,0,6.62-19.44,8.65-25.51C301.66,197.55,305.78,193.77,305.78,193.77Z" transform="translate(-6.4 -7.86)"/><rect class="cls-6" x="337.1" y="343.81" width="37.29" height="20.08" transform="translate(705.09 699.85) rotate(180)"/><path class="cls-6" d="M342.1,265.71q-2.76-36.43-4-73c23.05-10.26,74.47-5.68,79.28,9.54,5.1,16.16-14.34,62.16-14.34,79.37s6.69,29.64,7.65,37.29a19.05,19.05,0,0,1-3.83,13.39H348C346.46,310.1,343.77,287.9,342.1,265.71Z" transform="translate(-6.4 -7.86)"/><path class="cls-3" d="M342.1,265.71q-2.88-38-4.05-76c25.33-5.92,65.58-.76,69.81,12.62,5.1,16.16-14.34,62.16-14.34,79.37s6.69,29.64,7.65,37.29a19.05,19.05,0,0,1-3.83,13.39H348C346.46,310.1,343.77,287.9,342.1,265.71Z" transform="translate(-6.4 -7.86)"/><path class="cls-3" d="M303.94,332.34h103a0,0,0,0,1,0,0V350.5a0,0,0,0,1,0,0H296a0,0,0,0,1,0,0V340.3A8,8,0,0,1,303.94,332.34Z" transform="translate(696.48 674.98) rotate(180)"/><path class="cls-10" d="M317,290.58S264,322.11,260.8,335.13c-3.76,15.53,21.69,107.51,21.69,107.51,6,4,17.12,2.67,21.22-1,0,0-20.48-78.7-18.25-84,5.47-12.87,52-28.21,66.62-42.24S368,288,368,288Z" transform="translate(-6.4 -7.86)"/><path class="cls-11" d="M377.68,276.48s18.08,37.69,1.82,53c-7.44,7-52,.64-54.51,7.65l26.88,89.29s-4.74,2.89-14.31,7.67c0,0-55.92-98.56-50.18-111.31s44.3-20.08,46.21-27.09,3.19-18.48,3.19-18.48Z" transform="translate(-6.4 -7.86)"/><path class="cls-7" d="M301,174.26c1.15,4.38,3.2,9.2,7.5,10.62,3.95,1.31,8.14-.8,11.72-2.93,4.2-2.5,8.46-5.25,11.15-9.34,4.08-6.2,7.38-13.78,6.93-21.19-.16-2.62-4-5.83-5.59-7.92a11.72,11.72,0,0,0-4.47-3.21,47,47,0,0,0-12.56-3.93c-7.26-1.18-15.32.44-16.77,8.41C297.19,154.25,298.58,165,301,174.26Z" transform="translate(-6.4 -7.86)"/><path class="cls-12" d="M311.61,157.37a2,2,0,1,0,2-2A2,2,0,0,0,311.61,157.37Z" transform="translate(-6.4 -7.86)"/><path class="cls-12" d="M300.35,157.37a2,2,0,1,0,2-2A2,2,0,0,0,300.35,157.37Z" transform="translate(-6.4 -7.86)"/><path class="cls-12" d="M315.36,164.59a6.91,6.91,0,1,1,6.92-6.91A6.92,6.92,0,0,1,315.36,164.59Zm0-12.54a5.63,5.63,0,1,0,5.65,5.63A5.64,5.64,0,0,0,315.36,152.05Z" transform="translate(-6.4 -7.86)"/><path class="cls-12" d="M305,154l-1-.77a4.7,4.7,0,0,1,3.54-1.86,5.4,5.4,0,0,1,4.19,1.67l-.93.88a4.16,4.16,0,0,0-3.19-1.28A3.43,3.43,0,0,0,305,154Z" transform="translate(-6.4 -7.86)"/><path class="cls-12" d="M300.11,164.59a6.91,6.91,0,1,1,6.92-6.91A6.93,6.93,0,0,1,300.11,164.59Zm0-12.54a5.63,5.63,0,1,0,5.64,5.63A5.64,5.64,0,0,0,300.11,152.05Z" transform="translate(-6.4 -7.86)"/><path class="cls-7" d="M352.16,186.19s-.08-1.43-5.18-2.7c-1.46-.37-3.29-.37-4.46-1.39-4.12-3.61-7.92-10.32-9.32-15.27a4.35,4.35,0,0,1-.22-2.25q-5.18,4.38-10,9.16c-1.1,1.09-7.74.48-6.94,1.95.23.42,1.92,4.29,3.58,8-3.22,2.11-6.76,4.87-6.76,4.87l-4.47,24.86,13.07,7.33s14.66-3.19,24.23-8.29S352.16,186.19,352.16,186.19Z" transform="translate(-6.4 -7.86)"/><path class="cls-13" d="M347,183.49s-3.82,7-13.39,11.15-18.16-8.28-18.16-8.28l-9.65,7.41s-.87,33.88,3.27,52.37,8,44.44,8,44.44,4.27,6.27,9.73,6.64c6.69.45,15.89-4.78,30.43-2.17,16.13,2.89,28.14.35,28.14.35S372.91,234.76,370,222.65s-10.31-36.93-10.31-36.93A102.89,102.89,0,0,0,347,183.49Z" transform="translate(-6.4 -7.86)"/><path class="cls-6" d="M174.21,269H230.9a3,3,0,0,1,3,3v1.81a0,0,0,0,1,0,0H174.21a0,0,0,0,1,0,0V269A0,0,0,0,1,174.21,269Z" transform="translate(401.72 534.88) rotate(180)"/><path class="cls-3" d="M195.77,214.11a4,4,0,0,1,3.71,2.6l19,52.31-1.17.49.31.92L174.21,269l-18.45-49.55a3.94,3.94,0,0,1,3.69-5.32Z" transform="translate(-6.4 -7.86)"/><path class="cls-6" d="M180.94,245.08c1.29,4.94,3.81,8.87,5.63,8.79s2.26-4.14,1-9.08-3.81-8.87-5.64-8.79S179.65,240.14,180.94,245.08Z" transform="translate(-6.4 -7.86)"/><path class="cls-12" d="M307.51,153.09c.07,3.82-1.47,6.69-3.06,10-.7,1.46-1.3,3.47-.72,5.08a.59.59,0,0,0,.55.42c1.48,0,3.18-1.06,4.53-1.67.55-.24.16-1.2-.42-1s-1.28.57-1.93.74c-1.37.38-1.61.6-1.66-.85-.07-1.81,1.54-3.77,2.21-5.4a15.38,15.38,0,0,0,1.14-7.37c0-.4-.65-.42-.64,0Z" transform="translate(-6.4 -7.86)"/><path class="cls-12" d="M312.64,149.57a10.92,10.92,0,0,0,2.42.31c.86.08,1.71.19,2.57.29,1.1.13,1.37-1.77.26-1.95a14.32,14.32,0,0,0-5.25-.26.84.84,0,0,0,0,1.61Z" transform="translate(-6.4 -7.86)"/><path class="cls-12" d="M299.92,149.6c1.36.22,2.73,0,4.11.08s1.24-1.85,0-2a6,6,0,0,0-4.25.78c-.36.28-.44,1,.14,1.12Z" transform="translate(-6.4 -7.86)"/><path class="cls-12" d="M321.66,156.41a21.6,21.6,0,0,0,3.93-1.08,17.18,17.18,0,0,0,3.85-1.39.46.46,0,0,0-.23-.85,13.75,13.75,0,0,0-4,1,16.28,16.28,0,0,0-3.79,1.56c-.31.2-.23.83.21.78Z" transform="translate(-6.4 -7.86)"/><path class="cls-14" d="M311.73,146.42c-6.2-.41-12.73-.44-18.15-3.27-2.64-1.37-5-3.56-5.51-6.32s1.52-6,4.54-6.17a3.86,3.86,0,0,0,1.81-.29,2.53,2.53,0,0,0,.88-2c.67-4.91,4.81-9.87,10.15-9.75,4.36.09,8.42,3.45,12.64,2.43a18,18,0,0,0,3.63-1.59,19.54,19.54,0,0,1,11.76-1.6c4.18.75,8.62,4,7.59,7.88-.34,1.28-1.26,2.39-1.5,3.69-.88,4.64,6.51,6.95,8,11.46,1.33,4.1-2.73,8.19-2.41,12.46.17,2.38,1.55,5.17-.25,6.86-1,.9-2.62,1.12-3.26,2.24-.88,1.53.76,3.26.9,5,.18,2.14-2.26,3.93-4.57,3.75a6.49,6.49,0,0,1-5.13-3.86,14,14,0,0,1-.9-6.33c3.9-1.1,6.31-7.53,2.63-9.17-2-.88-4,1.25-4.78,3C325.89,148.74,319.7,146.42,311.73,146.42Z" transform="translate(-6.4 -7.86)"/><path class="cls-14" d="M327.57,156.32l-3.86,8.9a8.59,8.59,0,0,1-2.06,3.26c-1.5,1.29-3.71,1.37-5.65,1s-5.65-1.46-7.62-1.29c-4.51.38-7.83,2.54-8.11,3.09-.58,1.1.23,2.81.25,4.06a7.13,7.13,0,0,1-.86,3.77,11.94,11.94,0,0,1-1.69,2c-1.6,1.71-3,3.83-2.91,6.17.18,3.19,3.12,5.42,5.78,7.18a11.44,11.44,0,0,0,9.58,2.67,40.78,40.78,0,0,0,8.46-1.35,13.74,13.74,0,0,0,7.07-4.6,20.2,20.2,0,0,0,2.87-6.7,47.05,47.05,0,0,0,2.33-11.58c.13-3.7-.58-7.37-1-11a61.23,61.23,0,0,1-.2-9.67c0-.4.06-1.35-.52-1.43s-.41.88-.5,1.28A23.33,23.33,0,0,1,327.57,156.32Z" transform="translate(-6.4 -7.86)"/><path class="cls-7" d="M303.8,173.25a3.63,3.63,0,0,0,.74,4,2.3,2.3,0,0,0,1.78.72,1.34,1.34,0,0,0,1.21-1.31c0-.24-.12-.51,0-.72s.4-.23.63-.24c.88,0,2,0,2.37.79.13.23.17.51.31.74a1.82,1.82,0,0,0,1.73.55,9.91,9.91,0,0,0,2.68-.6,3,3,0,0,0,1.19-.7,1.3,1.3,0,0,0,.34-1.29,1.89,1.89,0,0,0-.78-.83C313.26,172.43,306,168.45,303.8,173.25Z" transform="translate(-6.4 -7.86)"/><path class="cls-12" d="M305.16,173.22c1.45.91,4.49,1,5.88-.1a.45.45,0,0,0-.23-.84c-.91,0-1.79.37-2.72.41s-1.84-.14-2.76-.09a.34.34,0,0,0-.17.62Z" transform="translate(-6.4 -7.86)"/><path class="cls-3" d="M344.09,337.78s-1.84-51.45,9.64-54.85,36.76-2.42,36.76-2.42l2.29,9.22s-33.07-2.43-37.67,3.88,0,44.65,0,44.65Z" transform="translate(-6.4 -7.86)"/><path class="cls-7" d="M251.55,262l14.77-4.91,13.08,3.32c7.37-1.92,9.82-1.81,24.89-5.69,12.74-3.27,27.36-9.8,27.36-9.8l16.59-24.79c7,.64,16,14.91,16,14.91s-20.14,27.41-25.88,29.32-49.5,7-64.25,5.3c-4.64-.53-12.85-5.62-12.85-5.62l-7.45,1.75-9.09,6.13-1.59-1.31,3.62-4Z" transform="translate(-6.4 -7.86)"/><path class="cls-9" d="M359.73,185.72s19.76,3.19,19.44,20.08c-.21,11-15.3,31.55-15.3,31.55s-8.28-11.47-18.48-14.66c0,0,8-15.62,8.6-22S359.73,185.72,359.73,185.72Z" transform="translate(-6.4 -7.86)"/><path class="cls-3" d="M218.43,269h56.69a3,3,0,0,1,3,3v1.81a0,0,0,0,1,0,0H218.43a0,0,0,0,1,0,0V269A0,0,0,0,1,218.43,269Z" transform="translate(490.16 534.88) rotate(180)"/><rect class="cls-6" x="252.66" y="270.49" width="19.9" height="1.49" transform="translate(518.81 534.62) rotate(180)"/><rect class="cls-6" x="246.73" y="270.49" width="2.94" height="1.49" transform="translate(490 534.62) rotate(180)"/><polygon class="cls-3" points="120.88 245.71 118.2 225.96 119.16 222.36 121.32 225.37 123.8 245.51 120.88 245.71"/><polygon class="cls-3" points="133.87 247 136.68 227.27 138.59 224.08 139.84 227.56 136.73 247.61 133.87 247"/><polygon class="cls-3" points="124.82 248.53 125.06 228.31 126.79 225.13 128.27 228.37 127.99 248.56 124.82 248.53"/><polygon class="cls-9" points="136.83 268.04 121.54 268.04 118.77 242.7 138.84 242.7 136.83 268.04"/><polygon class="cls-3" points="334.3 459.79 337.96 459.79 296.69 280.25 288.92 280.25 334.3 459.79"/><polygon class="cls-3" points="222.47 457.91 226.13 457.91 252.69 280.25 244.91 280.25 222.47 457.91"/><polygon class="cls-3" points="166.86 459 170.52 459 141.35 280.25 133.58 280.25 166.86 459"/><polygon class="cls-3" points="64.05 457.1 67.71 457.1 102.83 280.25 95.05 280.25 64.05 457.1"/><rect class="cls-15" x="131.47" y="280.08" width="193.59" height="8.03" transform="translate(450.12 560.32) rotate(180)"/><rect class="cls-16" x="69.39" y="280.08" width="178.52" height="8.03" transform="translate(310.9 560.32) rotate(180)"/><rect class="cls-16" x="135.77" y="273.36" width="207.04" height="10.74" transform="translate(472.19 549.61) rotate(180)"/><rect class="cls-17" x="42.25" y="273.36" width="191.98" height="10.74" transform="translate(270.07 549.61) rotate(180)"/></svg>