<svg id="Layer_1" data-name="Layer 1" xmlns="http://www.w3.org/2000/svg" viewBox="0 0 163.86 69.86"><defs><style>.cls-1{fill:#5403bf;}</style></defs><title>dotted2</title><path class="cls-1" d="M5,72.26a1.43,1.43,0,1,1-1.43-1.43A1.43,1.43,0,0,1,5,72.26Z" transform="translate(-2.14 -3.83)"/><path class="cls-1" d="M5,59.26a1.43,1.43,0,1,1-1.43-1.43A1.43,1.43,0,0,1,5,59.26Z" transform="translate(-2.14 -3.83)"/><path class="cls-1" d="M19,72.26a1.43,1.43,0,1,1-1.43-1.43A1.43,1.43,0,0,1,19,72.26Z" transform="translate(-2.14 -3.83)"/><path class="cls-1" d="M19,59.26a1.43,1.43,0,1,1-1.43-1.43A1.43,1.43,0,0,1,19,59.26Z" transform="translate(-2.14 -3.83)"/><path class="cls-1" d="M5,45.26a1.43,1.43,0,1,1-1.43-1.43A1.43,1.43,0,0,1,5,45.26Z" transform="translate(-2.14 -3.83)"/><path class="cls-1" d="M5,32.26a1.43,1.43,0,1,1-1.43-1.43A1.43,1.43,0,0,1,5,32.26Z" transform="translate(-2.14 -3.83)"/><path class="cls-1" d="M19,45.26a1.43,1.43,0,1,1-1.43-1.43A1.43,1.43,0,0,1,19,45.26Z" transform="translate(-2.14 -3.83)"/><path class="cls-1" d="M19,32.26a1.43,1.43,0,1,1-1.43-1.43A1.43,1.43,0,0,1,19,32.26Z" transform="translate(-2.14 -3.83)"/><path class="cls-1" d="M5,18.26a1.43,1.43,0,1,1-1.43-1.43A1.43,1.43,0,0,1,5,18.26Z" transform="translate(-2.14 -3.83)"/><path class="cls-1" d="M5,5.26A1.43,1.43,0,1,1,3.57,3.83,1.43,1.43,0,0,1,5,5.26Z" transform="translate(-2.14 -3.83)"/><path class="cls-1" d="M19,18.26a1.43,1.43,0,1,1-1.43-1.43A1.43,1.43,0,0,1,19,18.26Z" transform="translate(-2.14 -3.83)"/><path class="cls-1" d="M19,5.26a1.43,1.43,0,1,1-1.43-1.43A1.43,1.43,0,0,1,19,5.26Z" transform="translate(-2.14 -3.83)"/><path class="cls-1" d="M35,72.26a1.43,1.43,0,1,1-1.43-1.43A1.43,1.43,0,0,1,35,72.26Z" transform="translate(-2.14 -3.83)"/><path class="cls-1" d="M35,59.26a1.43,1.43,0,1,1-1.43-1.43A1.43,1.43,0,0,1,35,59.26Z" transform="translate(-2.14 -3.83)"/><path class="cls-1" d="M49,72.26a1.43,1.43,0,1,1-1.43-1.43A1.43,1.43,0,0,1,49,72.26Z" transform="translate(-2.14 -3.83)"/><path class="cls-1" d="M49,59.26a1.43,1.43,0,1,1-1.43-1.43A1.43,1.43,0,0,1,49,59.26Z" transform="translate(-2.14 -3.83)"/><path class="cls-1" d="M35,45.26a1.43,1.43,0,1,1-1.43-1.43A1.43,1.43,0,0,1,35,45.26Z" transform="translate(-2.14 -3.83)"/><path class="cls-1" d="M35,32.26a1.43,1.43,0,1,1-1.43-1.43A1.43,1.43,0,0,1,35,32.26Z" transform="translate(-2.14 -3.83)"/><path class="cls-1" d="M49,45.26a1.43,1.43,0,1,1-1.43-1.43A1.43,1.43,0,0,1,49,45.26Z" transform="translate(-2.14 -3.83)"/><path class="cls-1" d="M49,32.26a1.43,1.43,0,1,1-1.43-1.43A1.43,1.43,0,0,1,49,32.26Z" transform="translate(-2.14 -3.83)"/><path class="cls-1" d="M35,18.26a1.43,1.43,0,1,1-1.43-1.43A1.43,1.43,0,0,1,35,18.26Z" transform="translate(-2.14 -3.83)"/><path class="cls-1" d="M35,5.26a1.43,1.43,0,1,1-1.43-1.43A1.43,1.43,0,0,1,35,5.26Z" transform="translate(-2.14 -3.83)"/><path class="cls-1" d="M49,18.26a1.43,1.43,0,1,1-1.43-1.43A1.43,1.43,0,0,1,49,18.26Z" transform="translate(-2.14 -3.83)"/><path class="cls-1" d="M49,5.26a1.43,1.43,0,1,1-1.43-1.43A1.43,1.43,0,0,1,49,5.26Z" transform="translate(-2.14 -3.83)"/><path class="cls-1" d="M65,72.26a1.43,1.43,0,1,1-1.43-1.43A1.43,1.43,0,0,1,65,72.26Z" transform="translate(-2.14 -3.83)"/><path class="cls-1" d="M65,59.26a1.43,1.43,0,1,1-1.43-1.43A1.43,1.43,0,0,1,65,59.26Z" transform="translate(-2.14 -3.83)"/><path class="cls-1" d="M79,72.26a1.43,1.43,0,1,1-1.43-1.43A1.43,1.43,0,0,1,79,72.26Z" transform="translate(-2.14 -3.83)"/><path class="cls-1" d="M79,59.26a1.43,1.43,0,1,1-1.43-1.43A1.43,1.43,0,0,1,79,59.26Z" transform="translate(-2.14 -3.83)"/><path class="cls-1" d="M65,45.26a1.43,1.43,0,1,1-1.43-1.43A1.43,1.43,0,0,1,65,45.26Z" transform="translate(-2.14 -3.83)"/><path class="cls-1" d="M65,32.26a1.43,1.43,0,1,1-1.43-1.43A1.43,1.43,0,0,1,65,32.26Z" transform="translate(-2.14 -3.83)"/><path class="cls-1" d="M79,45.26a1.43,1.43,0,1,1-1.43-1.43A1.43,1.43,0,0,1,79,45.26Z" transform="translate(-2.14 -3.83)"/><path class="cls-1" d="M79,32.26a1.43,1.43,0,1,1-1.43-1.43A1.43,1.43,0,0,1,79,32.26Z" transform="translate(-2.14 -3.83)"/><path class="cls-1" d="M65,18.26a1.43,1.43,0,1,1-1.43-1.43A1.43,1.43,0,0,1,65,18.26Z" transform="translate(-2.14 -3.83)"/><path class="cls-1" d="M65,5.26a1.43,1.43,0,1,1-1.43-1.43A1.43,1.43,0,0,1,65,5.26Z" transform="translate(-2.14 -3.83)"/><path class="cls-1" d="M79,18.26a1.43,1.43,0,1,1-1.43-1.43A1.43,1.43,0,0,1,79,18.26Z" transform="translate(-2.14 -3.83)"/><path class="cls-1" d="M79,5.26a1.43,1.43,0,1,1-1.43-1.43A1.43,1.43,0,0,1,79,5.26Z" transform="translate(-2.14 -3.83)"/><path class="cls-1" d="M94,72.26a1.43,1.43,0,1,1-1.43-1.43A1.43,1.43,0,0,1,94,72.26Z" transform="translate(-2.14 -3.83)"/><path class="cls-1" d="M94,59.26a1.43,1.43,0,1,1-1.43-1.43A1.43,1.43,0,0,1,94,59.26Z" transform="translate(-2.14 -3.83)"/><path class="cls-1" d="M108,72.26a1.43,1.43,0,1,1-1.43-1.43A1.43,1.43,0,0,1,108,72.26Z" transform="translate(-2.14 -3.83)"/><path class="cls-1" d="M108,59.26a1.43,1.43,0,1,1-1.43-1.43A1.43,1.43,0,0,1,108,59.26Z" transform="translate(-2.14 -3.83)"/><path class="cls-1" d="M94,45.26a1.43,1.43,0,1,1-1.43-1.43A1.43,1.43,0,0,1,94,45.26Z" transform="translate(-2.14 -3.83)"/><path class="cls-1" d="M94,32.26a1.43,1.43,0,1,1-1.43-1.43A1.43,1.43,0,0,1,94,32.26Z" transform="translate(-2.14 -3.83)"/><path class="cls-1" d="M108,45.26a1.43,1.43,0,1,1-1.43-1.43A1.43,1.43,0,0,1,108,45.26Z" transform="translate(-2.14 -3.83)"/><path class="cls-1" d="M108,32.26a1.43,1.43,0,1,1-1.43-1.43A1.43,1.43,0,0,1,108,32.26Z" transform="translate(-2.14 -3.83)"/><path class="cls-1" d="M94,18.26a1.43,1.43,0,1,1-1.43-1.43A1.43,1.43,0,0,1,94,18.26Z" transform="translate(-2.14 -3.83)"/><path class="cls-1" d="M94,5.26a1.43,1.43,0,1,1-1.43-1.43A1.43,1.43,0,0,1,94,5.26Z" transform="translate(-2.14 -3.83)"/><path class="cls-1" d="M108,18.26a1.43,1.43,0,1,1-1.43-1.43A1.43,1.43,0,0,1,108,18.26Z" transform="translate(-2.14 -3.83)"/><path class="cls-1" d="M108,5.26a1.43,1.43,0,1,1-1.43-1.43A1.43,1.43,0,0,1,108,5.26Z" transform="translate(-2.14 -3.83)"/><path class="cls-1" d="M123,72.26a1.43,1.43,0,1,1-1.43-1.43A1.43,1.43,0,0,1,123,72.26Z" transform="translate(-2.14 -3.83)"/><path class="cls-1" d="M123,59.26a1.43,1.43,0,1,1-1.43-1.43A1.43,1.43,0,0,1,123,59.26Z" transform="translate(-2.14 -3.83)"/><path class="cls-1" d="M137,72.26a1.43,1.43,0,1,1-1.43-1.43A1.43,1.43,0,0,1,137,72.26Z" transform="translate(-2.14 -3.83)"/><path class="cls-1" d="M137,59.26a1.43,1.43,0,1,1-1.43-1.43A1.43,1.43,0,0,1,137,59.26Z" transform="translate(-2.14 -3.83)"/><path class="cls-1" d="M123,45.26a1.43,1.43,0,1,1-1.43-1.43A1.43,1.43,0,0,1,123,45.26Z" transform="translate(-2.14 -3.83)"/><path class="cls-1" d="M123,32.26a1.43,1.43,0,1,1-1.43-1.43A1.43,1.43,0,0,1,123,32.26Z" transform="translate(-2.14 -3.83)"/><path class="cls-1" d="M137,45.26a1.43,1.43,0,1,1-1.43-1.43A1.43,1.43,0,0,1,137,45.26Z" transform="translate(-2.14 -3.83)"/><path class="cls-1" d="M137,32.26a1.43,1.43,0,1,1-1.43-1.43A1.43,1.43,0,0,1,137,32.26Z" transform="translate(-2.14 -3.83)"/><path class="cls-1" d="M123,18.26a1.43,1.43,0,1,1-1.43-1.43A1.43,1.43,0,0,1,123,18.26Z" transform="translate(-2.14 -3.83)"/><path class="cls-1" d="M123,5.26a1.43,1.43,0,1,1-1.43-1.43A1.43,1.43,0,0,1,123,5.26Z" transform="translate(-2.14 -3.83)"/><path class="cls-1" d="M137,18.26a1.43,1.43,0,1,1-1.43-1.43A1.43,1.43,0,0,1,137,18.26Z" transform="translate(-2.14 -3.83)"/><path class="cls-1" d="M137,5.26a1.43,1.43,0,1,1-1.43-1.43A1.43,1.43,0,0,1,137,5.26Z" transform="translate(-2.14 -3.83)"/><path class="cls-1" d="M152,72.26a1.43,1.43,0,1,1-1.43-1.43A1.43,1.43,0,0,1,152,72.26Z" transform="translate(-2.14 -3.83)"/><path class="cls-1" d="M152,59.26a1.43,1.43,0,1,1-1.43-1.43A1.43,1.43,0,0,1,152,59.26Z" transform="translate(-2.14 -3.83)"/><path class="cls-1" d="M166,72.26a1.43,1.43,0,1,1-1.43-1.43A1.43,1.43,0,0,1,166,72.26Z" transform="translate(-2.14 -3.83)"/><path class="cls-1" d="M166,59.26a1.43,1.43,0,1,1-1.43-1.43A1.43,1.43,0,0,1,166,59.26Z" transform="translate(-2.14 -3.83)"/><path class="cls-1" d="M152,45.26a1.43,1.43,0,1,1-1.43-1.43A1.43,1.43,0,0,1,152,45.26Z" transform="translate(-2.14 -3.83)"/><path class="cls-1" d="M152,32.26a1.43,1.43,0,1,1-1.43-1.43A1.43,1.43,0,0,1,152,32.26Z" transform="translate(-2.14 -3.83)"/><path class="cls-1" d="M166,45.26a1.43,1.43,0,1,1-1.43-1.43A1.43,1.43,0,0,1,166,45.26Z" transform="translate(-2.14 -3.83)"/><path class="cls-1" d="M166,32.26a1.43,1.43,0,1,1-1.43-1.43A1.43,1.43,0,0,1,166,32.26Z" transform="translate(-2.14 -3.83)"/><path class="cls-1" d="M152,18.26a1.43,1.43,0,1,1-1.43-1.43A1.43,1.43,0,0,1,152,18.26Z" transform="translate(-2.14 -3.83)"/><path class="cls-1" d="M152,5.26a1.43,1.43,0,1,1-1.43-1.43A1.43,1.43,0,0,1,152,5.26Z" transform="translate(-2.14 -3.83)"/><path class="cls-1" d="M166,18.26a1.43,1.43,0,1,1-1.43-1.43A1.43,1.43,0,0,1,166,18.26Z" transform="translate(-2.14 -3.83)"/><path class="cls-1" d="M166,5.26a1.43,1.43,0,1,1-1.43-1.43A1.43,1.43,0,0,1,166,5.26Z" transform="translate(-2.14 -3.83)"/></svg>