<svg id="Layer_1" data-name="Layer 1" xmlns="http://www.w3.org/2000/svg" viewBox="0 0 1267.49 1402.8"><defs><style>.cls-1{fill:#013ee8;}.cls-2{fill:none;stroke:#013ee8;stroke-miterlimit:10;stroke-width:3px;stroke-dasharray:20.07 20.07;}</style></defs><title>header-half2</title><path class="cls-1" d="M132,60C76.09,131.54,14.67,235.77,36,345c18.64,95.48,84.15,110.94,84,185-.26,128.39-197.26,148.28-264,329-39.57,107.16-28,256.48,49,314,83.23,62.15,166.1-40.21,374-14,157,19.79,189.2,88.21,321,83,111.88-4.42,200.93-58.14,258-102,286-357,198-873,0-1080C652-126,425-164,132,60Z" transform="translate(196.36 127.3)"/><path class="cls-2" d="M117.5,35.6C58.94,110.53-5.4,219.71,17,334.12c19.53,100,88.14,116.21,88,193.79-.27,134.48-206.62,155.32-276.53,344.61C-213,984.77-201,1141.17-120.27,1201.43c87.18,65.1,174-42.11,391.75-14.66,164.48,20.73,198.18,92.39,336.24,86.93,117.19-4.62,210.47-60.9,270.25-106.84,299.57-373.94,207.4-914.44,0-1131.26C662.19-159.23,424.41-199,117.5,35.6Z" transform="translate(196.36 127.3)"/></svg>