<svg xmlns="http://www.w3.org/2000/svg" xmlns:xlink="http://www.w3.org/1999/xlink" viewBox="0 0 462.8 486.36"><defs><style>.cls-1,.cls-11,.cls-23,.cls-24,.cls-46,.cls-5{fill:none;}.cls-2{isolation:isolate;}.cls-3{fill:#2e035b;}.cls-4{fill:#faf5f7;}.cls-24,.cls-5{stroke:#e3ddd8;stroke-linecap:round;}.cls-24,.cls-46,.cls-5{stroke-linejoin:round;}.cls-5{stroke-width:0.57px;}.cls-6{fill:#ffd008;}.cls-7{fill:#a3b8ce;}.cls-8{fill:#e19256;}.cls-9{fill:#fff;}.cls-10{fill:#ffa37f;}.cls-11{stroke:#e5cbd5;stroke-width:1.07px;}.cls-11,.cls-23{stroke-miterlimit:10;}.cls-12{fill:#c40505;}.cls-13{opacity:0.4;mix-blend-mode:luminosity;}.cls-14{clip-path:url(#clip-path);}.cls-15{fill:#c69046;}.cls-16{fill:#ae7d38;}.cls-17{fill:#e1a55f;}.cls-18{fill:#e1d3ca;}.cls-19,.cls-20,.cls-21{mix-blend-mode:multiply;}.cls-19{font-size:34.88px;font-family:Poppins-Regular, Poppins Regular;letter-spacing:-0.1em;}.cls-19,.cls-21{fill:#ffde87;}.cls-20{fill:#dedede;opacity:0.5;}.cls-22{fill:#0aa511;}.cls-23,.cls-46{stroke:#fff;}.cls-23{stroke-width:0.74px;}.cls-24{stroke-width:0.89px;}.cls-25{fill:#07a82d;}.cls-26{fill:#016812;}.cls-27{fill:#3e6081;}.cls-28{fill:#7c2c00;}.cls-29{fill:#ffbc3f;}.cls-30{fill:#050000;}.cls-31{fill:#020000;}.cls-32{fill:#b9b4c3;}.cls-33{fill:#a099ae;}.cls-34{fill:#3e7dc0;}.cls-35{fill:#9dbddf;}.cls-36{fill:#8b4438;}.cls-37{fill:#d6e2e9;opacity:0.53;}.cls-38{fill:#ff732a;}.cls-39{fill:#95d2d6;}.cls-40{fill:#65a3b0;}.cls-41{fill:#4d768c;}.cls-42{fill:#ff6a4b;}.cls-43{fill:#a35245;}.cls-44{fill:#d15844;}.cls-45{fill:#3fa7aa;}.cls-46{stroke-width:1.13px;}.cls-47{fill:#af1e05;}</style><clipPath id="clip-path" transform="translate(-8.32 -2.99)"><rect class="cls-1" x="50.76" y="152.2" width="129.12" height="61.68"/></clipPath></defs><title>marketing</title><g class="cls-2"><g id="OBJECTS"><path class="cls-3" d="M142.61,39.82c96.42-36.72,231-.49,293.27,101.49,66.28,108.62,35,266.58-59.81,321.81C314.76,498.84,205.64,504,170,441c-25.75-45.56,52.76-94.51,32.9-155.88-24.7-76.3-161.49-65.21-172.87-125.4C21.68,115.43,86.56,61.16,142.61,39.82Z" transform="translate(-8.32 -2.99)"/><path class="cls-4" d="M354.79,258.79l5.67-4.32h32.2a3.46,3.46,0,0,0,3.46-3.47V234a3.46,3.46,0,0,0-3.46-3.47h-34.4a3.47,3.47,0,0,0-3.47,3.47Z" transform="translate(-8.32 -2.99)"/><path d="M391.11,254.48c1.81.15,4.23-.32,5-2.2a8.11,8.11,0,0,0,.22-2.95v-3.75a.1.1,0,1,0-.19,0c0,1.73.07,3.48,0,5.21-.12,2.76-2.55,3.7-5,3.5-.13,0-.13.18,0,.19Z" transform="translate(-8.32 -2.99)"/><path d="M388.14,254.33h-5.52a.1.1,0,0,0,0,.2h5.52a.1.1,0,0,0,0-.2Z" transform="translate(-8.32 -2.99)"/><path d="M396.11,241.77v-5.1a.1.1,0,1,0-.19,0v5.1a.1.1,0,1,0,.19,0Z" transform="translate(-8.32 -2.99)"/><path d="M396,234.06c-.37-3.83-4.13-3.7-7.18-3.7h-12.6a.1.1,0,0,0,0,.19h8.66c2.94,0,10.48-1.1,10.92,3.51,0,.13.21.13.2,0Z" transform="translate(-8.32 -2.99)"/><path d="M366.27,254.19h-3.43a7.93,7.93,0,0,0-2.62,0,6.45,6.45,0,0,0-1.15,1l-4.35,3.57c-.1.08,0,.22.14.14l3.74-3.08a7.92,7.92,0,0,1,1.62-1.33,8.8,8.8,0,0,1,2.62-.06h3.43a.1.1,0,0,0,0-.2Z" transform="translate(-8.32 -2.99)"/><path d="M362.67,230.46c-6.43,0-8,0-8.11,7.21-.08,6.64,0,13.29,0,19.92a.1.1,0,1,0,.19,0v-13c0-2.59-.1-5.2,0-7.78.25-6.32,2.51-6.12,7.92-6.12a.1.1,0,0,0,0-.19Z" transform="translate(-8.32 -2.99)"/><line class="cls-5" x1="380.05" y1="232.63" x2="352.77" y2="232.63"/><line class="cls-5" x1="380.05" y1="236.63" x2="352.77" y2="236.63"/><line class="cls-5" x1="380.05" y1="240.06" x2="352.77" y2="240.06"/><line class="cls-5" x1="380.05" y1="243.28" x2="352.77" y2="243.28"/><line class="cls-5" x1="380.05" y1="246.91" x2="352.77" y2="246.91"/><path class="cls-6" d="M239.12,49.42c-.81-.83-2.08-5.48-6.19-10.42-4.75-5.71-5.19-14.82.4-19.94s14.82-4.31,19.6-.57,6.41,12.75.53,20.11c-4.42,5.53-3.62,9-5.07,10.9C247.61,50.52,239.67,50,239.12,49.42Z" transform="translate(-8.32 -2.99)"/><path class="cls-7" d="M239.12,49.42s-1.25.72-1,1.4a2.52,2.52,0,0,0,.93,1.08s-1.49.6-1.35,1.07c.35,1.22,1.87,1.22,1.87,1.22s-.62.73-.28,1.08c.8.81,6.32,1.67,7.94.61s.28-1.35.28-1.35,1.49-.66,1.49-1.2-1.2-.81-1.2-.81,1.49-1.07,1.49-1.47-.91-1.55-.91-1.55Z" transform="translate(-8.32 -2.99)"/><path class="cls-8" d="M240.94,49.08a38,38,0,0,0-1.19-9.32c-.27-.88-1.08-4.35-2.56-3.91-.77.22-.6,1.28-.22,1.76,1.29,1.68,4.9.64,6.57.23.26-.07.15-.48-.12-.42a17.1,17.1,0,0,1-2.55.48,2.54,2.54,0,0,1-2.29-.51c-.55-.71-.66-.77-.32-.19a6.7,6.7,0,0,1,.5,1.13,17.71,17.71,0,0,1,.8,2.36,41.57,41.57,0,0,1,.95,8.39c0,.28.44.28.43,0Z" transform="translate(-8.32 -2.99)"/><path class="cls-8" d="M245,37.63a.22.22,0,0,0,0-.43.22.22,0,0,0,0,.43Z" transform="translate(-8.32 -2.99)"/><path class="cls-8" d="M245.49,49a70.19,70.19,0,0,1,.69-8.69,16.72,16.72,0,0,1,.55-3.25c-.17-1,.08-1.3.76-.95l-1.37,1.25c-.2.18.1.49.3.3.53-.48,2.64-1.83,1.85-2.88a.86.86,0,0,0-1.24,0c-1.05.79-1,3.7-1.18,4.86a71.47,71.47,0,0,0-.79,9.35c0,.28.42.28.43,0Z" transform="translate(-8.32 -2.99)"/><path d="M239.72,51.52q4,.06,8.12-.1c.17,0,.17-.27,0-.26-2.71.11-5.42.15-8.12.1a.13.13,0,0,0,0,.26Z" transform="translate(-8.32 -2.99)"/><path d="M240.36,53.93a52.45,52.45,0,0,0,6.39-.27c.16,0,.17-.28,0-.26a52.45,52.45,0,0,1-6.39.27.13.13,0,0,0,0,.26Z" transform="translate(-8.32 -2.99)"/><path d="M248.53,49.28c1.73-2.91,2.52-6.21,4.27-9.12,1.49-2.48,3-4.68,3.75-7.54,1-3.91,1.2-9.77-2.17-12.61-.13-.11-.31.07-.19.18,5,4.18,2.47,13.37-.34,17.91-2.21,3.57-3.41,7.48-5.54,11-.08.14.14.27.22.13Z" transform="translate(-8.32 -2.99)"/><path d="M252.66,18.77a.65.65,0,0,1,.17.41c0,.16.27.09.25-.07a.94.94,0,0,0-.2-.47c-.09-.13-.31,0-.22.13Z" transform="translate(-8.32 -2.99)"/><path d="M239,54.84a3.36,3.36,0,0,0,2.08,1.29c.16,0,.23-.22.07-.25a3.06,3.06,0,0,1-1.93-1.17c-.1-.13-.33,0-.22.13Z" transform="translate(-8.32 -2.99)"/><path d="M244.78,56.56c.47-.07,4.12-1.15,3.12-2l-.06.21c.48-.17,1.63-.47,1.54-1.16s-1-1-1.6-.9c-.16,0-.17.27,0,.26.44-.05,1.66.2,1.16,1-.15.25-.95.48-1.17.57a.13.13,0,0,0-.06.21c.33.28-1.07,1-1.31,1.11a6.12,6.12,0,0,1-1.68.49c-.17,0-.1.27.06.24Z" transform="translate(-8.32 -2.99)"/><path d="M248.53,51.7a.89.89,0,0,0-.2-1.76c-.16,0-.16.25,0,.25a.63.63,0,0,1,.13,1.26c-.17,0-.1.28.07.25Z" transform="translate(-8.32 -2.99)"/><path d="M240.31,49.48l6.45.05a.13.13,0,0,0,0-.26l-6.45-.05c-.16,0-.16.25,0,.26Z" transform="translate(-8.32 -2.99)"/><path class="cls-9" d="M233.49,30.27c-.23-4.6,1.94-8.7,6.66-9.7.86-.18.5-1.5-.37-1.32-5.3,1.11-7.92,5.85-7.66,11,0,.88,1.42.89,1.37,0Z" transform="translate(-8.32 -2.99)"/><path d="M228.43,5.57l5.73,6.84c.11.13.29-.06.19-.18l-5.74-6.84c-.1-.13-.28.05-.18.18Z" transform="translate(-8.32 -2.99)"/><path d="M242.32,11.61l.45-8.5c0-.17-.24-.17-.25,0l-.45,8.5c0,.17.24.17.25,0Z" transform="translate(-8.32 -2.99)"/><path d="M237.47,9.07a2.54,2.54,0,0,1,.78,2,.13.13,0,1,0,.25,0,2.73,2.73,0,0,0-.85-2.14.13.13,0,0,0-.18.18Z" transform="translate(-8.32 -2.99)"/><path d="M251,13.81l2.61-4.16c.09-.14-.14-.27-.22-.13l-2.61,4.16c-.09.14.13.27.22.13Z" transform="translate(-8.32 -2.99)"/><path d="M259.08,18.79l4.58-3.58c.13-.1-.05-.29-.18-.18l-4.58,3.58c-.13.1.05.28.18.18Z" transform="translate(-8.32 -2.99)"/><path d="M217.65,20.36l7.58,2.42c.16,0,.22-.19.07-.25l-7.58-2.42c-.16-.05-.23.2-.07.25Z" transform="translate(-8.32 -2.99)"/><path d="M226.8,15.28l3.15,1.9c.14.08.27-.14.13-.22l-3.15-1.9c-.14-.09-.27.13-.13.22Z" transform="translate(-8.32 -2.99)"/><path d="M222.7,39.73l5.52-3.06c.14-.08,0-.3-.13-.22l-5.52,3.06c-.15.08,0,.3.13.22Z" transform="translate(-8.32 -2.99)"/><path d="M223.33,32.41l1.7-.35c.17,0,.1-.28-.07-.25l-1.69.35a.13.13,0,0,0,.06.25Z" transform="translate(-8.32 -2.99)"/><path d="M238,45.72c-4.64-6.53-13.94-17.92-5.57-25.45.13-.12,0-.3-.18-.19-8.38,7.54.85,19.2,5.53,25.77.09.13.32,0,.22-.13Z" transform="translate(-8.32 -2.99)"/><path d="M233.88,18.75l.65-.52c.13-.11-.05-.29-.18-.19l-.65.52c-.13.11.05.29.18.19Z" transform="translate(-8.32 -2.99)"/><path class="cls-4" d="M174.32,237.19h-4.64l-5.87,10.52-6.5-10.52h-101a5.56,5.56,0,0,1-5.55-5.56V135.92a5.56,5.56,0,0,1,5.55-5.56h118a5.56,5.56,0,0,1,5.56,5.56v95.71A5.56,5.56,0,0,1,174.32,237.19Z" transform="translate(-8.32 -2.99)"/><rect class="cls-10" x="42.44" y="149.21" width="129.12" height="61.68"/><line class="cls-11" x1="76.77" y1="139.05" x2="138.24" y2="139.05"/><circle class="cls-10" cx="58.05" cy="138.62" r="6.71"/><path class="cls-12" d="M68.25,229.86c-6.43-.2-10.63-9.17-8.14-11.31,3.72-3.2,6.88,3.17,6.88,3.17s2.6-5.3,6.31-4.24S73.53,230,68.25,229.86Z" transform="translate(-8.32 -2.99)"/><g class="cls-13"><g class="cls-14"><path class="cls-15" d="M25.84,191.05l32-11.78,66.59,1.29-2.77,64.33a11.16,11.16,0,0,1-3,7.11l-14.86,15.94L29.18,264.3a2.61,2.61,0,0,1-2.48-2.57Z" transform="translate(-8.32 -2.99)"/><path class="cls-16" d="M124.44,180.56l-2.77,64.33a11.16,11.16,0,0,1-3,7.11l-14.86,15.94-.23-75.08Z" transform="translate(-8.32 -2.99)"/><polygon class="cls-17" points="116.12 177.58 49.53 176.29 17.52 188.06 95.27 189.96 116.12 177.58"/><polygon class="cls-16" points="73.05 176.74 49.36 188.82 47.33 262.56 58.37 263.19 61.11 189.73 83.01 176.93 73.05 176.74"/><path d="M61.1,264.69c.09-23.77,2.17-47.52,2.26-71.29a.1.1,0,0,0-.2,0c-.09,23.77-2.17,47.52-2.26,71.29a.1.1,0,0,0,.2,0Z" transform="translate(-8.32 -2.99)"/><path d="M67.26,189.54c5.86-3.46,12.17-6.12,18-9.58a.1.1,0,0,0-.1-.18c-5.86,3.47-12.18,6.13-18,9.59-.11.07,0,.24.1.17Z" transform="translate(-8.32 -2.99)"/><polygon class="cls-18" points="66.77 194.92 67.06 205.35 89.33 205.81 89.9 195.03 66.77 194.92"/><path d="M77.73,204.44q2-2.41,1.77.08c.06.15.13.3.19.44a.1.1,0,0,0,.09,0c1.24.05,2-2.34,3.35-.71a.11.11,0,0,0,.1,0c-1.68.35,3.18-.71.89-.53,1.59-.12,1.47.26,2.63.44a41,41,0,0,0,6.74.11.1.1,0,0,0,0-.2c-1.44,0-2.92.11-4.36,0-1.23-.08-3-1.09-4-.95a3.76,3.76,0,0,1-.67,0l0,0c-.48.63-1.09.59-1.81-.15-.22,0-.53-.28-.8-.19,1.54-.5-2.9,1.23-1.07,1-1.55.16-1.23-1.57-1.64-2.41a.12.12,0,0,0-.09,0c-1.3.06-1.47,1.94-1.48,2.92,0,.13.19.13.2,0Z" transform="translate(-8.32 -2.99)"/><path d="M70.61,192.3c9.78,0,19.54.71,29.32.76a.15.15,0,0,0,0-.3c-9.78,0-19.54-.72-29.32-.76a.15.15,0,0,0,0,.3Z" transform="translate(-8.32 -2.99)"/><path d="M103.15,194.28a3.29,3.29,0,0,1,.07,2.19c-.06.19.23.26.29.08a3.58,3.58,0,0,0-.07-2.35c-.07-.17-.36-.1-.29.08Z" transform="translate(-8.32 -2.99)"/><path d="M103.75,199.9v64.69a.15.15,0,0,0,.3,0V199.9a.15.15,0,0,0-.3,0Z" transform="translate(-8.32 -2.99)"/><path d="M104.88,192.38c2.91-.5,6.37-3.58,8.83-5.09,3.11-1.92,6.16-4,9.37-5.79.16-.09,0-.35-.16-.26-3,1.64-5.83,3.61-8.73,5.4-1.89,1.16-3.79,2.33-5.7,3.46-1,.62-2.45,1.78-3.69,2-.19,0-.11.32.08.29Z" transform="translate(-8.32 -2.99)"/><path d="M124.26,184.59c-1.73,18.84-.82,37.9-2.54,56.73,0,.2.28.19.29,0,1.73-18.83.82-37.89,2.55-56.73,0-.19-.29-.19-.3,0Z" transform="translate(-8.32 -2.99)"/><path d="M32.12,192.07H65.68a.15.15,0,0,0,0-.3H32.12a.15.15,0,0,0,0,.3Z" transform="translate(-8.32 -2.99)"/><path d="M62.72,179.45c20.06,0,40.08,1.3,60.14,1.34.19,0,.19-.29,0-.3-20.06,0-40.08-1.3-60.14-1.34a.15.15,0,0,0,0,.3Z" transform="translate(-8.32 -2.99)"/><path d="M32.65,264.56c22.57.06,45.09,2.35,67.66,2.41a.15.15,0,0,0,0-.3c-22.57-.06-45.09-2.35-67.66-2.41a.15.15,0,0,0,0,.3Z" transform="translate(-8.32 -2.99)"/><path class="cls-15" d="M149.12,155.16l12.64-4.65,26.29.51L187,176.41a4.38,4.38,0,0,1-1.18,2.81l-5.86,6.3-29.48-1.44a1,1,0,0,1-1-1Z" transform="translate(-8.32 -2.99)"/><path class="cls-16" d="M188.05,151,187,176.41a4.38,4.38,0,0,1-1.18,2.81l-5.86,6.3-.09-29.65Z" transform="translate(-8.32 -2.99)"/><polygon class="cls-17" points="179.73 148.03 153.44 147.52 140.8 152.17 171.5 152.92 179.73 148.03"/><polygon class="cls-16" points="162.72 147.7 153.37 152.47 152.57 181.59 156.93 181.84 158.01 152.83 166.66 147.77 162.72 147.7"/><path d="M163,184.23c.08-9.38.82-18.76.89-28.15a0,0,0,0,0-.08,0c-.07,9.39-.81,18.77-.89,28.15a0,0,0,1,0,.08,0Z" transform="translate(-8.32 -2.99)"/><path d="M165.47,154.56c2.32-1.36,4.81-2.42,7.12-3.78a0,0,0,1,0,0-.07c-2.31,1.37-4.8,2.42-7.12,3.78,0,0,0,.1,0,.07Z" transform="translate(-8.32 -2.99)"/><polygon class="cls-18" points="160.25 154.88 160.36 159 169.15 159.18 169.38 154.92 160.25 154.88"/><path d="M169.61,160.44c.51-.63.75-.62.7,0,0,.06.05.11.07.17l0,0c.49,0,.79-.92,1.32-.28h0c-.66.13,1.25-.28.35-.21.63-.05.58.1,1,.17a16.84,16.84,0,0,0,2.66,0,0,0,0,0,0,0-.08c-.57,0-1.15,0-1.72,0s-1.2-.43-1.58-.38l-.26,0h0q-.28.38-.72-.06c-.08,0-.21-.11-.31-.08.61-.2-1.15.49-.42.41-.62.07-.49-.62-.65-.95l0,0c-.51,0-.58.77-.58,1.15a0,0,0,1,0,.08,0Z" transform="translate(-8.32 -2.99)"/><path d="M166.8,155.65c3.86,0,7.71.28,11.57.3a.06.06,0,0,0,0-.12c-3.86,0-7.71-.28-11.57-.3a.06.06,0,1,0,0,.12Z" transform="translate(-8.32 -2.99)"/><path d="M179.64,156.43a1.44,1.44,0,0,1,0,.87c0,.07.1.1.12,0a1.56,1.56,0,0,0,0-.93c0-.07-.14,0-.12,0Z" transform="translate(-8.32 -2.99)"/><path d="M179.88,158.65v25.54a.06.06,0,0,0,.12,0V158.65c0-.07-.12-.07-.12,0Z" transform="translate(-8.32 -2.99)"/><path d="M180.33,155.68c1.15-.2,2.51-1.41,3.48-2,1.23-.76,2.44-1.59,3.7-2.28.07,0,0-.14-.06-.11-1.18.65-2.3,1.43-3.44,2.13-.75.47-1.5.93-2.26,1.37a5.26,5.26,0,0,1-1.45.79c-.08,0-.05.13,0,.11Z" transform="translate(-8.32 -2.99)"/><path d="M188,152.61c-.58,7.45-.43,14.95-1,22.4,0,.07.12.07.12,0,.58-7.45.43-14.95,1-22.4a.06.06,0,0,0-.12,0Z" transform="translate(-8.32 -2.99)"/><path d="M151.6,155.56h13.25c.07,0,.07-.12,0-.12H151.6a.06.06,0,1,0,0,.12Z" transform="translate(-8.32 -2.99)"/><path d="M163.68,150.58c7.92,0,15.83.49,23.75.53.07,0,.07-.12,0-.12-7.92,0-15.83-.49-23.75-.53-.07,0-.07.12,0,.12Z" transform="translate(-8.32 -2.99)"/><path d="M151.81,184.18c8.91.06,17.8.9,26.71.95.08,0,.08-.11,0-.11-8.91-.06-17.8-.9-26.71-1a.06.06,0,0,0,0,.12Z" transform="translate(-8.32 -2.99)"/><path d="M132.89,204.55c7.92,0,16.05.32,23.85-1.32,4.86-1,10.74-3.06,11.07-8.82,0-.2-.29-.2-.3,0-.7,12.42-26.32,9.86-34.62,9.84a.15.15,0,1,0,0,.3Z" transform="translate(-8.32 -2.99)"/><path d="M164.18,195.13c.63-.55,3-3.2,4-2.71.48.25.93,1.1,1.22,1.53a12.29,12.29,0,0,1,.93,1.76c.07.17.33,0,.25-.15a11,11,0,0,0-1.41-2.44c-.3-.39-.75-1.17-1.3-1.24s-.8.38-1.1.63c-.93.79-1.84,1.61-2.76,2.41-.15.13.06.34.21.21Z" transform="translate(-8.32 -2.99)"/><path d="M140.08,160.34c-7.92,0-16.05-.32-23.85,1.32-4.86,1-10.75,3.06-11.07,8.82,0,.2.29.2.3,0,.7-12.42,26.31-9.86,34.62-9.84a.15.15,0,0,0,0-.3Z" transform="translate(-8.32 -2.99)"/><path d="M108.79,169.76c-.63.55-3,3.2-4,2.71a4.77,4.77,0,0,1-1.21-1.53,11.36,11.36,0,0,1-.93-1.76c-.08-.17-.33,0-.26.15a11.4,11.4,0,0,0,1.41,2.44c.3.39.76,1.17,1.3,1.24s.81-.38,1.1-.63c.94-.79,1.85-1.61,2.77-2.41.15-.13-.07-.34-.21-.21Z" transform="translate(-8.32 -2.99)"/></g></g><path d="M75.25,236.61c-3.52-.58-7.31-.25-10.86-.33-2.34-.06-4.68-.12-7-.34-3.8-.37-5.27-.63-5.52-5-.36-6.42-.14-12.92-.19-19.35-.1-16.69.17-33.42-.37-50.09a.17.17,0,0,0-.33,0c.59,18.1.28,36.27.41,54.39,0,3.86,0,7.73.1,11.59,0,1.92-.5,6,.81,7.48,1.72,1.9,6.74,1.47,9,1.56,4.56.19,9.41-.32,13.91.42.2,0,.29-.27.09-.31Z" transform="translate(-8.32 -2.99)"/><path d="M52.29,151.08l0-12.09c0-1.56-.38-3.58,0-5.09,1.1-4.3,4-4.1,7.2-3.79.2,0,.2-.3,0-.32-2.9-.28-6.41-.29-7.38,3-.62,2.13-.15,4.78-.14,7l0,11.28c0,.2.33.2.33,0Z" transform="translate(-8.32 -2.99)"/><path d="M64.44,130.27H113a.16.16,0,0,0,0-.32H64.44a.16.16,0,0,0,0,.32Z" transform="translate(-8.32 -2.99)"/><path d="M154.34,130.22h20.32a.16.16,0,0,0,0-.32H154.34a.16.16,0,0,0,0,.32Z" transform="translate(-8.32 -2.99)"/><path d="M177.55,131.47c3.44,2.95,2.36,11.21,2.4,15.44.06,5.31.07,10.61.06,15.91,0,9.4,0,18.82-.39,28.21a.17.17,0,0,0,.33,0c.48-10.63.39-21.31.38-31.95,0-5.51,0-11-.11-16.52-.06-3.73.66-8.66-2.44-11.32-.15-.13-.38.09-.23.23Z" transform="translate(-8.32 -2.99)"/><path d="M79.89,236.87h75.38a.17.17,0,0,0,0-.33H79.89a.17.17,0,0,0,0,.33Z" transform="translate(-8.32 -2.99)"/><path d="M159.07,239.5c1.12,1.91,2.83,7,5.13,7.71a.16.16,0,0,0,.15,0,19.37,19.37,0,0,0,2.27-4c.62-1.18,2-5.31,3.3-6s3.71.17,5.15,0c4-.49,4.91-3.26,5-6.91.16-10.15,0-20.31,0-30.46a.16.16,0,0,0-.32,0v21.51c0,3.71.67,8.26-.37,11.85-1.33,4.59-5.89,3.7-9.69,3.7a.15.15,0,0,0-.14.08c-1,2-2.23,6-3.9,7.48-3,2.57-4.94-2.82-6.28-5.08a.16.16,0,0,0-.27.16Z" transform="translate(-8.32 -2.99)"/><path d="M71.91,152.19h69.76a.16.16,0,0,0,0-.32H71.91a.16.16,0,0,0,0,.32Z" transform="translate(-8.32 -2.99)"/><path class="cls-4" d="M406.4,223.51H317.7l-14.48,10.58,0-10.58a4.43,4.43,0,0,1-4.43-4.43V173a4.43,4.43,0,0,1,4.43-4.43H406.4a4.43,4.43,0,0,1,4.42,4.43v46.1A4.42,4.42,0,0,1,406.4,223.51Z" transform="translate(-8.32 -2.99)"/><text class="cls-19" transform="translate(300.79 201.06)">5.0</text><rect class="cls-20" x="349.8" y="184.58" width="41.8" height="3.26" rx="0.74"/><rect class="cls-20" x="349.8" y="191.2" width="41.8" height="3.26" rx="0.74"/><rect class="cls-20" x="349.8" y="198.75" width="41.8" height="3.26" rx="0.74"/><rect class="cls-20" x="349.8" y="205.36" width="41.8" height="3.26" rx="0.74"/><polygon class="cls-21" points="307.35 206.47 308.22 208.23 310.16 208.51 308.75 209.88 309.08 211.81 307.35 210.89 305.62 211.81 305.95 209.88 304.55 208.51 306.49 208.23 307.35 206.47"/><polygon class="cls-21" points="314.97 206.47 315.84 208.23 317.78 208.51 316.38 209.88 316.71 211.81 314.97 210.89 313.24 211.81 313.57 209.88 312.17 208.51 314.11 208.23 314.97 206.47"/><polygon class="cls-21" points="323.1 206.47 323.96 208.23 325.9 208.51 324.5 209.88 324.83 211.81 323.1 210.89 321.36 211.81 321.69 209.88 320.29 208.51 322.23 208.23 323.1 206.47"/><polygon class="cls-21" points="330.44 206.47 331.31 208.23 333.25 208.51 331.85 209.88 332.18 211.81 330.44 210.89 328.71 211.81 329.04 209.88 327.64 208.51 329.58 208.23 330.44 206.47"/><polygon class="cls-21" points="338.95 206.47 339.82 208.23 341.76 208.51 340.35 209.88 340.69 211.81 338.95 210.89 337.22 211.81 337.55 209.88 336.15 208.51 338.09 208.23 338.95 206.47"/><rect class="cls-21" x="349.8" y="175.83" width="41.8" height="4.51" rx="1.14"/><path d="M298.68,209.42v4.66c0,2-.37,4.46.12,6.44a4.48,4.48,0,0,0,4.36,3.19c.16,0,.15-.24,0-.25-3.86-.2-4.24-3.44-4.24-6.62v-7.42a.12.12,0,0,0-.24,0Z" transform="translate(-8.32 -2.99)"/><path d="M298.85,201.61v-7.05a.13.13,0,0,0-.25,0v7.05a.13.13,0,0,0,.25,0Z" transform="translate(-8.32 -2.99)"/><path d="M298.85,177.65c0-4.23-1.11-8.14,4.94-9a51.43,51.43,0,0,1,6.8,0h33.15a.13.13,0,0,0,0-.25H320.36c-5.61,0-11.5-.53-17.09,0-5.37.5-4.67,4.93-4.67,9.22a.13.13,0,0,0,.25,0Z" transform="translate(-8.32 -2.99)"/><path d="M391.51,223.79h11.82c1.5,0,3.13.32,4.56-.24,2.57-1,3-3.35,3.06-5.8.18-6.56,0-13.16,0-19.72a.13.13,0,0,0-.25,0v14.53c0,3.11.43,5.8-1.18,8.5-2,3.38-4.43,2.48-8.16,2.48h-9.85a.13.13,0,0,0,0,.25Z" transform="translate(-8.32 -2.99)"/><path d="M392.07,168.52c4.57,0,9.37-.43,13.92,0,4,.37,4.71,3.71,4.71,7.18v13.87a.13.13,0,0,0,.25,0v-7.52c0-3.17.79-7.58-.23-10.62a4.61,4.61,0,0,0-4-3.1c-4.63-.79-10-.06-14.69-.06a.13.13,0,0,0,0,.25Z" transform="translate(-8.32 -2.99)"/><path d="M372.51,223h-48c-1.8,0-4.9-.51-6.63.06-1.15.39-2.41,1.68-3.39,2.37l-8.07,5.62c-.13.09,0,.31.13.22l7.32-5.1c1.19-.83,2.57-2.21,3.94-2.75,2.45-1,6.56-.17,9.21-.17h45.51a.13.13,0,0,0,0-.25Z" transform="translate(-8.32 -2.99)"/><path d="M402,181.88a.16.16,0,0,0,0-.32.16.16,0,0,0,0,.32Z" transform="translate(-8.32 -2.99)"/><path class="cls-22" d="M323.22,122.13h-23a5.09,5.09,0,0,0-5.09,5.09v20.19a5.09,5.09,0,0,0,5.09,5.09h6.32l3,5.77a1.6,1.6,0,0,0,2.8.07l3.35-5.84h7.57a5.08,5.08,0,0,0,5.08-5.09V127.22A5.08,5.08,0,0,0,323.22,122.13Z" transform="translate(-8.32 -2.99)"/><path class="cls-23" d="M319.92,144H304.05a2.1,2.1,0,0,1-2.09-2.1V131.79a2.1,2.1,0,0,1,2.09-2.1h15.87a2.1,2.1,0,0,1,2.1,2.1v10.08A2.1,2.1,0,0,1,319.92,144Z" transform="translate(-8.32 -2.99)"/><path d="M309.63,158.09c-.71-1.5-1.54-5-3-5.93-.44-.3-1.61-.1-2.12-.1-4.06,0-8.19,1.53-9.27-5.43-.51-3.27,0-7,0-10.32a.16.16,0,0,0-.32,0v6.82c0,2.08-.75,5,.17,6.87,1.14,2.33,3.52,2.51,5.82,2.52,1.75,0,4.55-.79,6,.56,1.14,1.08,1.78,3.75,2.45,5.17.09.18.36,0,.28-.16Z" transform="translate(-8.32 -2.99)"/><path d="M310,122.49h8.11c1.93,0,5-.52,6.75.14,4,1.47,3.33,6.86,3.33,10.26v14.52a.16.16,0,0,0,.32,0c0-6.51.42-13.15,0-19.64-.15-2.31-.73-4.26-3-5.25a8.92,8.92,0,0,0-3.76-.35H310a.16.16,0,0,0,0,.32Z" transform="translate(-8.32 -2.99)"/><path class="cls-4" d="M381.19,242.62l8.76-6.69h49.83a5.36,5.36,0,0,0,5.37-5.37V204.27a5.36,5.36,0,0,0-5.37-5.37H386.55a5.36,5.36,0,0,0-5.36,5.37Z" transform="translate(-8.32 -2.99)"/><path d="M437.38,236c2.8.23,6.55-.5,7.71-3.41.56-1.4.35-3.08.35-4.56v-5.81a.16.16,0,0,0-.31,0c0,2.68.12,5.38,0,8.06-.17,4.28-3.94,5.73-7.75,5.42-.19,0-.19.29,0,.3Z" transform="translate(-8.32 -2.99)"/><path d="M432.79,235.72h-8.54a.15.15,0,0,0,0,.3h8.54a.15.15,0,0,0,0-.3Z" transform="translate(-8.32 -2.99)"/><path d="M445.13,216.28v-7.9a.16.16,0,0,0-.31,0v7.9a.16.16,0,0,0,.31,0Z" transform="translate(-8.32 -2.99)"/><path d="M445,204.35c-.59-6.16-6.82-5.73-11.59-5.73h-19a.15.15,0,0,0,0,.3H428.3c4.58,0,15.67-1.67,16.35,5.43,0,.19.32.2.3,0Z" transform="translate(-8.32 -2.99)"/><path d="M399,235.5h-5.31c-1.12,0-3.05-.44-4.05,0a9.88,9.88,0,0,0-1.78,1.46l-6.73,5.53c-.15.13.06.34.21.22l5.79-4.77a12.64,12.64,0,0,1,2.51-2.06c1-.41,2.91-.1,4.05-.1H399a.15.15,0,0,0,0-.3Z" transform="translate(-8.32 -2.99)"/><path d="M393.37,198.78c-2.95,0-7.45-1.18-10,.8-3.29,2.53-2.53,8.82-2.53,12.34v28.85a.16.16,0,0,0,.31,0V218.93c0-4.88-.74-10.69.51-15.42,1.62-6.12,6.55-4.43,11.73-4.43a.15.15,0,1,0,0-.3Z" transform="translate(-8.32 -2.99)"/><line class="cls-24" x1="424.83" y1="203.78" x2="382.61" y2="203.78"/><line class="cls-24" x1="424.83" y1="209.96" x2="382.61" y2="209.96"/><line class="cls-24" x1="424.83" y1="215.26" x2="382.61" y2="215.26"/><line class="cls-24" x1="424.83" y1="220.25" x2="382.61" y2="220.25"/><line class="cls-24" x1="424.83" y1="225.87" x2="382.61" y2="225.87"/><path d="M327.36,358.38C335.62,356,345.3,351.63,354,352c.4,0,.39-.59,0-.61-8.86-.41-18.36,4-26.77,6.37a.31.31,0,0,0,.16.59Z" transform="translate(-8.32 -2.99)"/><path class="cls-15" d="M449.46,354.44l-24.59-9.62-51.58-.07,1.11,49.85a8.68,8.68,0,0,0,2.19,5.55l11.25,12.58,57.87-1.62a2,2,0,0,0,2-1.95Z" transform="translate(-8.32 -2.99)"/><path class="cls-16" d="M373.29,344.75l1.11,49.85a8.68,8.68,0,0,0,2.19,5.55l11.25,12.58,1.38-58.12Z" transform="translate(-8.32 -2.99)"/><polygon class="cls-17" points="364.96 341.77 416.55 341.83 441.14 351.46 380.91 351.69 364.96 341.77"/><polygon class="cls-16" points="398.33 341.8 416.47 351.54 416.88 408.66 408.32 408.98 407.36 352.06 390.61 341.79 398.33 341.8"/><path d="M421.14,410.9c.29-18.4-.9-36.83-.61-55.23a.07.07,0,0,0-.15,0c-.29,18.4.9,36.83.6,55.23a.08.08,0,0,0,.16,0Z" transform="translate(-8.32 -2.99)"/><path d="M417.5,352.49c-4.48-2.78-9.33-4.94-13.81-7.72-.09,0-.16.09-.08.14,4.48,2.77,9.33,4.93,13.81,7.71.08.05.16-.08.08-.13Z" transform="translate(-8.32 -2.99)"/><polygon class="cls-18" points="402.9 355.98 402.51 364.05 385.25 364.05 384.99 355.7 402.9 355.98"/><path d="M409.23,364c0-.78-.09-2.22-1.1-2.29a.08.08,0,0,0-.07,0c-.34.65-.11,2-1.31,1.84,1.42.18-2-1.24-.82-.82-.2-.08-.45.12-.61.14-.58.55-1.05.58-1.41.08l0,0a1.83,1.83,0,0,1-.52,0c-.73-.12-2.15.64-3.1.67-1.12.05-2.26-.06-3.38-.09a.08.08,0,0,0,0,.16,33.83,33.83,0,0,0,5.23,0c.9-.12.78-.46,2-.29-1.9-.26,2.11.74.69.42a.11.11,0,0,0,.08,0c.42-.49.19-.37,1-.25s.62.56,1,.63,0,.24.57.23a.08.08,0,0,0,.06,0,3.54,3.54,0,0,0,.16-.34q-.1-1.93,1.38,0c0,.1.15.1.15,0Z" transform="translate(-8.32 -2.99)"/><path d="M414.78,354.47c-7.57-.12-15.14.23-22.71.11a.12.12,0,0,0,0,.24c7.57.11,15.14-.24,22.71-.12a.12.12,0,0,0,0-.23Z" transform="translate(-8.32 -2.99)"/><path d="M389.33,355.65a2.77,2.77,0,0,0-.09,1.82.11.11,0,0,0,.22-.06,2.61,2.61,0,0,1,.09-1.7c.06-.13-.17-.2-.22-.06Z" transform="translate(-8.32 -2.99)"/><path d="M388.77,360.06l-1,50.08c0,.15.23.15.23,0l1-50.08a.12.12,0,0,0-.23,0Z" transform="translate(-8.32 -2.99)"/><path d="M388.31,354a8.71,8.71,0,0,1-2.52-1.41c-1.57-1-3.12-2-4.66-3-2.22-1.43-4.39-3-6.68-4.32-.13-.07-.25.13-.12.2,2.45,1.41,4.78,3.09,7.15,4.63,1.88,1.21,4.52,3.66,6.77,4.09.14,0,.21-.2.06-.23Z" transform="translate(-8.32 -2.99)"/><path d="M373.13,347.87c1,14.62.09,29.35,1.07,44,0,.15.24.15.23,0-1-14.62-.09-29.35-1.07-44,0-.14-.24-.14-.23,0Z" transform="translate(-8.32 -2.99)"/><path d="M444.59,354.9l-26-.53a.12.12,0,0,0,0,.23l26,.54a.12.12,0,0,0,0-.24Z" transform="translate(-8.32 -2.99)"/><path d="M421.09,344.65c-15.52-.28-31,.35-46.58.08-.15,0-.15.23,0,.23,15.53.28,31.06-.36,46.58-.08a.12.12,0,0,0,0-.23Z" transform="translate(-8.32 -2.99)"/><path d="M443,411c-17.48-.3-34.95,1.09-52.42.79a.12.12,0,0,0,0,.23c17.47.3,34.94-1.09,52.42-.79a.12.12,0,0,0,0-.23Z" transform="translate(-8.32 -2.99)"/><path class="cls-25" d="M427.32,337.45a84.44,84.44,0,0,0-3.75-9.2,306.47,306.47,0,0,1,42.88,17.56C453.16,342.53,440.24,339.81,427.32,337.45Z" transform="translate(-8.32 -2.99)"/><path class="cls-26" d="M466.45,345.81c-13.29-3.28-26.21-6-39.13-8.36-1.7,3-3.45,5.92-5.22,8.86C436,346.05,450.58,345.72,466.45,345.81Z" transform="translate(-8.32 -2.99)"/><path class="cls-26" d="M422.1,346.31l8.68.13q-.93-2.42-2-4.79Z" transform="translate(-8.32 -2.99)"/><path class="cls-25" d="M428.78,341.65a100.66,100.66,0,0,1,2,11.32c11-2.32,22.79-4.8,35.67-7.16C453.37,344.09,440.94,342.79,428.78,341.65Z" transform="translate(-8.32 -2.99)"/><path d="M423.62,328.69c1.07,2.43,3.15,5.16,3.51,7.82.18,1.35-.24,1.7-1,2.89l-3.41,5.66c-.08.13.13.25.21.12,1.34-2.23,3.15-4.52,4.17-6.91,1.22-2.9-2.14-7-3.31-9.7-.06-.14-.27,0-.21.12Z" transform="translate(-8.32 -2.99)"/><path d="M422.42,346.56c2.22-1.73,4.76-4.5,7.53-4.76,3.06-.28,6.73.63,9.77.93,8.9.88,17.88,1.64,26.7,3.2.15,0,.21-.21.06-.24-9.35-1.64-18.88-2.43-28.32-3.35-2.6-.25-6.53-1.44-9.1-.86-2.29.53-4.95,3.47-6.81,4.91-.12.09.05.26.17.17Z" transform="translate(-8.32 -2.99)"/><path d="M429.57,345.42a25.94,25.94,0,0,1,1.47,7.12.14.14,0,0,0,.16.12l17.73-3.21c.15,0,.08-.26-.07-.23l-11.06,2c-1.52.28-4.2,1.31-5.74,1-1.24-.23-.75.44-.93-1.54a22.48,22.48,0,0,0-1.32-5.36c-.05-.15-.29-.08-.24.06Z" transform="translate(-8.32 -2.99)"/><path d="M428.91,337.94c6.59.78,12.9,3.49,19.49,4.28.16,0,.16-.23,0-.24-6.59-.79-12.9-3.5-19.49-4.28-.16,0-.15.22,0,.24Z" transform="translate(-8.32 -2.99)"/><path class="cls-27" d="M134.48,348.67c-4.58-7.32,11.39.62,34.9,11.41s61.53,27.76,76.7,25.39,67-20.76,71.35-19.15,10.55,6.33,8,14.24S242.23,422.91,239,421.62,139,356,134.48,348.67Z" transform="translate(-8.32 -2.99)"/><path d="M248.07,413.7s-14.34,1.34-26.68-11-7.08-8-7.08-8l25.09,7L273.75,395Z" transform="translate(-8.32 -2.99)"/><path class="cls-27" d="M130.85,402.09c10.65,11.43,21.64,24.48,38,30.2s4.37-8.39,4.37-8.39Z" transform="translate(-8.32 -2.99)"/><path class="cls-27" d="M315.8,432.54c13.65,0,56.9-19.05,64.81-32.83l-105,31.36S296.75,432.54,315.8,432.54Z" transform="translate(-8.32 -2.99)"/><path class="cls-28" d="M314.48,461.16c13.63-1,28.74-2.64,28.42-13.38-.24-8.21-15.34-20.26-29.68-19.26-5.68.4-12.16-1.72-20.72-1.53-5.2.12-10.33-1.19-14.6-.42a106,106,0,0,0-11,2.54l-11.84,24.18S282.93,463.55,314.48,461.16Z" transform="translate(-8.32 -2.99)"/><path class="cls-29" d="M314.48,461.16c13.67,0,28.74-2.64,28.42-13.38-.24-8.21-15.34-20.26-29.68-19.26-5.68.4-12.16-1.72-20.72-1.53-5.2.12-10.33-1.19-14.6-.42,0,0-13.43,2.14-10.28,3.29,5.59,2,29.95,3.76,35.81,5,0,0-5.23,11.42-1.27,18.64C305.64,459.78,314.48,461.16,314.48,461.16Z" transform="translate(-8.32 -2.99)"/><path class="cls-29" d="M343.24,310.1c-.22-3.11-2.06-5.82-3.63-8.5-4.17-7.12-5.64-18-6.64-26.16-1.13-9.16.13-18.75-1.44-27.85-2.07-12-3.39-28.08-10.38-38.51-8.33-12.43-22.17-22.29-39.7-22.29l-59.37,1s-25.77.67-43.18,19.21c-15.07,16.05-17.76,54.55-20.7,79.27-.33,2.81-6.42,20.58-7,23.08s-3.88,3.62-2.83,6.86a4.28,4.28,0,0,0,3.44,2.89,2.11,2.11,0,0,1,1.37.45,1.67,1.67,0,0,1,.3,1c.88,11.25,6.34,20.95,12.66,30.06,8.24,11.77,20,26.7,20,26.7l21.69-20,64.62,11.63,23.67,4.26s40-31.79,42.38-49.44a14.2,14.2,0,0,1,2.14-6.71C341.91,314.59,343.46,313.12,343.24,310.1ZM194.1,340.65l-2.69-37.25s3.68,18.15,3.68,23.55S194.1,340.65,194.1,340.65Z" transform="translate(-8.32 -2.99)"/><path class="cls-29" d="M180.43,340.09c-2.77,4.91-8.3,6.45-8.92,11.06s1.54,19.67,11.07,24.89,38.11,8,32.57-2.45S180.43,340.09,180.43,340.09Z" transform="translate(-8.32 -2.99)"/><path class="cls-29" d="M304.8,346c6.76,1.23,8.92,2.76,10.14,6.15s.87,12.72-.05,14.87-20.23,19.55-31.6,21.39-12.49-6.11-11-11.35S304.8,346,304.8,346Z" transform="translate(-8.32 -2.99)"/><path d="M316.46,365.55a92.46,92.46,0,0,0,.39-12.23c0-.39-.63-.39-.61,0a92.46,92.46,0,0,1-.39,12.23c0,.39.57.39.61,0Z" transform="translate(-8.32 -2.99)"/><path class="cls-28" d="M279.05,369.07l17,4.06s40-31.79,42.38-49.44c0,0-4.16-10.32-14.84-12.18-8.43-1.46-17.63,6-17.63,6Z" transform="translate(-8.32 -2.99)"/><path class="cls-30" d="M233.09,95.45c-7.17,6.18-29.37,28.94-5.86,70.26,0,0,2.89,19.17-7.5,23.87a81.14,81.14,0,0,1-3-16.2,63.26,63.26,0,0,0-5.17-21.9c-4.11-10.38-8.08-22.67-8.64-29.79-.68-8.58,3.4-19.77,6.73-22.54,9.15-7.63,17-9.89,19.21-8.65S233.09,95.45,233.09,95.45Z" transform="translate(-8.32 -2.99)"/><path class="cls-28" d="M224.88,160.54s3.21,19.19-2.8,27.2c-1.08,1.44-12.76,1.55-12.76,1.55S211.46,233,246.53,233c31.85,0,39.9-45.51,39.9-45.51s-13.67,1.57-15.21.78c-3.9-2-5.55-5.81-6.23-13.86-.61-7.08-.47-13.71-.47-15,0-.66-2.17-.94-5.51-1C248.12,158.19,224.88,160.54,224.88,160.54Z" transform="translate(-8.32 -2.99)"/><path d="M253.17,176.65a25.25,25.25,0,0,0,11.35-17.31c0,1.31.33,19.89,3.46,25.46Z" transform="translate(-8.32 -2.99)"/><path d="M252,236.15c23-.07,31.72-23.81,36.33-42.44a.31.31,0,0,0-.59-.16c-4.54,18.35-13.05,41.92-35.74,42a.31.31,0,0,0,0,.61Z" transform="translate(-8.32 -2.99)"/><path d="M269.46,222.4a55.93,55.93,0,0,0,14.48-30.06c.06-.38-.52-.55-.58-.16A55.45,55.45,0,0,1,269,222c-.27.28.16.71.43.43Z" transform="translate(-8.32 -2.99)"/><path class="cls-31" d="M277.93,138.65c-.8,5.2-2.38,13.18-2.1,17.1.49,7,1.73,13.09,8.52,19,10.62,9.2,12.57,5.44,20.19,9,7.26,3.34,6.35,12.76-10.25,12.76-23.38,0-30.48-5.78-30.48-26.32C263.81,154.91,277.93,138.65,277.93,138.65Z" transform="translate(-8.32 -2.99)"/><path class="cls-31" d="M276.05,139.75s1.47,33.16,10.68,40.12c0,0,2.26.82.82-2s-9.08-11.59-9.68-40.91Z" transform="translate(-8.32 -2.99)"/><path class="cls-32" d="M204.86,369.93l1.71-26.69a4.85,4.85,0,0,1,4.85-4.53l80,.36a4.84,4.84,0,0,1,4.7,5.88l-6.72,30.58s-19.62,11.21-38.84,14.82-46-10.81-46-10.81Z" transform="translate(-8.32 -2.99)"/><path class="cls-33" d="M210.26,377.19s-.9-24.78.91-27.8,2.42-3.63,9.37-3,59.8,0,63.43,0c4.92,0,5.12,4,4.22,9-1.85,10.26-3.71,22.41-4.49,24-1.21,2.42-32.94,13.3-40.8,12.09s-30.82-8.46-30.82-8.46Z" transform="translate(-8.32 -2.99)"/><path class="cls-28" d="M271.66,381.82c-.41-1.87,1.94-4.15,4.65-5,4.3-1.33,13.43-4.12,13.43-4.12l3.62-14.47s2.81,4.42,4.29,5,6.56,1.47,7.1,5.89-.14,3.62-.14,3.62,2.41,2.55,2.15,4.29-21.31,13.53-22.51,14.2-13.13,1.61-16.75.27-2.54-3.62-2.54-3.62-1.74-.8-1.88-2.14,1.61-2.82,3.62-3.08C268.55,382.38,271.66,381.82,271.66,381.82Z" transform="translate(-8.32 -2.99)"/><path class="cls-27" d="M314.62,377.52C306.38,379,315.5,361,334,355.36s28.39-8.16,35.49-7.1S332.72,374.33,314.62,377.52Z" transform="translate(-8.32 -2.99)"/><path class="cls-34" d="M239.08,412s16.79-8.57,22.28-9.6,39.06-27.75,64.42-36,9.39-1.32,18-5.43,16.44-18.16,33.92-12.68,23.3,14.05,19.88,22.62-1.37,23.3-31.19,37.35-92.18,23.38-92.18,23.38S247.31,424.68,239.08,412Z" transform="translate(-8.32 -2.99)"/><path class="cls-28" d="M171.48,423.43c-4.52.84-22.18,2.77-20.32,12.75,1.35,7.31,15.26,20.69,29.48,20.69s36-9.08,41.19-7.95C221.83,448.92,196.8,418.74,171.48,423.43Z" transform="translate(-8.32 -2.99)"/><path class="cls-29" d="M221.83,448.92c-5.22-1.13-27,7.95-41.19,7.95s-28.13-13.38-29.48-20.69c-1.86-10,15.8-11.91,20.32-12.75,0,0,16.21,7.22,17.92,23.18l30.13-7.7Z" transform="translate(-8.32 -2.99)"/><path class="cls-34" d="M264.71,453.66l10.93-21.29s-3-9.35-8.53-8.37-5.19-1.63-5.19-1.63,1-4.9-5.19-2.94-9.68,1-11.06-1-45.29-28.07-56.35-33-39.66-27.42-39.66-27.42-15.91-20.56-35.27-11.75-22.82,21.87-13.14,37.21,40.46,28.39,49.79,31.66,76.31,37.2,81.49,39.81c4.58,2.31,10.74,3.22,24,3.4A9,9,0,0,0,264.71,453.66Z" transform="translate(-8.32 -2.99)"/><path class="cls-35" d="M245.33,456.28c-1.44.72-3.16,1.59-1,1.73s9.9,1.36,13.58-.18,9-3.56,12-14.5S277.29,431,277,428.79s-9.64-4.9-9.64-4.9a23.75,23.75,0,0,0-5,6.48c-1.19,2.38-7.63,15.18-12.24,22C247.44,456.32,245.33,456.28,245.33,456.28Z" transform="translate(-8.32 -2.99)"/><path class="cls-28" d="M209.18,372.82c9,1.64,10.77,2.91,10.94,4.79l.29,3.11s9.69.47,10.66,1a2.42,2.42,0,0,1,1.2,3.25s1.88.34,1.53,2.91-10.09,2.91-10.09,2.91-1.71,3.42-9.4,3.93-24.23-12.87-24.23-12.87-5-1.84-4-4.57,3.25-2.91,3.42-5.65-1.37-3.76,1.37-6.67,10.26-5.13,10.94-6a5.7,5.7,0,0,1,3.77-5.82v8.21l.34,9.24S205.41,372.14,209.18,372.82Z" transform="translate(-8.32 -2.99)"/><path class="cls-28" d="M217.08,133c-2.22-2.22-7.1-2.66-6.22,3.11s6.28,16.69,8.24,13.67S217.08,133,217.08,133Z" transform="translate(-8.32 -2.99)"/><path class="cls-28" d="M220.15,104.92c-2.25,2.25-7.07,29.06-.66,47.08s19.32,26.35,26.33,26.35c9,0,24.46-19.29,26.86-29.3s.93-38.89-3.16-45.2C259.91,89,233.79,91.28,220.15,104.92Z" transform="translate(-8.32 -2.99)"/><path class="cls-36" d="M239.27,160.26c1.48,2,3.57,4.55,7,4.55s6.76-4.67,6.76-4.67Z" transform="translate(-8.32 -2.99)"/><path class="cls-36" d="M237.46,159.58c-1.41-.55,3.26-2.08,5.25-1.63a12.27,12.27,0,0,1,3,1s3.08-1.36,4.53-1.27a30.26,30.26,0,0,1,5.15,1.45S246.51,163.11,237.46,159.58Z" transform="translate(-8.32 -2.99)"/><path class="cls-31" d="M244.79,97.39c5.81,6.78,15.26-.23,19.56,8,7.07,13.52,8.57,23,9.38,33.27.11,1.48,4.3,1.18,4-2.48-.63-8.59,6.85-28.33-5.73-48.3-6-9.48-16.75-15.69-26.18-13.43,0,0,.31,4.92.56,10.83C246.74,93.16,244.79,97.39,244.79,97.39Z" transform="translate(-8.32 -2.99)"/><path class="cls-28" d="M272.93,133.82c2.22-2.22,7.1-2.67,6.21,3.1s-6.27,16.7-8.24,13.67S272.93,133.82,272.93,133.82Z" transform="translate(-8.32 -2.99)"/><path class="cls-28" d="M203.55,361.13l-17.46,16.14s-11.75-14.93-20-26.7c-5.28-7.55-9.89-14.43-11.74-24.9,0,0,.44-5.77,12.17-9,14.33-3.91,23,7.38,27.79,17.37C198.43,342.66,203.55,361.13,203.55,361.13Z" transform="translate(-8.32 -2.99)"/><path d="M210.25,208.65a51.92,51.92,0,0,0,13.94,22.51c.28.27.71-.16.43-.43a51.2,51.2,0,0,1-13.78-22.24c-.12-.37-.71-.21-.59.16Z" transform="translate(-8.32 -2.99)"/><path d="M219.69,219.71c8,10.84,22.59,15.87,35.47,11.83.37-.11.21-.7-.16-.58-12.59,3.94-26.95-.94-34.79-11.55-.23-.31-.76,0-.52.3Z" transform="translate(-8.32 -2.99)"/><path d="M228.51,233a.31.31,0,0,0,0-.61.31.31,0,0,0,0,.61Z" transform="translate(-8.32 -2.99)"/><path d="M234.66,235.1a.31.31,0,0,0,0-.61.31.31,0,0,0,0,.61Z" transform="translate(-8.32 -2.99)"/><path d="M240.4,236.72l3.7.92c.37.1.54-.49.16-.58l-3.69-.93a.31.31,0,0,0-.17.59Z" transform="translate(-8.32 -2.99)"/><path d="M263.58,227.1a.3.3,0,0,0,0-.6.3.3,0,0,0,0,.6Z" transform="translate(-8.32 -2.99)"/><path d="M259.91,169.79c-2.27,4.81-10.06,8.42-15,8.4-5.35,0-11.82-3.9-15.15-8.08-.24-.31-.67.12-.43.43,3.51,4.41,10.58,8.83,16.41,8.46,5.11-.32,12.45-4.14,14.71-8.9.16-.35-.36-.66-.53-.31Z" transform="translate(-8.32 -2.99)"/><path d="M147.31,319.17c3.52-4.9,8.8-7.31,14.42-9,6.45-2,16.68-4.31,21.24,2.22.22.32.75,0,.52-.31-4.2-6-12.46-4.8-18.76-3.37-6.83,1.56-13.75,4.33-17.94,10.18-.23.32.3.62.52.3Z" transform="translate(-8.32 -2.99)"/><path d="M308.27,306.75c7.28-4,16.54-6,23.82-1,4.57,3.17,11.61,10,10.13,16.18-.09.38.5.55.59.17,1.49-6.25-5-12.79-9.47-16.18-7.66-5.83-17.39-4.12-25.38.28-.34.19,0,.71.31.52Z" transform="translate(-8.32 -2.99)"/><path d="M300.52,220.8a13.37,13.37,0,0,0-1.85,7.66c0,.38.63.39.61,0a12.62,12.62,0,0,1,1.77-7.35.31.31,0,0,0-.53-.31Z" transform="translate(-8.32 -2.99)"/><path d="M189.09,227.58a19.18,19.18,0,0,0,1.95,5.89c.19.34.71,0,.53-.31a18.54,18.54,0,0,1-1.89-5.74c-.06-.39-.65-.23-.59.16Z" transform="translate(-8.32 -2.99)"/><path d="M180.94,206.79A58.11,58.11,0,0,1,187,218.5c.14.36.73.2.59-.16a58.91,58.91,0,0,0-6.14-11.85c-.22-.33-.75,0-.53.3Z" transform="translate(-8.32 -2.99)"/><path d="M305,214.53a63.31,63.31,0,0,1,10.53-14.48c.27-.29-.16-.72-.43-.43a63.85,63.85,0,0,0-10.62,14.6c-.19.35.34.66.52.31Z" transform="translate(-8.32 -2.99)"/><path d="M192.94,241.74c-.2,7.26-3.46,13.67-4.47,20.77-1.09,7.62-.08,15.77.57,23.39,1.33,15.63,3.8,31.25,3.9,47a.31.31,0,0,0,.61,0c-.1-15.71-2.57-31.33-3.91-47-.68-8-1.81-16.81-.32-24.82,1.21-6.57,4-12.56,4.23-19.34a.31.31,0,0,0-.61,0Z" transform="translate(-8.32 -2.99)"/><path d="M299.49,234.2c.15,6.43,1.71,12.68,2.24,19.07a161.62,161.62,0,0,1-.08,20.29c-.57,12.95-1.88,25.85-2.16,38.82a.3.3,0,0,0,.6,0c.28-13,1.6-25.87,2.17-38.82.29-6.72.66-13.59.08-20.29-.56-6.39-2.1-12.64-2.25-19.07a.3.3,0,0,0-.6,0Z" transform="translate(-8.32 -2.99)"/><path d="M257,156.81c-3.55,4.37-18.9,6-22.07.43a.31.31,0,0,0-.53.31c1.87,3.28,7.27,3.46,10.56,3.47,4,0,9.72-.39,12.47-3.78.25-.3-.18-.73-.43-.43Z" transform="translate(-8.32 -2.99)"/><path d="M230.53,134a2.3,2.3,0,0,0-.46,2.2c.13.51.53,1.33,1.17,1.27s.89-1.25.9-1.82a1.6,1.6,0,0,0-1.38-1.79.31.31,0,0,0-.29.23,2.26,2.26,0,0,0-.05,1.9,1,1,0,0,0,1,.49.73.73,0,0,0,.55-.88,1.16,1.16,0,0,0-.84-1c-.36-.14-.52.45-.16.59.17.06.48.27.41.51s-.36.09-.47-.06c-.27-.41,0-1,.11-1.44l-.29.22c.66.06.8.79.77,1.32,0,.28-.11,1.27-.52.95a1.81,1.81,0,0,1,0-2.31c.26-.29-.17-.72-.43-.43Z" transform="translate(-8.32 -2.99)"/><path d="M258.34,134a2.3,2.3,0,0,0-.46,2.2c.13.51.52,1.33,1.17,1.27s.89-1.25.9-1.82a1.6,1.6,0,0,0-1.38-1.79.31.31,0,0,0-.29.23,2.22,2.22,0,0,0,0,1.9,1,1,0,0,0,1,.49.73.73,0,0,0,.55-.88,1.17,1.17,0,0,0-.84-1c-.36-.14-.52.45-.16.59.17.06.48.27.41.51s-.36.09-.47-.06c-.27-.41,0-1,.11-1.44l-.29.22c.66.06.8.79.76,1.32,0,.28-.1,1.27-.51.95a1.82,1.82,0,0,1-.06-2.31c.27-.29-.16-.72-.42-.43Z" transform="translate(-8.32 -2.99)"/><path d="M241.5,149.38c.78.87,2.5,2.51,3.82,2.19s2.36-2.38,3-3.35c.22-.32-.3-.63-.52-.31-.41.6-.83,1.18-1.29,1.74s-.7,1-1.55,1c-1.26.09-2.24-.84-3-1.75-.26-.29-.69.14-.43.43Z" transform="translate(-8.32 -2.99)"/><path d="M222.76,126.75a7.85,7.85,0,0,1,4.92-4.38c3-.93,5.62.32,7.6,2.64.25.3.68-.13.43-.43-2.12-2.48-5-3.81-8.19-2.8a8.55,8.55,0,0,0-5.35,4.81c-.14.36.44.52.59.16Z" transform="translate(-8.32 -2.99)"/><path d="M253.77,122.84c2.51-2,5.59-2.93,8.6-1.49a5.89,5.89,0,0,1,3.42,3.9c.08.38.66.22.59-.16a6.67,6.67,0,0,0-4.34-4.54c-3.15-1.21-6.16-.12-8.7,1.86-.31.24.13.67.43.43Z" transform="translate(-8.32 -2.99)"/><path class="cls-31" d="M236.1,99.4c-6.92,0-7.18-11.66-19.06-2s-14.25,33.6-5.59,45.23,10,19.81,11.52,27.73-1.51,35.07-15.11,47.93-28-5.74-24.23-15.87c3-8,11.11-10.14,13.58-26,0,0-10.55,21.12-14.26,21.61s24.77-30.45,18.82-63.22c-3.85-21.21,14-60.47,42.21-61.15,0,0,10.05-2,8.81,10.66-.56,5.71-2.93,11.49-3.54,13.59C248.51,100.46,236.1,99.4,236.1,99.4Z" transform="translate(-8.32 -2.99)"/><path d="M275.33,137a31.63,31.63,0,0,0-1.13,6.11c0,.39.58.39.61,0a30.15,30.15,0,0,1,1.11-5.95.31.31,0,0,0-.59-.16Z" transform="translate(-8.32 -2.99)"/><path d="M213.9,135.59a7.92,7.92,0,0,1,2.07,5.6.31.31,0,0,0,.61,0,8.57,8.57,0,0,0-2.26-6c-.26-.29-.69.14-.42.43Z" transform="translate(-8.32 -2.99)"/><path class="cls-37" d="M234.76,137.84c-5.33-.37-12.44-.46-12.21,2.77s3,6.45,9.45,5.76,8.29-2.08,8.29-3S241.45,138.3,234.76,137.84Z" transform="translate(-8.32 -2.99)"/><path class="cls-38" d="M250.39,140.71a15.61,15.61,0,0,0-7.14-.77,23.84,23.84,0,0,1-2.41.46l-.35.13c-.41.33-.55.11-.41-.65-1.89-.81-2.79-1.92-5.07-2.36a27.5,27.5,0,0,0-9.53-.19c-1.14.22-2.69.52-3.11,1.85s.91,2.77,0,.91c-1.61-3.14-4.23-6-6.26-8.89-.23-.32-.75,0-.53.31l7.07,10a.3.3,0,0,0,.52-.31c-1.65-3.83,6.38-3.42,7.77-3.4,3,0,7.57,0,9.11,3.32a.31.31,0,0,0,.42.11c2.24-1.6,7.37-1,9.8,0,.36.15.52-.43.16-.58Z" transform="translate(-8.32 -2.99)"/><path class="cls-37" d="M255.83,137.84c5.33-.37,12.44-.46,12.21,2.77s-3,6.45-9.45,5.76-8.3-2.08-8.3-3S249.14,138.3,255.83,137.84Z" transform="translate(-8.32 -2.99)"/><path class="cls-38" d="M250.61,141.08c1.21-3,5.64-3.12,8.25-3.25,1.38-.07,10.27-.47,8.6,3.4a.3.3,0,0,0,.52.31l6.39-8.75c.23-.32-.29-.62-.52-.31L269.11,139a10.14,10.14,0,0,0-1.18,1.62c-.41.92,0,.15,0,.26-.19-.89,1,.39.2-1.77-1.22-3.15-8.72-2-11-1.77-2.66.26-6.08.87-7.19,3.61-.15.36.44.52.59.16Z" transform="translate(-8.32 -2.99)"/><path d="M221.62,195.18a152.49,152.49,0,0,1,16.55.72c3.05.35,5.54,2.25,8.61,2.62.39,0,.39-.56,0-.61-3.38-.4-5.92-2.37-9.36-2.69-5.25-.48-10.53-.64-15.8-.65a.31.31,0,0,0,0,.61Z" transform="translate(-8.32 -2.99)"/><path d="M258.34,195.18q8.19-.06,16.31-.91c.38,0,.39-.65,0-.61q-8.13.85-16.31.91a.31.31,0,0,0,0,.61Z" transform="translate(-8.32 -2.99)"/><path d="M158.59,297.35a22.62,22.62,0,0,1,6.49,1.45c.37.14.52-.45.16-.59a23.38,23.38,0,0,0-6.65-1.47c-.39,0-.39.58,0,.61Z" transform="translate(-8.32 -2.99)"/><path d="M154.52,326.55c1.39-8.49,16.31-11.2,23.4-9.05,5.59,1.69,10.55,6.72,13.45,11.51a.31.31,0,0,0,.53-.31c-3.19-5.26-8.94-11.1-15.35-12.05-7.51-1.11-21.12.6-22.61,9.74-.07.39.52.55.58.16Z" transform="translate(-8.32 -2.99)"/><path d="M303.16,320.13c4.82-6,14.85-9.68,22.35-8.12,5.7,1.18,10.22,7.26,13.15,12,.21.33.73,0,.52-.31-3-4.87-7.62-11.27-13.58-12.36-7.74-1.43-17.91,2.15-22.87,8.35-.24.3.19.74.43.43Z" transform="translate(-8.32 -2.99)"/><path d="M327.7,294.46l3.29-.37c.39,0,.39-.65,0-.61l-3.29.38c-.39,0-.39.65,0,.6Z" transform="translate(-8.32 -2.99)"/><path d="M200.13,365.1a14,14,0,0,0,6.22,6.52c3,1.64,13,3.13,13.52,6.77,0,.38.63.22.58-.17-.4-2.88-3.69-3.42-6-4.16-5.5-1.75-11.2-3.62-13.77-9.26-.16-.36-.68-.05-.52.3Z" transform="translate(-8.32 -2.99)"/><path d="M186.43,378.41c.71-1.16.64-2.27,1.06-3.56.51-1.55,1.73-2.43,2.33-3.88s-.12-2.51,0-3.92c.38-4.6,5.5-4.92,9-4.93a.3.3,0,0,0,0-.6c-3.3,0-7.75.23-9.23,3.83a7.36,7.36,0,0,0-.23,2.73c-.21,3.08-.61,3-1.52,4.6s-.95,3.87-1.91,5.43c-.2.33.32.64.53.3Z" transform="translate(-8.32 -2.99)"/><path d="M195.36,375.2c6,5,12.87,5.58,20.4,5.53a.31.31,0,0,0,0-.61c-7.31.06-14.16-.47-20-5.35-.29-.25-.73.17-.43.43Z" transform="translate(-8.32 -2.99)"/><path d="M193.88,383.32c7.34,2.54,13.81,5,21.76,4.43,2.31-.17,16.35-.75,16.82-3.13.08-.38-.5-.54-.58-.16-.18.87-7,1.57-7.92,1.71a67.75,67.75,0,0,1-13.25,1.11c-5.8-.24-11.23-2.67-16.67-4.55-.37-.13-.53.46-.16.59Z" transform="translate(-8.32 -2.99)"/><path d="M207.83,391.8c2.64-.42,5.34.14,8,0s5.57-.41,8.35-.61c.39,0,.39-.64,0-.61-3.11.23-6.24.56-9.36.68-2.41.09-4.75-.39-7.15,0-.38.06-.22.64.16.58Z" transform="translate(-8.32 -2.99)"/><path d="M202.83,360.43a3.08,3.08,0,0,0,1.37,1.64,1.41,1.41,0,0,0,1.65-.31c.26-.29-.17-.72-.43-.43-.83.95-1.75-.55-2.07-1.2-.17-.35-.69-.05-.52.3Z" transform="translate(-8.32 -2.99)"/><path class="cls-28" d="M271.2,381.37c2.95,1.72,20.93.95,21.85.53a7.21,7.21,0,0,0,2.07-1.63l6.84-6.82" transform="translate(-8.32 -2.99)"/><path d="M264.5,388.88c6.91-.19,14.32,1.11,21.08-.69a.31.31,0,0,0-.16-.59c-6.7,1.79-14.07.48-20.92.68a.3.3,0,0,0,0,.6Z" transform="translate(-8.32 -2.99)"/><path d="M283.4,375.27a18.29,18.29,0,0,1,4.16-1.18,9.78,9.78,0,0,0,2.51-.33,8.64,8.64,0,0,0,1.75-1.67,35.3,35.3,0,0,1,3.83-3.18c.32-.23,0-.76-.3-.53-1.73,1.26-3.15,3-4.86,4.18s-5.12,1.26-7.25,2.13c-.36.14-.2.73.16.58Z" transform="translate(-8.32 -2.99)"/><path d="M293.31,359c2.18.31,3.35,3,5.12,4.14,2.29,1.52,5.27,2.45,5.81,5.54.07.39.66.22.59-.16-.48-2.73-2.75-3.95-5-5.22a14.41,14.41,0,0,1-3.76-3.28,4.08,4.08,0,0,0-2.64-1.61c-.38,0-.55.53-.16.59Z" transform="translate(-8.32 -2.99)"/><path d="M224.49,285.37q17.77-1.74,35.63-2.12a.3.3,0,0,0,0-.6q-17.87.36-35.63,2.11c-.39,0-.39.65,0,.61Z" transform="translate(-8.32 -2.99)"/><path d="M125.77,395c19.12,11.31,39.08,20.86,59.38,29.83,10,4.42,20,8.78,30,13.33,10.68,4.88,21.07,10.56,32.08,14.67.36.14.52-.45.16-.58C235.88,448,225,442,213.83,436.91c-9.91-4.51-19.9-8.84-29.85-13.25-19.8-8.76-39.25-18.14-57.9-29.17-.34-.2-.65.33-.31.52Z" transform="translate(-8.32 -2.99)"/><path d="M260.93,445.63a194.26,194.26,0,0,0,11.74-21.3c.17-.35-.35-.66-.52-.31a194.4,194.4,0,0,1-11.74,21.31c-.21.33.32.63.52.3Z" transform="translate(-8.32 -2.99)"/><path d="M241.56,410.87a336.14,336.14,0,0,0,33.69,16.46c.36.15.51-.44.16-.59a333.26,333.26,0,0,1-33.54-16.4.31.31,0,0,0-.31.53Z" transform="translate(-8.32 -2.99)"/><path d="M266.31,400.41a241.9,241.9,0,0,1,40.6-25.25c6.38-3.11,12.9-6.25,19.84-7.9a38.37,38.37,0,0,0,11.7-4.85.3.3,0,0,0-.31-.52c-4.4,2.67-8.49,3.92-13.36,5.22-6.3,1.68-12.35,4.68-18.18,7.53A243,243,0,0,0,266,399.89c-.3.23,0,.76.31.52Z" transform="translate(-8.32 -2.99)"/><path d="M295.11,338.23a44.29,44.29,0,0,1,5.39-8.89c.24-.3-.19-.74-.43-.43a45.32,45.32,0,0,0-5.49,9c-.16.35.36.66.53.31Z" transform="translate(-8.32 -2.99)"/><path d="M206.85,369.78l-.24-15.57c0-2.91-1.24-18.12,5.94-15.69.37.13.53-.46.17-.58-4.52-1.53-6.05,3.34-6.56,6.93-1.14,8,0,16.84.08,24.91a.31.31,0,0,0,.61,0Z" transform="translate(-8.32 -2.99)"/><path d="M217,339.39c6.92.34,13.94,0,20.86-.11,4.49-.06,9-.12,13.47-.25,1.95,0,4.47.23,6.36-.37.37-.11.21-.7-.16-.58-2.08.65-4.85.31-7,.37-4.57.12-9.14.18-13.71.23-6.58.08-13.26.43-19.84.1-.39,0-.39.59,0,.61Z" transform="translate(-8.32 -2.99)"/><path d="M265.05,339.38a.31.31,0,0,0,0-.61.31.31,0,0,0,0,.61Z" transform="translate(-8.32 -2.99)"/><path d="M271.44,339.37c5.2-.48,21.53-4.14,23.81,2.28.48,1.37-.42,4.35-.57,5.71q-.44,3.76-1,7.5c-.57,3.79-1.25,7.55-2,11.3-.08.38.51.54.58.16,1-5,1.88-10.08,2.55-15.16.4-3,2.6-9.45.43-12.06-1.29-1.55-5.62-1.34-7.5-1.41-5.43-.2-10.91.57-16.31,1.07-.39,0-.39.64,0,.61Z" transform="translate(-8.32 -2.99)"/><path d="M232.6,390.18c5,2,10.09,1.26,15.24.48a102.37,102.37,0,0,0,15.52-3.25.3.3,0,0,0-.16-.58,96.16,96.16,0,0,1-13.12,2.86c-5.72,1-11.75,2.16-17.32-.1-.36-.14-.51.44-.16.59Z" transform="translate(-8.32 -2.99)"/><path d="M275.06,432c2.32-1.27,6-1.42,8.55-2l19.86-4.26c15.88-3.4,31.78-6.81,47.57-10.62.38-.09.22-.68-.16-.59-16.21,3.91-32.52,7.4-48.83,10.9-6.47,1.38-12.94,2.75-19.41,4.16-2.37.52-5.72.67-7.89,1.86-.34.19,0,.71.31.52Z" transform="translate(-8.32 -2.99)"/><path d="M368.61,408.13C380,401.59,392.4,394,395.68,380.31c.77-3.22,1.35-6.36,2.41-9.51a14.44,14.44,0,0,0,1-6.74c-.67-5.24-4.75-8.37-8.79-11.26-.31-.23-.62.3-.3.53,5.76,4.11,10.33,9.1,7.73,16.62-1.5,4.36-2,9-3.57,13.29C390,395,378.55,401.73,368.31,407.61a.3.3,0,0,0,.3.52Z" transform="translate(-8.32 -2.99)"/><path d="M98.41,379.54c6.86,10.82,19.6,18.22,30.38,24.52a235.57,235.57,0,0,0,37.35,18c.37.14.53-.45.16-.58a235.07,235.07,0,0,1-36-17.27c-11.11-6.41-24.29-13.88-31.34-25-.21-.33-.73,0-.52.31Z" transform="translate(-8.32 -2.99)"/><path d="M133.76,347.15c15.11,5.88,24.7,20,38.32,28.28a.3.3,0,0,0,.3-.52c-13.67-8.31-23.27-22.44-38.46-28.35-.36-.14-.52.45-.16.59Z" transform="translate(-8.32 -2.99)"/><path d="M291.87,430.27c9,.75,18.24.46,27.15,2.37,4.65,1,8.1,3.72,12.16,6.07,5.22,3,5.23,9.32,4.23,14.83-.07.39.52.55.59.17.68-3.77,1.25-9.68-1.14-13-1.15-1.58-3.14-2.36-4.78-3.3-2.35-1.35-4.48-3.2-7-4.25-9.39-4-21.28-2.67-31.23-3.5-.39,0-.39.57,0,.61Z" transform="translate(-8.32 -2.99)"/><path d="M300.92,443.58c-.4,4.69-.36,9.14,3.49,12.36,3.65,3.07,8.09,5.46,12.92,5.57a.31.31,0,0,0,0-.61c-4.44-.1-8.27-2.23-11.76-4.83-4.28-3.18-4.46-7.58-4-12.49,0-.39-.57-.39-.61,0Z" transform="translate(-8.32 -2.99)"/><path d="M274.85,433.36c9.21.48,18.4.9,27.49,2.6.38.07.54-.51.16-.59-9.14-1.7-18.39-2.14-27.65-2.61-.39,0-.39.58,0,.6Z" transform="translate(-8.32 -2.99)"/><path d="M248.42,458.71c5-.31,11.5.83,15-3.51a42.4,42.4,0,0,0,7.43-15.72.3.3,0,0,0-.58-.17,44.78,44.78,0,0,1-5.67,13.15c-2.09,3.21-4.39,4.58-8.23,5.16-2.57.39-5.31.32-7.91.48-.39,0-.39.63,0,.61Z" transform="translate(-8.32 -2.99)"/><path d="M249.75,453.06A70.17,70.17,0,0,0,258,440.27c2.59-5.21,4.31-10.67,8.52-14.87.28-.28-.15-.71-.42-.43-3.44,3.43-5.26,7.66-7.24,12a72.56,72.56,0,0,1-9.58,15.62c-.24.31.19.74.43.43Z" transform="translate(-8.32 -2.99)"/><path d="M154.87,427.91c-7.7,5.75-1.92,14.53,3.52,19.6a36.65,36.65,0,0,0,28.24,9.66c.39,0,.39-.64,0-.61a35.66,35.66,0,0,1-22-5.08c-6.62-4.06-19.31-15.7-9.47-23.05.31-.23,0-.76-.31-.52Z" transform="translate(-8.32 -2.99)"/><path d="M189,446.74c3,.28,6.64-1,9.56-1.67,3.42-.74,6.86-1.73,10.33-2.22.38-.05.22-.64-.17-.58-3.19.45-6.35,1.35-9.49,2s-7,2.12-10.23,1.82c-.39,0-.39.58,0,.61Z" transform="translate(-8.32 -2.99)"/><path d="M177,426.42c5.8,5.34,10.7,10.94,12.27,18.89.07.38.66.22.58-.16-1.58-8.06-6.53-13.74-12.42-19.16-.28-.26-.71.17-.43.43Z" transform="translate(-8.32 -2.99)"/><path d="M193.18,456.13l2.91-.38c.38-.06.39-.66,0-.61l-2.91.39c-.38.05-.38.65,0,.6Z" transform="translate(-8.32 -2.99)"/><path d="M200.17,454.61c7.15-1.22,13.92-4.59,21.08-5.81.39-.07.22-.66-.16-.59-7.16,1.22-13.93,4.59-21.09,5.82-.38.06-.22.65.17.58Z" transform="translate(-8.32 -2.99)"/><path d="M159.25,448.77c2.76,1.43,5.13,3,8.23,3.36a80.76,80.76,0,0,0,11.64.18c8.92-.29,18.4-.86,26.91-3.78.37-.12.21-.71-.16-.58-8.11,2.78-17,3.37-25.55,3.71-3.52.14-7.06.21-10.58,0-4.06-.22-6.53-1.55-10.19-3.45-.34-.18-.65.35-.3.53Z" transform="translate(-8.32 -2.99)"/><path d="M212.66,447.72a10.55,10.55,0,0,1,3.29-1.05c.39-.06.23-.64-.16-.59a11,11,0,0,0-3.44,1.12c-.35.18,0,.7.31.52Z" transform="translate(-8.32 -2.99)"/><path d="M266.7,457.39c5.92,2.6,13.18,2.05,19.45,3.26.38.07.55-.52.16-.59-6.25-1.2-13.42-.61-19.3-3.2-.36-.15-.67.37-.31.53Z" transform="translate(-8.32 -2.99)"/><path d="M327,460.65c3.79-.25,8.22-.91,11.4-3.17,3-2.15,3-5.76,3.52-9.14.06-.39-.52-.55-.58-.17-.56,3.47-.58,7.21-3.93,9.22-3,1.81-7,2.42-10.41,2.66-.39,0-.39.63,0,.6Z" transform="translate(-8.32 -2.99)"/><path d="M347.1,358.9c6.18-4.09,13.14-11.16,21-11.13,5.95,0,12.08,2.52,17.71,4.22a.31.31,0,0,0,.16-.59c-5.92-1.78-12.61-4.63-18.92-4.24-7.61.47-14.23,7.22-20.25,11.22-.33.21,0,.74.3.52Z" transform="translate(-8.32 -2.99)"/><path d="M247.6,95.32c.6-4.84,1-9.7,1.14-14.58.06-2.3.76-5.15-1.27-6.67-.32-.24-.62.29-.31.52,2.14,1.6.9,8.57.77,10.77-.2,3.33-.53,6.65-.94,10-.05.39.56.39.61,0Z" transform="translate(-8.32 -2.99)"/><path class="cls-15" d="M78.68,397.27l20.95-8.2,43.93-.06-.95,42.46a7.34,7.34,0,0,1-1.87,4.73l-9.58,10.71-49.28-1.38a1.73,1.73,0,0,1-1.67-1.66Z" transform="translate(-8.32 -2.99)"/><path class="cls-16" d="M143.56,389l-.95,42.46a7.34,7.34,0,0,1-1.87,4.73l-9.58,10.71L130,397.4Z" transform="translate(-8.32 -2.99)"/><polygon class="cls-17" points="135.24 386.03 91.31 386.08 70.36 394.28 121.66 394.48 135.24 386.03"/><polygon class="cls-16" points="106.82 386.06 91.37 394.35 91.03 443 98.31 443.27 99.13 394.79 113.39 386.05 106.82 386.06"/><path d="M103,445.35c-.24-15.68.75-31.36.52-47,0-.21-.33-.21-.32,0,.23,15.68-.76,31.36-.52,47a.16.16,0,0,0,.32,0Z" transform="translate(-8.32 -2.99)"/><path d="M106,395.79c3.81-2.36,7.94-4.2,11.76-6.56.17-.11,0-.39-.16-.28-3.82,2.36-8,4.2-11.76,6.57a.16.16,0,1,0,.16.27Z" transform="translate(-8.32 -2.99)"/><polygon class="cls-18" points="102.93 398.13 103.26 405 117.96 405.01 118.19 397.89 102.93 398.13"/><path d="M113.17,405.39q1.06-1.54,1,.06c0,.1.09.21.14.31a.16.16,0,0,0,.14.08c.84,0,1.24-1.58,2.13-.55a.18.18,0,0,0,.16,0c.51-.12.14-.25.62-.38.93-.25.94.17,1.65.27a26.69,26.69,0,0,0,4.47,0c.21,0,.21-.33,0-.32-1,0-1.93.11-2.88.07s-2-.65-2.61-.56a2.74,2.74,0,0,1-.5,0,.1.1,0,0,0-.07,0c-.28.4-.63.38-1-.05-.15,0-.43-.23-.66-.16.63-.21-1.55.79-.72.74-.83.05-.7-1.08-1-1.57a.17.17,0,0,0-.14-.08c-.91.07-1,1.33-1,2a.16.16,0,0,0,.32,0Z" transform="translate(-8.32 -2.99)"/><path d="M108.22,397.55c6.45-.11,12.89.2,19.34.1a.17.17,0,0,0,0-.33c-6.45.1-12.89-.2-19.34-.1a.17.17,0,0,0,0,.33Z" transform="translate(-8.32 -2.99)"/><path d="M129.65,398.36a2.14,2.14,0,0,1,.07,1.41c-.05.2.26.29.31.09a2.44,2.44,0,0,0-.07-1.58c-.08-.19-.39-.11-.31.08Z" transform="translate(-8.32 -2.99)"/><path d="M130.11,402.05,131,444.7c0,.21.33.21.32,0l-.87-42.65a.17.17,0,0,0-.33,0Z" transform="translate(-8.32 -2.99)"/><path d="M130.83,397.13c1.93-.36,4.17-2.45,5.78-3.49,2-1.3,4-2.74,6.09-3.94a.16.16,0,0,0-.16-.28c-1.95,1.13-3.8,2.46-5.69,3.68q-1.89,1.23-3.8,2.42a8.21,8.21,0,0,1-2.3,1.3c-.21,0-.12.35.08.31Z" transform="translate(-8.32 -2.99)"/><path d="M143.43,391.67c-.8,12.45-.11,25-.91,37.45,0,.2.31.2.33,0,.8-12.46.1-25,.9-37.45,0-.21-.31-.21-.32,0Z" transform="translate(-8.32 -2.99)"/><path d="M82.83,397.92l22.13-.46a.16.16,0,0,0,0-.32l-22.13.46a.16.16,0,0,0,0,.32Z" transform="translate(-8.32 -2.99)"/><path d="M102.84,389.18c13.23-.23,26.45.3,39.68.07.2,0,.2-.33,0-.32-13.23.23-26.45-.3-39.68-.07a.16.16,0,0,0,0,.32Z" transform="translate(-8.32 -2.99)"/><path d="M84.17,445.71c14.88-.25,29.76.92,44.65.68.2,0,.2-.33,0-.33-14.89.25-29.77-.92-44.65-.67a.16.16,0,0,0,0,.32Z" transform="translate(-8.32 -2.99)"/><path class="cls-15" d="M401.54,401.59l-18-6.14-37,1.58,2.37,35.76a6.23,6.23,0,0,0,1.75,3.92l8.47,8.67,41.5-3a1.45,1.45,0,0,0,1.34-1.46Z" transform="translate(-8.32 -2.99)"/><path class="cls-16" d="M346.55,397l2.37,35.76a6.23,6.23,0,0,0,1.75,3.92l8.47,8.67-.85-41.78Z" transform="translate(-8.32 -2.99)"/><polygon class="cls-17" points="338.22 394.05 375.26 392.47 393.22 398.6 349.99 400.67 338.22 394.05"/><polygon class="cls-16" points="362.18 393.02 375.51 399.44 377.61 440.44 371.47 440.94 368.99 400.1 356.64 393.26 362.18 393.02"/><path d="M383,443c-.39-13.22-1.79-26.41-2.18-39.64a.06.06,0,0,0-.11,0c.39,13.23,1.79,26.42,2.18,39.64a.06.06,0,0,0,.11,0Z" transform="translate(-8.32 -2.99)"/><path d="M378.53,401.19c-3.3-1.85-6.85-3.25-10.15-5.1a.06.06,0,0,0-.06.1c3.3,1.85,6.85,3.25,10.16,5.1a.06.06,0,0,0,0-.1Z" transform="translate(-8.32 -2.99)"/><polygon class="cls-18" points="365.91 403.06 365.88 408.86 353.49 409.41 353.04 403.42 365.91 403.06"/><path d="M373,409.71c0-.55-.13-1.59-.86-1.61a.05.05,0,0,0-.05,0c.12-.27-.86,1.83-.22,1-1,1.4-.38.07-.91,0-1.19-.09.42-.28-.8-.09a.86.86,0,0,1-.76.32,2.39,2.39,0,0,0-.26-.21,1.28,1.28,0,0,1-.39,0c-.54-.06-1.52.52-2.21.58s-1.62,0-2.43,0c-.07,0-.07.12,0,.11a22.45,22.45,0,0,0,3.76-.15c.64-.11.55-.35,1.45-.27-1.37-.13,1.53.47.51.28,0,0,0,0,0,0,.29-.36.13-.27.72-.21s.47.39.74.42,0,.17.41.15a0,0,0,0,0,.05,0,.49.49,0,0,0,.1-.25q-.14-1.39,1-.06a.06.06,0,0,0,.11,0Z" transform="translate(-8.32 -2.99)"/><path d="M376.65,402.7c-5.44.15-10.86.65-16.3.8a.09.09,0,0,0,0,.17c5.44-.16,10.86-.65,16.3-.8a.09.09,0,0,0,0-.17Z" transform="translate(-8.32 -2.99)"/><path d="M358.41,404.35a2,2,0,0,0,0,1.31.08.08,0,0,0,.16-.05,1.89,1.89,0,0,1,0-1.22c0-.1-.13-.14-.16,0Z" transform="translate(-8.32 -2.99)"/><path d="M358.14,407.53l.84,36a.09.09,0,0,0,.17,0l-.84-36a.09.09,0,0,0-.17,0Z" transform="translate(-8.32 -2.99)"/><path d="M357.63,403.19a7,7,0,0,1-2-1c-1.1-.61-2.19-1.25-3.29-1.89-1.63-1-3.24-2-4.92-2.89a.09.09,0,0,0-.08.15c1.8.93,3.53,2.07,5.29,3.1,1.39.81,3.34,2.47,5,2.72.11,0,.15-.15.05-.17Z" transform="translate(-8.32 -2.99)"/><path d="M346.53,399.28c1.1,10.47,1.05,21.06,2.15,31.53,0,.1.18.11.17,0-1.1-10.47-1.05-21.06-2.15-31.53,0-.11-.18-.11-.17,0Z" transform="translate(-8.32 -2.99)"/><path d="M398.06,402.07l-18.67.44c-.11,0-.11.17,0,.16l18.67-.43a.09.09,0,0,0,0-.17Z" transform="translate(-8.32 -2.99)"/><path d="M380.87,395.45c-11.16.3-22.29,1.22-33.44,1.53-.11,0-.11.17,0,.16,11.15-.3,22.28-1.22,33.44-1.52a.09.09,0,0,0,0-.17Z" transform="translate(-8.32 -2.99)"/><path d="M398.71,442.41c-12.56.35-25.06,1.87-37.62,2.22-.1,0-.1.17,0,.17,12.56-.35,25.06-1.87,37.62-2.22.1,0,.1-.17,0-.17Z" transform="translate(-8.32 -2.99)"/><path class="cls-39" d="M51.16,435.59a94.24,94.24,0,0,1,4.09-10,335.19,335.19,0,0,0-46.8,19.16C23,441.13,37.06,438.17,51.16,435.59Z" transform="translate(-8.32 -2.99)"/><path class="cls-40" d="M8.45,444.71c14.5-3.58,28.61-6.54,42.71-9.12q2.79,4.85,5.69,9.67C41.64,445,25.78,444.62,8.45,444.71Z" transform="translate(-8.32 -2.99)"/><path class="cls-41" d="M56.85,445.26l-9.47.14q1-2.64,2.18-5.22Q53.27,442.75,56.85,445.26Z" transform="translate(-8.32 -2.99)"/><path class="cls-39" d="M49.56,440.18a111.8,111.8,0,0,0-2.17,12.35c-12-2.53-24.88-5.24-38.94-7.82C22.73,442.84,36.29,441.42,49.56,440.18Z" transform="translate(-8.32 -2.99)"/><path d="M55,425.9c-1.28,2.91-4.95,7.41-3.61,10.58,1.11,2.62,3.08,5.11,4.55,7.55.09.14.32,0,.23-.14l-3.73-6.17c-.76-1.27-1.22-1.69-1-3.16.35-2.88,2.66-5.88,3.83-8.53.06-.15-.16-.29-.23-.13Z" transform="translate(-8.32 -2.99)"/><path d="M56.69,445.35c-2-1.57-4.94-4.81-7.4-5.36-2.79-.63-7.17.66-10,.94-10.3,1-20.7,1.86-30.89,3.66-.17,0-.1.28.07.25,9.66-1.71,19.52-2.54,29.28-3.5,3.29-.32,7-1.17,10.29-1s5.88,3.17,8.45,5.17c.13.1.32-.08.18-.18Z" transform="translate(-8.32 -2.99)"/><path d="M48.45,444.22a25.27,25.27,0,0,0-1.36,5.19c-.25,1.91.35,2.07-.93,2.37-1.62.39-4.83-.87-6.44-1.16l-12.07-2.18c-.17,0-.24.22-.07.25l19.35,3.5a.13.13,0,0,0,.16-.13,29,29,0,0,1,1.61-7.77c.06-.16-.2-.23-.25-.07Z" transform="translate(-8.32 -2.99)"/><path d="M49.43,435.86c-7.2.85-14.09,3.82-21.28,4.67-.17,0-.17.28,0,.26,7.2-.85,14.08-3.81,21.28-4.67.16,0,.17-.28,0-.26Z" transform="translate(-8.32 -2.99)"/><path class="cls-42" d="M215.64,458.77a134.81,134.81,0,0,0-4.41-14.94,481.36,481.36,0,0,1,64.11,34.11C255.14,470.74,235.4,464.48,215.64,458.77Z" transform="translate(-8.32 -2.99)"/><path class="cls-43" d="M275.34,477.94c-20.2-7.2-39.94-13.46-59.7-19.17-3.12,4.35-6.31,8.68-9.53,13C227.89,473.54,250.6,475.32,275.34,477.94Z" transform="translate(-8.32 -2.99)"/><path class="cls-44" d="M206.11,471.76l13.51,1.56c-.72-2.61-1.5-5.2-2.36-7.77Z" transform="translate(-8.32 -2.99)"/><path class="cls-42" d="M217.26,465.55a161.48,161.48,0,0,1,1.33,18c17.55-1.89,36.29-3.91,56.75-5.57C255.21,473.21,236,469.23,217.26,465.55Z" transform="translate(-8.32 -2.99)"/><path d="M211.13,444.53c1.21,3.74,3,7.34,3.91,11.17.82,3.41.19,3.48-1.61,5.88l-6.21,8.29c-.24.31.29.61.52.3,2.42-3.22,5.34-6.38,7.39-9.85,2.7-4.57-1.91-11.3-3.42-15.95-.12-.37-.71-.21-.58.16Z" transform="translate(-8.32 -2.99)"/><path d="M206.6,472.31c3.45-2.18,8.28-6.45,12.08-6.3,4.93.2,10.29,2,15.11,3,13.85,2.79,27.86,5.38,41.47,9.25a.31.31,0,0,0,.16-.59c-14.27-4-29-6.74-43.51-9.65-4.21-.85-9.52-2.86-13.83-2.72-3.71.11-8.66,4.54-11.78,6.51-.33.21,0,.73.3.52Z" transform="translate(-8.32 -2.99)"/><path d="M217.79,471.6A41.41,41.41,0,0,1,219,482.9a.3.3,0,0,0,.3.3L247.41,481c.38,0,.39-.64,0-.61l-17,1.34c-3,.23-6.4,1-9.41.74-1.78-.14-.93.52-1.53-.67-.51-1,0-4.24-.15-5.58a45.18,45.18,0,0,0-.94-4.77c-.09-.38-.68-.22-.59.16Z" transform="translate(-8.32 -2.99)"/><path d="M218,459.88c10.17,2.2,19.56,7.53,29.73,9.73.38.08.54-.5.16-.58-10.16-2.2-19.56-7.54-29.73-9.74-.38-.08-.54.5-.16.59Z" transform="translate(-8.32 -2.99)"/><path class="cls-45" d="M151.71,293h-35a7.73,7.73,0,0,0-7.73,7.73V331.4a7.73,7.73,0,0,0,7.73,7.73h9.61l4.53,8.78a2.42,2.42,0,0,0,4.25.09l5.09-8.87h11.5a7.73,7.73,0,0,0,7.73-7.73V300.71A7.73,7.73,0,0,0,151.71,293Z" transform="translate(-8.32 -2.99)"/><path class="cls-46" d="M143.11,325a13.91,13.91,0,1,0-5.45,3.86,12.87,12.87,0,0,0,10.24,3.9A67,67,0,0,1,143.11,325Z" transform="translate(-8.32 -2.99)"/><circle class="cls-9" cx="116.63" cy="313.64" r="2.01"/><circle class="cls-9" cx="124.61" cy="313.64" r="2.01"/><circle class="cls-9" cx="132.51" cy="313.64" r="2.01"/><path d="M108.72,303.29c-.5-5.88,3-10,9.11-9.94,1.22,0,2.45.17,3.67.21,2.76.08,5.53,0,8.29,0H146.7a.16.16,0,0,0,0-.32H124.62c-8.22,0-17.17-1.09-16.22,10.05,0,.2.34.21.32,0Z" transform="translate(-8.32 -2.99)"/><path d="M149.71,293.35c3.36.15,7.18-.29,8.69,3.58a9.66,9.66,0,0,1,.51,3.3c.17,3.61.18,7.23.22,10.84q.09,9.81.07,19.63a.17.17,0,0,0,.33,0c0-8.34,0-16.69-.16-25,0-2.57.32-5.69-.37-8.2-1.29-4.68-5.29-4.27-9.29-4.45-.21,0-.21.32,0,.32Z" transform="translate(-8.32 -2.99)"/><path d="M108.3,317.28c.57,7.59-2.61,21.38,8.49,22.05.21,0,.21-.31,0-.32-10.72-.64-7.62-14.41-8.17-21.73,0-.2-.33-.2-.32,0Z" transform="translate(-8.32 -2.99)"/><path d="M123.84,339.3c.51,0,2-.3,2.34-.06a2.41,2.41,0,0,1,.34.68l1.48,2.95,2.32,4.65c.09.19.37,0,.27-.16L126.4,339a.16.16,0,0,0-.14-.08l-2.42.1c-.21,0-.21.33,0,.32Z" transform="translate(-8.32 -2.99)"/><path class="cls-47" d="M356.09,272.19h-35a7.73,7.73,0,0,0-7.73,7.73v30.69a7.73,7.73,0,0,0,7.73,7.73h9.61l4.53,8.78a2.41,2.41,0,0,0,4.24.09l5.1-8.87h11.5a7.73,7.73,0,0,0,7.73-7.73V279.92A7.73,7.73,0,0,0,356.09,272.19Z" transform="translate(-8.32 -2.99)"/><path d="M312.82,280.69q0,11,.36,22c.1,3.16.19,6.33.43,9.49.08,1-.05,2.59.5,3.45,2.4,3.75,9.42,2.72,12.95,2.78,2.8,0,2.91-.23,4.19,2.24l3.35,6.51c.1.18.37,0,.28-.16l-4.53-8.78a.15.15,0,0,0-.14-.08c-3.13-.05-6.37.13-9.49-.16-2.16-.2-5.5-.85-6.51-3.07-.57-1.27-.33-3.46-.4-4.8-.55-9.8-.66-19.64-.67-29.46a.16.16,0,0,0-.32,0Z" transform="translate(-8.32 -2.99)"/><path d="M338.46,272.62c5.68,0,11.38-.13,17.05,0,5.36.13,7.64,4.47,7.64,9.64v25.37a.16.16,0,0,0,.32,0V294.79c0-5.18,1.07-11.68-.25-16.73a8.27,8.27,0,0,0-6-5.76c-2.14-.44-4.8,0-7,0H338.46a.16.16,0,0,0,0,.32Z" transform="translate(-8.32 -2.99)"/><path d="M339.77,326.75c1.59-2.31,2.55-4.91,4-7.29.88-1.43,1.61-1.06,3.25-1.06h8.55a.16.16,0,0,0,0-.32h-9.77c-.45,0-1.16-.15-1.55.08-.95.55-1.66,2.86-2.12,3.78a37.42,37.42,0,0,1-2.65,4.65c-.12.17.16.33.28.16Z" transform="translate(-8.32 -2.99)"/></g></g></svg>