<svg xmlns="http://www.w3.org/2000/svg" viewBox="0 0 459.13 491.79"><defs><style>.cls-1{fill:#015127;}.cls-2{fill:#fff;}.cls-3{fill:#263238;}.cls-4{fill:#f5f5f5;}.cls-5{fill:#e0e0e0;}.cls-6{fill:#130d91;}.cls-7{fill:#e8505b;}.cls-8{fill:#455a64;}.cls-9{fill:#ebebeb;}.cls-10{opacity:0.3;}.cls-11{fill:#7681e2;}.cls-12{opacity:0.2;}.cls-13{fill:#7c2c00;}.cls-14{fill:#eb996e;}.cls-15{fill:#1b14ad;}.cls-16{fill:#ffbe9d;}</style></defs><title>product</title><g id="Screens"><path class="cls-1" d="M327.26,41.47c86.57,56.38,136.64,186.69,90.8,297.18C369.25,456.34,223,524.19,122.37,480,57.31,451.47-11.2,366.19,18.78,300.22c21.68-47.7,107.59-13,145.54-65.29,47.18-65-42.46-169.14-.46-213.85C194.75-11.8,276.93,8.7,327.26,41.47Z" transform="translate(-11.52 -4.4)"/><path class="cls-2" d="M156.89,5.62,135.4,5.8a5.33,5.33,0,0,0-5.17,5.49l0,3.9a5.34,5.34,0,0,1-5.17,5.5L83.21,21A5.33,5.33,0,0,1,78,15.62l0-3.9a5.35,5.35,0,0,0-5.27-5.41l-7.56.06-18.8.16a16.91,16.91,0,0,0-16.77,17l2.34,271.18a16.9,16.9,0,0,0,17,16.76l110.6-.91a16.9,16.9,0,0,0,16.77-17.05L173.93,22.38A16.9,16.9,0,0,0,156.89,5.62Z" transform="translate(-11.52 -4.4)"/><path class="cls-3" d="M156.89,5.62h.58a11.38,11.38,0,0,1,1.71.12,15.88,15.88,0,0,1,6.36,2.13A16.42,16.42,0,0,1,169.43,11a17,17,0,0,1,3.26,5A17.48,17.48,0,0,1,174,22.85q0,3.73.08,8c.21,22.52.52,55.12.9,95.39s.79,88.22,1.27,141.47q.09,10,.18,20.21c0,1.71,0,3.41,0,5.13a18,18,0,0,1-.6,5.16,17,17,0,0,1-2.12,4.79,18.36,18.36,0,0,1-3.49,3.93,17,17,0,0,1-9.73,3.88c-3.54.14-7.06.09-10.62.14l-21.53.18-44.19.37-22.6.19-11.42.09a17.92,17.92,0,0,1-11-2.94,17.33,17.33,0,0,1-6.78-9.2,18.77,18.77,0,0,1-.76-5.71c0-1.91,0-3.81-.05-5.7q-.09-11.38-.19-22.61-.2-22.45-.38-44.2c-.24-29-.48-56.93-.7-83.56s-.44-51.93-.63-75.61Q29.51,44.46,29.37,28l0-4.1c0-.68.05-1.37.08-2.05s.16-1.36.33-2a17.34,17.34,0,0,1,3.49-7.2,17.65,17.65,0,0,1,6.23-4.74A18,18,0,0,1,47,6.35l14.74-.11,7.09,0,3.47,0a5.41,5.41,0,0,1,3.34.9,5.56,5.56,0,0,1,2.09,2.7,8.86,8.86,0,0,1,.37,3.34c0,.55,0,1.09,0,1.64a12.19,12.19,0,0,0,.06,1.61,5.39,5.39,0,0,0,1.29,2.82A4.94,4.94,0,0,0,82,20.75a5.94,5.94,0,0,0,1.52.14h1.56l6.1-.05,22.3-.16,9.83-.07c.77,0,1.56,0,2.3-.05a5,5,0,0,0,2.06-.75,5.31,5.31,0,0,0,2.34-3.42,9.47,9.47,0,0,0,.12-2.06c0-.68,0-1.36,0-2a12.93,12.93,0,0,1,.07-2,5.62,5.62,0,0,1,.63-1.82,5.33,5.33,0,0,1,2.67-2.41,8.51,8.51,0,0,1,3.36-.39l11-.07,6.74,0h2.3l-2.3,0-6.74.08-11,.11a8.48,8.48,0,0,0-3.3.39A5.18,5.18,0,0,0,131,8.59a5.64,5.64,0,0,0-.6,1.76,11.43,11.43,0,0,0-.06,2c0,.66,0,1.34,0,2a9.24,9.24,0,0,1-.12,2.09A5.52,5.52,0,0,1,127.82,20a5.2,5.2,0,0,1-2.15.78c-.78.07-1.54,0-2.32.05l-9.83.1-22.29.2-6.11,0-1.55,0A6.71,6.71,0,0,1,82,21a5.23,5.23,0,0,1-2.74-1.67,5.64,5.64,0,0,1-1.36-3,13,13,0,0,1-.08-1.65c0-.54,0-1.09,0-1.64a8.77,8.77,0,0,0-.36-3.24,5.3,5.3,0,0,0-2-2.55,5.08,5.08,0,0,0-3.16-.84l-3.48,0-7.09.06L47,6.69a16.85,16.85,0,0,0-13.46,6.12,17,17,0,0,0-3.41,7c-.17.64-.21,1.31-.32,2s-.07,1.34-.07,2c0,1.36,0,2.72,0,4.1q.15,16.49.31,34.26c.21,23.68.44,49,.68,75.61s.48,54.58.73,83.56q.2,21.74.39,44.2.09,11.24.19,22.61c0,1.9,0,3.8.05,5.7a18.07,18.07,0,0,0,.74,5.58,16.82,16.82,0,0,0,6.59,8.94,17.3,17.3,0,0,0,10.77,2.86l11.41-.09L84.2,311l44.19-.36,21.54-.17c3.54,0,7.1,0,10.59-.14a16.63,16.63,0,0,0,9.47-3.77,17.7,17.7,0,0,0,3.4-3.83,16.61,16.61,0,0,0,2.06-4.66,17.44,17.44,0,0,0,.59-5c0-1.71,0-3.42,0-5.12q-.09-10.23-.17-20.22c-.44-53.24-.84-101.2-1.17-141.47s-.57-72.86-.75-95.39q0-4.23-.06-8a17.35,17.35,0,0,0-1.29-6.8,16.71,16.71,0,0,0-3.22-5A16.91,16.91,0,0,0,159.18,5.8a12,12,0,0,0-1.71-.14Z" transform="translate(-11.52 -4.4)"/><path class="cls-3" d="M160.4,33c0,.07-2.79.18-6.24.24s-6.24,0-6.24,0,2.79-.18,6.23-.24S160.4,32.9,160.4,33Z" transform="translate(-11.52 -4.4)"/><path class="cls-3" d="M160.45,36.17c0,.07-2.79.17-6.24.23s-6.24.05-6.24,0,2.79-.18,6.24-.24S160.45,36.09,160.45,36.17Z" transform="translate(-11.52 -4.4)"/><path class="cls-3" d="M160.51,39.36c0,.07-2.8.18-6.24.24s-6.24,0-6.24,0,2.79-.18,6.23-.24S160.51,39.29,160.51,39.36Z" transform="translate(-11.52 -4.4)"/><path class="cls-3" d="M47,44a.87.87,0,0,1,.26,0l.73,0,2.66-.09-.07.07c0-.59,0-1.23-.05-1.93,0-.36,0-.7,0-1.11a1,1,0,0,1,.89-.83c.43,0,.81,0,1.27,0a1.05,1.05,0,0,1,.89,1c0,.91,0,1.85,0,2.82l-.12-.12,3.36-.06-.13.13c0-1.35,0-2.75-.07-4.19,0-.36,0-.71,0-1.07s-.21-.54-.48-.79l-1.48-1.43L53.2,35l-.69-.67c-.24-.23-.43-.46-.7-.51a.91.91,0,0,0-.77.15c-.21.17-.42.42-.63.62l-1.19,1.23c-.75.79-1.54,1.52-2.11,2.21A2.4,2.4,0,0,0,47,39.25v1.19c0,.72,0,1.36,0,1.91v1.22A4.17,4.17,0,0,1,47,44s0-.14,0-.41,0-.72,0-1.2,0-1.19-.06-1.92c0-.38,0-.79,0-1.21,0-.22,0-.44,0-.66A1.5,1.5,0,0,1,47,37.9c.62-.76,1.35-1.45,2.11-2.26l1.19-1.24c.21-.21.39-.43.64-.65a1.13,1.13,0,0,1,1-.2,1.89,1.89,0,0,1,.82.57l.69.67,1.44,1.38,1.48,1.44a2.09,2.09,0,0,1,.38.4,1,1,0,0,1,.18.56c0,.36,0,.72,0,1.08,0,1.43.05,2.83.07,4.19V44h-.13L53.45,44h-.12V43.9c0-1,0-1.92,0-2.82a.81.81,0,0,0-.69-.81c-.39,0-.84,0-1.22,0a.82.82,0,0,0-.72.66c0,.33,0,.73,0,1.07,0,.7,0,1.34,0,1.93V44H47Z" transform="translate(-11.52 -4.4)"/><rect class="cls-4" x="42.18" y="60.41" width="117.9" height="21.45" rx="9.04" transform="translate(-12.15 -3.51) rotate(-0.51)"/><path class="cls-3" d="M151.13,81.41l.67-.06a9.25,9.25,0,0,0,1.95-.39,9.4,9.4,0,0,0,2.82-1.52A9,9,0,0,0,159.23,76a8.67,8.67,0,0,0,.68-2.51,21,21,0,0,0,.06-2.89,18.7,18.7,0,0,0-.17-3.14,8.89,8.89,0,0,0-7.18-7.21,24.09,24.09,0,0,0-4.1-.12l-4.36,0-93,.89a8.83,8.83,0,0,0-8.72,8.17c-.07,1.07,0,2.19,0,3.28a10.26,10.26,0,0,0,.36,3.19,8.89,8.89,0,0,0,3.7,5,8.38,8.38,0,0,0,2.86,1.2,12.89,12.89,0,0,0,3.11.2l6.24,0,12.09-.1,41.82-.32,28.2-.18,7.66,0h2.68l-.68,0-2,0-7.66.11-28.2.32-41.82.42-12.09.11-6.24.06a13.34,13.34,0,0,1-3.2-.22,8.81,8.81,0,0,1-3-1.24,9.35,9.35,0,0,1-3.88-5.21,10.57,10.57,0,0,1-.38-3.3c0-1.11-.06-2.18,0-3.33a9.27,9.27,0,0,1,9.15-8.57l93-.76,4.36,0a25.94,25.94,0,0,1,4.15.14A9.2,9.2,0,0,1,160,67.43a20.48,20.48,0,0,1,.15,3.18,23.3,23.3,0,0,1-.08,2.92,8.57,8.57,0,0,1-.72,2.55,9,9,0,0,1-2.73,3.46,9.4,9.4,0,0,1-2.88,1.5,9.62,9.62,0,0,1-2,.36C151.36,81.42,151.13,81.41,151.13,81.41Z" transform="translate(-11.52 -4.4)"/><path class="cls-3" d="M152.85,70.16s0-.34-.22-.92a3.8,3.8,0,0,0-4.95-2.49,3.7,3.7,0,1,0,3.57,6.39,3.87,3.87,0,0,0,1.4-2c.16-.58.16-.93.2-.93a.87.87,0,0,1,0,.25,2.9,2.9,0,0,1-.06.72,3.91,3.91,0,0,1-1.38,2.26,4,4,0,0,1-3.84.66,4.08,4.08,0,0,1-.06-7.68,4,4,0,0,1,3.84.6,3.9,3.9,0,0,1,1.42,2.23,3.09,3.09,0,0,1,.08.71A.79.79,0,0,1,152.85,70.16Z" transform="translate(-11.52 -4.4)"/><path class="cls-3" d="M155,76.84a7.61,7.61,0,0,1-1.91-1.71,7.9,7.9,0,0,1-1.6-2,7.54,7.54,0,0,1,1.92,1.72A7.59,7.59,0,0,1,155,76.84Z" transform="translate(-11.52 -4.4)"/><path class="cls-5" d="M58.08,69.37l-2.11,0v-.55l4.84,0v.54l-2.1,0,0,5.44h-.63Z" transform="translate(-11.52 -4.4)"/><path class="cls-5" d="M65.17,72.68l-3.76,0a1.66,1.66,0,0,0,1.78,1.55,1.74,1.74,0,0,0,1.37-.6l.35.39a2.38,2.38,0,0,1-4.11-1.52,2.19,2.19,0,1,1,4.38,0C65.18,72.54,65.17,72.61,65.17,72.68Zm-3.77-.42,3.19,0a1.6,1.6,0,0,0-3.19,0Z" transform="translate(-11.52 -4.4)"/><path class="cls-5" d="M69.17,74.71l-1.44-1.87-1.42,1.89h-.69l1.76-2.33-1.71-2.17h.68L67.72,72l1.33-1.77h.67l-1.67,2.21,1.81,2.29Z" transform="translate(-11.52 -4.4)"/><path class="cls-5" d="M73.24,74.4a1.47,1.47,0,0,1-.95.32A1.2,1.2,0,0,1,71,73.43l0-2.72h-.8V70.2h.81v-1h.6v1h1.37v.51H71.55l0,2.69a.72.72,0,0,0,.79.81A1,1,0,0,0,73,74Z" transform="translate(-11.52 -4.4)"/><rect class="cls-6" x="47.52" y="100.04" width="25.81" height="25.81" transform="translate(-12.52 -3.87) rotate(-0.51)"/><path class="cls-7" d="M122.88,102.09c0,.12-8.63.29-19.27.39s-19.28.07-19.28,0,8.63-.3,19.27-.39S122.87,102,122.88,102.09Z" transform="translate(-11.52 -4.4)"/><path class="cls-3" d="M153.68,109.73c0,.12-15.51.35-34.64.52s-34.64.21-34.64.09,15.51-.36,34.64-.53S153.68,109.61,153.68,109.73Z" transform="translate(-11.52 -4.4)"/><path class="cls-3" d="M152.91,115.38c0,.12-15.32.36-34.22.52s-34.24.21-34.24.09,15.32-.36,34.23-.52S152.91,115.26,152.91,115.38Z" transform="translate(-11.52 -4.4)"/><path class="cls-3" d="M124.92,121c0,.12-9,.3-20.21.4s-20.21.08-20.21,0,9-.3,20.21-.4S124.92,120.9,124.92,121Z" transform="translate(-11.52 -4.4)"/><rect class="cls-6" x="47.9" y="142.85" width="25.81" height="25.81" transform="translate(-12.89 -3.86) rotate(-0.51)"/><path class="cls-7" d="M123.25,145.08c0,.12-8.62.3-19.26.39s-19.28.07-19.28-.05,8.63-.3,19.27-.39S123.25,145,123.25,145.08Z" transform="translate(-11.52 -4.4)"/><path class="cls-3" d="M154.06,152.72c0,.12-15.51.36-34.64.52s-34.64.21-34.64.09,15.51-.36,34.64-.52S154.06,152.6,154.06,152.72Z" transform="translate(-11.52 -4.4)"/><path class="cls-3" d="M153.29,158.38c0,.12-15.32.35-34.23.52s-34.23.2-34.23.08,15.32-.36,34.23-.52S153.29,158.25,153.29,158.38Z" transform="translate(-11.52 -4.4)"/><path class="cls-3" d="M125.3,164c0,.12-9,.3-20.21.4s-20.21.08-20.21,0,9-.3,20.21-.4S125.3,163.89,125.3,164Z" transform="translate(-11.52 -4.4)"/><rect class="cls-8" x="48.27" y="185.85" width="25.81" height="25.81" transform="translate(-13.27 -3.86) rotate(-0.51)"/><path class="cls-7" d="M123.63,188.07c0,.12-8.62.3-19.27.39s-19.27.07-19.27-.05,8.63-.29,19.27-.39S123.63,188,123.63,188.07Z" transform="translate(-11.52 -4.4)"/><path class="cls-3" d="M154.44,195.71c0,.12-15.51.36-34.64.53s-34.64.2-34.64.08,15.5-.35,34.64-.52S154.44,195.59,154.44,195.71Z" transform="translate(-11.52 -4.4)"/><path class="cls-3" d="M153.67,201.37c0,.12-15.32.35-34.23.52s-34.23.2-34.23.08,15.32-.35,34.23-.52S153.67,201.25,153.67,201.37Z" transform="translate(-11.52 -4.4)"/><path class="cls-3" d="M125.68,207c0,.13-9.05.3-20.21.4s-20.21.08-20.21,0,9-.3,20.21-.4S125.68,206.88,125.68,207Z" transform="translate(-11.52 -4.4)"/><rect class="cls-6" x="48.65" y="228.84" width="25.81" height="25.81" transform="translate(-13.65 -3.85) rotate(-0.51)"/><path class="cls-8" d="M124,231.07c0,.12-8.62.29-19.27.38s-19.27.08-19.27,0,8.62-.3,19.27-.39S124,230.94,124,231.07Z" transform="translate(-11.52 -4.4)"/><path class="cls-3" d="M154.82,238.7c0,.13-15.51.36-34.64.53s-34.64.21-34.64.09,15.5-.36,34.64-.53S154.81,238.58,154.82,238.7Z" transform="translate(-11.52 -4.4)"/><path class="cls-3" d="M154.05,244.36c0,.12-15.32.36-34.23.52s-34.23.21-34.23.08,15.32-.35,34.23-.52S154.05,244.24,154.05,244.36Z" transform="translate(-11.52 -4.4)"/><path class="cls-3" d="M126.06,250c0,.12-9,.3-20.21.39s-20.21.08-20.21,0,9-.3,20.21-.39S126.06,249.88,126.06,250Z" transform="translate(-11.52 -4.4)"/><rect class="cls-5" x="49.03" y="271.83" width="25.81" height="25.81" transform="matrix(1, -0.01, 0.01, 1, -14.03, -3.85)"/><path class="cls-5" d="M124.39,274.06c0,.12-8.63.29-19.27.39s-19.27.07-19.27-.05,8.62-.3,19.27-.39S124.39,273.94,124.39,274.06Z" transform="translate(-11.52 -4.4)"/><path class="cls-9" d="M155.19,281.7c0,.12-15.5.35-34.63.52s-34.64.21-34.64.09,15.5-.36,34.64-.53S155.19,281.58,155.19,281.7Z" transform="translate(-11.52 -4.4)"/><path class="cls-9" d="M154.43,287.35c0,.13-15.33.36-34.23.53S86,288.08,86,288s15.32-.36,34.23-.52S154.43,287.23,154.43,287.35Z" transform="translate(-11.52 -4.4)"/><path class="cls-9" d="M126.44,293c0,.12-9,.3-20.21.4s-20.21.08-20.21,0,9-.3,20.21-.4S126.44,292.87,126.44,293Z" transform="translate(-11.52 -4.4)"/><path class="cls-2" d="M458.9,300.49l-14.35-.1a3.55,3.55,0,0,0-3.5,3.6l0,2.6a3.55,3.55,0,0,1-3.51,3.6L409.57,310a3.56,3.56,0,0,1-3.46-3.66l0-2.59a3.57,3.57,0,0,0-3.46-3.66l-5.05,0L385.07,300a11.28,11.28,0,0,0-11.37,11.18l-1,116.34a11.27,11.27,0,0,0,11.21,11.32l73.82.52a11.27,11.27,0,0,0,11.37-11.18l1-116.33A11.26,11.26,0,0,0,458.9,300.49Z" transform="translate(-11.52 -4.4)"/><path class="cls-3" d="M458.9,300.49l1.19.06a11.64,11.64,0,0,1,3.39.92,11.36,11.36,0,0,1,6.67,10.91c-.1,11.78-.24,28.79-.41,49.8-.09,10.51-.19,22-.29,34.39q-.09,9.27-.17,19.16,0,4.93-.09,10a20.48,20.48,0,0,1-.37,5.11,11.36,11.36,0,0,1-2.38,4.61,11.76,11.76,0,0,1-4.24,3.1,12.48,12.48,0,0,1-5.24.88l-10.8-.07-22.26-.15-23.07-.16L389,439c-2,0-4,0-6-.09a11.31,11.31,0,0,1-5.64-2,11.42,11.42,0,0,1-3.84-4.6,12.34,12.34,0,0,1-1-5.86c0-4,.08-7.9.11-11.8q.11-11.73.21-23.08c.14-15.13.27-29.72.4-43.62q.09-10.43.19-20.31c0-3.29.06-6.54.09-9.73,0-1.6,0-3.18,0-4.76a18.74,18.74,0,0,1,.37-4.67,11.39,11.39,0,0,1,5.42-7.1,11.12,11.12,0,0,1,4.22-1.39,42.3,42.3,0,0,1,4.35-.08l8.44.07,4.08,0h2a3.61,3.61,0,0,1,2,.49,3.77,3.77,0,0,1,1.8,3.35c0,.64,0,1.27,0,1.91a4.67,4.67,0,0,0,.2,1.83,3.44,3.44,0,0,0,2.59,2.28c1.18.12,2.41.05,3.58.08L426,310l11.64.09A3.5,3.5,0,0,0,441,307c.05-.8,0-1.61,0-2.38a4.53,4.53,0,0,1,.39-2.23,3.52,3.52,0,0,1,3.42-2l3.65,0,5.73.05,4.72.06h-4.72l-5.73,0-3.65,0a3.44,3.44,0,0,0-3.33,2,4.46,4.46,0,0,0-.38,2.19c0,.78,0,1.57,0,2.39a3.61,3.61,0,0,1-3.47,3.27L426,310.18l-13.38-.08c-1.19,0-2.37,0-3.61-.08a3.61,3.61,0,0,1-2.72-2.38,4.86,4.86,0,0,1-.21-1.89c0-.64,0-1.27,0-1.92a3.59,3.59,0,0,0-1.73-3.19,3.46,3.46,0,0,0-1.85-.46h-2l-4.09,0-8.43-.05c-1.43,0-2.89-.08-4.33.07a11.17,11.17,0,0,0-9.46,8.36,19.07,19.07,0,0,0-.36,4.62c0,1.57,0,3.15,0,4.75,0,3.19-.05,6.44-.08,9.73q-.09,9.88-.18,20.31c-.12,13.9-.25,28.5-.38,43.62q-.11,11.35-.21,23.08c0,3.9-.07,7.84-.1,11.8a12,12,0,0,0,1,5.76,11.19,11.19,0,0,0,3.75,4.49,11.06,11.06,0,0,0,5.52,2c2,.1,4,.05,5.95.08l11.8.09,23.07.16,22.27.16,10.79.08a12.32,12.32,0,0,0,5.15-.87,11.46,11.46,0,0,0,4.15-3,11.06,11.06,0,0,0,2.33-4.51,20.92,20.92,0,0,0,.38-5.06q0-5.07.09-10,.09-9.87.18-19.15c.11-12.36.22-23.88.32-34.39.21-21,.37-38,.49-49.8a11.34,11.34,0,0,0-2.2-7.3,11.16,11.16,0,0,0-4.39-3.56,11.8,11.8,0,0,0-3.37-.95Z" transform="translate(-11.52 -4.4)"/><rect class="cls-6" x="382.4" y="333.66" width="78.01" height="54.17" transform="translate(-10.66 -5.41) rotate(0.14)"/><circle class="cls-2" cx="421.4" cy="360.64" r="11.32" transform="translate(-74.16 85.41) rotate(-11.33)"/><polygon class="cls-6" points="407.09 356.23 407.11 351.13 411.52 353.69 415.93 356.25 411.5 358.8 407.08 361.33 407.09 356.23"/><path class="cls-3" d="M390.76,395.86V395a.1.1,0,0,1,.15-.09l.76.44.75.44a.09.09,0,0,1,0,.17l-.76.44-.75.43a.11.11,0,0,1-.16-.09Z" transform="translate(-11.52 -4.4)"/><path class="cls-3" d="M397.84,395.19h-.66a.11.11,0,0,0-.1.1v1.17a.1.1,0,0,0,.1.1h.66l1,1v-3.39Z" transform="translate(-11.52 -4.4)"/><path class="cls-3" d="M393,396.91h0a.17.17,0,0,1-.17-.17V395a.17.17,0,0,1,.17-.17h0a.17.17,0,0,1,.18.17v1.75A.16.16,0,0,1,393,396.91Z" transform="translate(-11.52 -4.4)"/><path class="cls-3" d="M399.26,394.82v2.12a1.15,1.15,0,0,0,.73-1.06A1.13,1.13,0,0,0,399.26,394.82Z" transform="translate(-11.52 -4.4)"/><path class="cls-3" d="M399.27,394v.44a1.49,1.49,0,0,1,0,2.86v.44a1.91,1.91,0,0,0,0-3.74Z" transform="translate(-11.52 -4.4)"/><path class="cls-3" d="M404.73,395.19v2.06h-.29v-1.8H404v-.26Z" transform="translate(-11.52 -4.4)"/><path class="cls-3" d="M405.17,395.88a.2.2,0,0,1,.2-.2.2.2,0,0,1,0,.4A.2.2,0,0,1,405.17,395.88Zm0,1.19a.2.2,0,0,1,.4,0,.2.2,0,0,1-.4,0Z" transform="translate(-11.52 -4.4)"/><path class="cls-3" d="M405.85,396.22c0-.67.36-1.05.84-1s.83.38.83,1.05-.36,1-.84,1S405.84,396.89,405.85,396.22Zm1.38,0c0-.53-.22-.79-.54-.79s-.55.26-.55.79.22.79.54.79S407.23,396.75,407.23,396.23Z" transform="translate(-11.52 -4.4)"/><path class="cls-3" d="M408.43,395.2v2.06h-.29v-1.8h-.46v-.26Z" transform="translate(-11.52 -4.4)"/><path class="cls-3" d="M410.42,394.79h.25l-1,2.76h-.26Z" transform="translate(-11.52 -4.4)"/><path class="cls-3" d="M413.11,396.69c0,.37-.32.6-.82.6s-.81-.23-.81-.61a.51.51,0,0,1,.36-.49.47.47,0,0,1-.29-.45c0-.34.3-.55.74-.55s.75.21.75.56a.46.46,0,0,1-.29.44A.51.51,0,0,1,413.11,396.69Zm-.29,0c0-.23-.2-.37-.53-.37s-.52.14-.52.37.19.37.52.37S412.82,396.91,412.82,396.68Zm-1-.92c0,.2.17.33.45.33s.46-.13.46-.33-.18-.33-.46-.33S411.84,395.55,411.84,395.76Z" transform="translate(-11.52 -4.4)"/><path class="cls-3" d="M413.38,395.9a.19.19,0,0,1,.2-.2.19.19,0,0,1,.19.2.19.19,0,0,1-.2.2A.19.19,0,0,1,413.38,395.9Zm0,1.19a.2.2,0,0,1,.4,0,.2.2,0,0,1-.4,0Z" transform="translate(-11.52 -4.4)"/><path class="cls-3" d="M414.05,396.24c0-.67.36-1.05.84-1.05s.83.39.83,1.06-.36,1.05-.84,1.05S414.05,396.91,414.05,396.24Zm1.38,0c0-.53-.22-.79-.54-.79s-.55.26-.55.78.22.8.54.8S415.43,396.77,415.43,396.25Z" transform="translate(-11.52 -4.4)"/><path class="cls-3" d="M416,396.25c0-.67.36-1.05.85-1.05s.83.38.83,1.05-.36,1.05-.84,1.05S416,396.92,416,396.25Zm1.39,0c0-.52-.22-.79-.54-.79s-.55.26-.55.79.22.79.54.79S417.39,396.78,417.39,396.25Z" transform="translate(-11.52 -4.4)"/><path class="cls-3" d="M383.26,396.9h0a.34.34,0,0,1-.34-.35v-1.81a.35.35,0,0,1,.35-.34h0a.34.34,0,0,1,.34.35v1.81A.35.35,0,0,1,383.26,396.9Z" transform="translate(-11.52 -4.4)"/><path class="cls-3" d="M384.83,396.9h0a.34.34,0,0,1-.34-.34v-1.81a.35.35,0,0,1,.35-.35h0a.35.35,0,0,1,.34.35v1.81A.34.34,0,0,1,384.83,396.9Z" transform="translate(-11.52 -4.4)"/><path class="cls-5" d="M460,392.74l-76.9-.19a.74.74,0,0,1-.74-.74h0a.74.74,0,0,1,.74-.74l76.9.19a.74.74,0,0,1,.74.74h0A.74.74,0,0,1,460,392.74Z" transform="translate(-11.52 -4.4)"/><path class="cls-6" d="M411.32,392.62l-28.26-.07a.74.74,0,0,1-.74-.74h0a.74.74,0,0,1,.74-.74l28.27.07a.65.65,0,0,1,.64.65V392A.64.64,0,0,1,411.32,392.62Z" transform="translate(-11.52 -4.4)"/><path class="cls-6" d="M412.72,391.89a1.42,1.42,0,1,1-1.41-1.42A1.41,1.41,0,0,1,412.72,391.89Z" transform="translate(-11.52 -4.4)"/><path class="cls-3" d="M460.09,406.37c0,.17-17.18.27-38.38.22s-38.38-.23-38.38-.41,17.18-.27,38.38-.22S460.09,406.19,460.09,406.37Z" transform="translate(-11.52 -4.4)"/><path class="cls-3" d="M460.07,414c0,.18-17.18.28-38.37.23s-38.39-.24-38.39-.41,17.19-.27,38.39-.22S460.07,413.78,460.07,414Z" transform="translate(-11.52 -4.4)"/><path class="cls-3" d="M460.06,421.54c0,.18-17.19.28-38.38.22s-38.38-.23-38.38-.4,17.18-.28,38.38-.23S460.06,421.37,460.06,421.54Z" transform="translate(-11.52 -4.4)"/><path class="cls-2" d="M459.38,91.05,445,91a3.56,3.56,0,0,0-3.5,3.61v2.6a3.55,3.55,0,0,1-3.5,3.61l-27.95-.13A3.56,3.56,0,0,1,406.61,97v-2.6a3.55,3.55,0,0,0-3.47-3.64l-5,0-12.56-.06a11.26,11.26,0,0,0-11.33,11.21l-.77,180.52a11.28,11.28,0,0,0,11.24,11.3l73.82.34a11.27,11.27,0,0,0,11.34-11.21l.77-180.51A11.28,11.28,0,0,0,459.38,91.05Z" transform="translate(-11.52 -4.4)"/><path class="cls-3" d="M459.38,91.05l.39,0a8.47,8.47,0,0,1,1.14.09,10.53,10.53,0,0,1,4.22,1.48,11.29,11.29,0,0,1,4.7,5.45,11.7,11.7,0,0,1,.83,4.57c0,1.66,0,3.43,0,5.31-.05,15-.13,36.73-.23,63.55s-.23,58.78-.37,94.26q0,6.64-.06,13.46c-.06,2.25.21,4.59-.49,6.84a11.9,11.9,0,0,1-1.49,3.14,12.1,12.1,0,0,1-2.4,2.55,11.3,11.3,0,0,1-6.53,2.4c-2.35.05-4.7,0-7.07,0l-14.35-.06L408.21,294l-15-.07-7.61,0a11.9,11.9,0,0,1-7.31-2,11.44,11.44,0,0,1-4.45-6.15,12.26,12.26,0,0,1-.46-3.8c0-1.27,0-2.54,0-3.8q0-7.59.07-15.06.06-15,.13-29.45c.08-19.31.16-37.93.24-55.67s.15-34.6.22-50.38c0-7.88.07-15.5.11-22.82a22.48,22.48,0,0,1,.35-5.44,11.21,11.21,0,0,1,2.45-4.71,11.74,11.74,0,0,1,4.21-3.06,12.42,12.42,0,0,1,5-.86l9.81.05,4.73,0H403a3.56,3.56,0,0,1,2.19.68,3.71,3.71,0,0,1,1.32,1.83,6.46,6.46,0,0,1,.19,2.22c0,.73-.05,1.48,0,2.17a3.55,3.55,0,0,0,.89,1.88,3.39,3.39,0,0,0,1.75,1,14.14,14.14,0,0,0,2.06.09l4.07,0,14.85.08,6.55,0c.52,0,1,0,1.54,0a3.36,3.36,0,0,0,1.38-.49A3.57,3.57,0,0,0,441.4,98a20.78,20.78,0,0,0,.09-2.72,4.57,4.57,0,0,1,.51-2.51,3.59,3.59,0,0,1,1.82-1.56,6.12,6.12,0,0,1,2.23-.22l7.31,0,6,0h-6l-7.31,0a5.7,5.7,0,0,0-2.2.22,3.42,3.42,0,0,0-1.77,1.53,4.25,4.25,0,0,0-.49,2.46,21.24,21.24,0,0,1-.1,2.74,3.66,3.66,0,0,1-1.62,2.35,3.37,3.37,0,0,1-1.42.51c-.52,0-1,0-1.55,0l-6.55,0-14.85-.06-4.07,0a12.32,12.32,0,0,1-2.09-.09,3.58,3.58,0,0,1-1.84-1.08,3.77,3.77,0,0,1-.92-2,20.19,20.19,0,0,1,0-2.2,6.57,6.57,0,0,0-.19-2.17,3.56,3.56,0,0,0-1.26-1.75c-1.22-1-2.89-.56-4.41-.65l-4.73,0-9.82,0a12,12,0,0,0-4.94.85,11.48,11.48,0,0,0-4.14,3,11.1,11.1,0,0,0-2.41,4.64,22.93,22.93,0,0,0-.34,5.39q0,11-.09,22.83c-.06,15.77-.13,32.63-.2,50.37s-.15,36.36-.23,55.67q-.06,14.48-.12,29.45c0,5,0,10-.06,15.06,0,1.26,0,2.53,0,3.8a12.35,12.35,0,0,0,.45,3.73,11.27,11.27,0,0,0,4.35,6,11.76,11.76,0,0,0,7.17,2l7.61,0,15,.07,29.44.14,14.35.07c2.37,0,4.73.05,7.06,0a11.06,11.06,0,0,0,6.39-2.35,10.93,10.93,0,0,0,3.81-5.57c.68-2.18.42-4.51.49-6.77q0-6.81.06-13.47c.16-35.47.3-67.42.42-94.25s.24-48.53.31-63.55c-.08-3.73.43-7.16-.78-9.86a11.27,11.27,0,0,0-4.66-5.43,10.58,10.58,0,0,0-4.19-1.49,9.32,9.32,0,0,0-1.14-.11Z" transform="translate(-11.52 -4.4)"/><path class="cls-3" d="M458,117.21c0,.18-15.59.32-34.82.32s-34.83-.14-34.83-.32,15.59-.32,34.83-.32S458,117,458,117.21Z" transform="translate(-11.52 -4.4)"/><rect class="cls-6" x="380.06" y="229.03" width="63.29" height="43.95"/><path class="cls-2" d="M327.79,135.2H306.3a5.34,5.34,0,0,0-5.22,5.45v3.9a5.34,5.34,0,0,1-5.22,5.45L254,150a5.36,5.36,0,0,1-5.22-5.46v-3.9a5.35,5.35,0,0,0-5.21-5.46H217.18A16.89,16.89,0,0,0,200.27,152l-.06,271.19a16.91,16.91,0,0,0,16.9,16.91l110.6.07a16.92,16.92,0,0,0,16.92-16.91l.05-271.19A16.9,16.9,0,0,0,327.79,135.2Z" transform="translate(-11.52 -4.4)"/><path class="cls-3" d="M327.79,135.2l.58,0a13.32,13.32,0,0,1,1.71.13,16.83,16.83,0,0,1,10.2,5.32,17,17,0,0,1,3.22,5.05,17.51,17.51,0,0,1,1.27,6.86q0,3.75,0,8c0,22.53,0,55.12.05,95.4s0,88.23,0,141.48v25.33a18,18,0,0,1-.65,5.16,17.12,17.12,0,0,1-2.16,4.77,18.43,18.43,0,0,1-3.52,3.91,17.2,17.2,0,0,1-9.77,3.79c-3.54.1-7.06,0-10.62,0H296.6l-44.19,0h-34a17.83,17.83,0,0,1-11-3,17.37,17.37,0,0,1-6.7-9.25,18.86,18.86,0,0,1-.7-5.72V394.06q0-22.46,0-44.21c0-29,0-56.93,0-83.56s0-51.93,0-75.61q0-17.76,0-34.27v-4.1c0-.68.06-1.37.1-2.05s.17-1.36.35-2a17.18,17.18,0,0,1,3.55-7.16,17.63,17.63,0,0,1,6.27-4.69,17.84,17.84,0,0,1,7.52-1.42l14.74,0h10.56a5.41,5.41,0,0,1,3.33.93,5.57,5.57,0,0,1,2.07,2.72,9,9,0,0,1,.34,3.34v1.64a12.21,12.21,0,0,0,.05,1.61,5.42,5.42,0,0,0,1.26,2.83,5,5,0,0,0,2.59,1.61,6,6,0,0,0,1.52.15H262l22.3,0,9.83,0c.77,0,1.56,0,2.3,0a5,5,0,0,0,2.07-.73,5.36,5.36,0,0,0,2.37-3.41,9.34,9.34,0,0,0,.13-2.05v-2a11.72,11.72,0,0,1,.09-2,5.72,5.72,0,0,1,.64-1.82,5.33,5.33,0,0,1,2.7-2.38,8.48,8.48,0,0,1,3.36-.36l11,0,6.75,0,2.3,0-2.3,0-6.75,0h-11a8.46,8.46,0,0,0-3.3.36,5.18,5.18,0,0,0-2.62,2.32,5.93,5.93,0,0,0-.61,1.76,11.4,11.4,0,0,0-.08,2v2a9.25,9.25,0,0,1-.13,2.09,5.55,5.55,0,0,1-2.45,3.54,5.23,5.23,0,0,1-2.15.76c-.78.07-1.54,0-2.32,0H254.33a6.18,6.18,0,0,1-1.59-.16,5.3,5.3,0,0,1-2.73-1.69,5.65,5.65,0,0,1-1.34-3,13.11,13.11,0,0,1,0-1.65V142a9,9,0,0,0-.33-3.24,5.31,5.31,0,0,0-2-2.57,5.08,5.08,0,0,0-3.16-.87h-25.3a16.81,16.81,0,0,0-13.52,6,16.88,16.88,0,0,0-3.47,7c-.17.65-.22,1.32-.34,2s-.08,1.33-.09,2v4.1q0,16.49,0,34.27c0,23.68,0,49,0,75.61s0,54.58,0,83.56v44.21q0,11.22,0,22.6v5.71a18.11,18.11,0,0,0,.69,5.58,16.87,16.87,0,0,0,6.52,9,17.39,17.39,0,0,0,10.74,3h11.41l22.6,0,44.19,0h21.54c3.55,0,7.11.06,10.6,0a16.64,16.64,0,0,0,9.5-3.69,18,18,0,0,0,3.43-3.8,16.6,16.6,0,0,0,2.1-4.64,17.78,17.78,0,0,0,.64-5v-5.12q0-10.23,0-20.21c0-53.25.05-101.21.07-141.48s.08-72.87.1-95.4c0-2.81,0-5.47,0-8a17.44,17.44,0,0,0-1.23-6.81,16.73,16.73,0,0,0-3.18-5,16.94,16.94,0,0,0-10.12-5.35,12.15,12.15,0,0,0-1.7-.15Z" transform="translate(-11.52 -4.4)"/><path class="cls-3" d="M331.23,164.4c0,.07-2.8.15-6.24.18s-6.25,0-6.25-.08,2.8-.15,6.24-.18S331.23,164.32,331.23,164.4Z" transform="translate(-11.52 -4.4)"/><path class="cls-3" d="M331.25,167.59c0,.07-2.79.16-6.24.18s-6.24,0-6.24-.08,2.79-.15,6.24-.18S331.25,167.52,331.25,167.59Z" transform="translate(-11.52 -4.4)"/><path class="cls-3" d="M331.28,170.79c0,.07-2.79.15-6.24.18s-6.24,0-6.24-.08,2.79-.16,6.24-.18S331.28,170.71,331.28,170.79Z" transform="translate(-11.52 -4.4)"/><path class="cls-3" d="M212.46,172.83h.26l.72,0,2.67-.06-.08.07c0-.59,0-1.23,0-1.93,0-.36,0-.7,0-1.11a1,1,0,0,1,.9-.82c.43,0,.81,0,1.27,0a1,1,0,0,1,.88,1q0,1.35,0,2.82l-.13-.12,3.37,0-.13.13c0-1.35,0-2.75,0-4.19,0-.36,0-.71,0-1.06a1.1,1.1,0,0,0-.47-.8l-1.47-1.45-1.42-1.4-.69-.68c-.23-.22-.42-.46-.69-.51a.87.87,0,0,0-.77.14c-.21.17-.42.42-.63.62l-1.2,1.22c-.76.78-1.55,1.5-2.13,2.18a2.45,2.45,0,0,0-.17,1.26v1.18c0,.73,0,1.37,0,1.91s0,.89,0,1.22,0,.44,0,.44a1.63,1.63,0,0,1,0-.4c0-.33,0-.72,0-1.2s0-1.19,0-1.93c0-.38,0-.78,0-1.21,0-.21,0-.43,0-.66a1.38,1.38,0,0,1,.18-.7c.62-.76,1.37-1.44,2.13-2.25l1.2-1.22a8,8,0,0,1,.65-.65,1.14,1.14,0,0,1,1-.19,1.8,1.8,0,0,1,.81.58l.69.67,1.42,1.4,1.47,1.44a3.83,3.83,0,0,1,.38.41,1.16,1.16,0,0,1,.18.57v1.07c0,1.44,0,2.84,0,4.19v.13h-.13l-3.36,0h-.13v-.12c0-1,0-1.92,0-2.82a.82.82,0,0,0-.68-.82c-.39,0-.84,0-1.22,0a.84.84,0,0,0-.73.65c0,.34,0,.74,0,1.08v2h-.07l-2.71,0h-.71C212.53,172.84,212.45,172.84,212.46,172.83Z" transform="translate(-11.52 -4.4)"/><rect class="cls-6" x="207.83" y="341.49" width="25.81" height="25.81"/><path class="cls-7" d="M294.81,348.67c0,.13-8.63.22-19.27.22s-19.28-.09-19.28-.22,8.63-.22,19.28-.22S294.81,348.55,294.81,348.67Z" transform="translate(-11.52 -4.4)"/><path class="cls-3" d="M325.54,356.58c0,.13-15.51.22-34.64.22s-34.64-.09-34.64-.22,15.51-.21,34.64-.21S325.54,356.46,325.54,356.58Z" transform="translate(-11.52 -4.4)"/><path class="cls-3" d="M324.73,362.23c0,.13-15.33.22-34.23.22s-34.24-.09-34.24-.22,15.33-.22,34.24-.22S324.73,362.11,324.73,362.23Z" transform="translate(-11.52 -4.4)"/><path class="cls-3" d="M296.69,367.62c0,.12-9.05.22-20.21.22s-20.22-.1-20.22-.22,9.05-.22,20.22-.22S296.69,367.5,296.69,367.62Z" transform="translate(-11.52 -4.4)"/><rect class="cls-6" x="207.83" y="383.5" width="25.81" height="25.81"/><path class="cls-7" d="M294.81,390.67c0,.13-8.63.22-19.27.22s-19.28-.09-19.28-.22,8.63-.21,19.28-.21S294.81,390.55,294.81,390.67Z" transform="translate(-11.52 -4.4)"/><path class="cls-3" d="M325.54,398.58c0,.13-15.51.22-34.64.22s-34.64-.09-34.64-.22,15.51-.21,34.64-.21S325.54,398.46,325.54,398.58Z" transform="translate(-11.52 -4.4)"/><path class="cls-3" d="M324.73,404.23c0,.13-15.33.22-34.23.22s-34.24-.09-34.24-.22,15.33-.21,34.24-.21S324.73,404.11,324.73,404.23Z" transform="translate(-11.52 -4.4)"/><path class="cls-3" d="M296.69,409.62c0,.12-9.05.22-20.21.22s-20.22-.1-20.22-.22,9.05-.22,20.22-.22S296.69,409.5,296.69,409.62Z" transform="translate(-11.52 -4.4)"/><rect class="cls-11" x="243.57" y="199.77" width="59.75" height="79.49" transform="translate(20.89 507.22) rotate(-89.68)"/><polygon class="cls-6" points="220.98 264.76 248.95 227.78 266.02 251.11 277.75 238.75 300.47 265.2 220.98 264.76"/><path class="cls-6" d="M285,227.77a6.26,6.26,0,1,1-6.22-6.29A6.25,6.25,0,0,1,285,227.77Z" transform="translate(-11.52 -4.4)"/><path class="cls-3" d="M324,281c0,.18-23.08.32-51.55.32s-51.56-.14-51.56-.32,23.08-.31,51.56-.31S324,280.79,324,281Z" transform="translate(-11.52 -4.4)"/><path class="cls-3" d="M324,287.67c0,.18-23.08.32-51.55.32s-51.56-.14-51.56-.32,23.08-.31,51.56-.31S324,287.5,324,287.67Z" transform="translate(-11.52 -4.4)"/><path class="cls-6" d="M289.23,319.85H255.61a8.82,8.82,0,0,1-8.82-8.82h0a8.82,8.82,0,0,1,8.82-8.81h33.62A8.82,8.82,0,0,1,298,311h0A8.82,8.82,0,0,1,289.23,319.85Z" transform="translate(-11.52 -4.4)"/><path class="cls-5" d="M343.24,328.6c0,.18-31.79.32-71,.32s-71-.14-71-.32,31.78-.31,71-.31S343.24,328.43,343.24,328.6Z" transform="translate(-11.52 -4.4)"/><path class="cls-6" d="M301.67,194.87c0,.18-13.1.32-29.25.32s-29.26-.14-29.26-.32,13.1-.31,29.26-.31S301.67,194.7,301.67,194.87Z" transform="translate(-11.52 -4.4)"/><path class="cls-6" d="M307.52,311a1.92,1.92,0,1,1-1.91-1.91A1.91,1.91,0,0,1,307.52,311Z" transform="translate(-11.52 -4.4)"/><path class="cls-6" d="M385.09,184.69l-.47,0-1.38,0-5.32.05-19.83.1.22-.21c0,18.57,0,45.66-.05,75.79-.05,18.47-.1,35.81-.14,50.55v.28h-.28L320,311.19l-10.62-.07-2.8,0-.72,0a.64.64,0,0,1-.24,0l.24,0,.72,0,2.8,0,10.62-.08,37.85-.11-.27.27c0-14.74,0-32.08.06-50.55.1-30.13.19-57.22.25-75.79v-.22h.21l19.83.1,5.32.06,1.38,0Z" transform="translate(-11.52 -4.4)"/><circle class="cls-2" cx="411.71" cy="250.93" r="9.19"/><polygon class="cls-6" points="409.45 250.93 409.45 246.79 413.03 248.86 416.61 250.93 413.03 253 409.45 255.06 409.45 250.93"/><rect class="cls-8" x="398.58" y="119.9" width="47.17" height="62.75" transform="translate(257.02 568.18) rotate(-89.68)"/><polygon class="cls-3" points="378.32 170.28 400.4 141.08 413.88 159.5 423.14 149.75 441.07 170.63 378.32 170.28"/><path class="cls-3" d="M431.28,142a4.94,4.94,0,1,1-4.91-5A4.93,4.93,0,0,1,431.28,142Z" transform="translate(-11.52 -4.4)"/><rect class="cls-8" x="386.45" y="179.64" width="48.58" height="3.25"/><path class="cls-3" d="M457.09,196.62c0,.17-15.59.32-34.82.32s-34.83-.15-34.83-.32,15.59-.32,34.83-.32S457.09,196.44,457.09,196.62Z" transform="translate(-11.52 -4.4)"/><path class="cls-3" d="M457.09,205.51c0,.18-15.59.32-34.82.32s-34.83-.14-34.83-.32,15.59-.32,34.83-.32S457.09,205.34,457.09,205.51Z" transform="translate(-11.52 -4.4)"/><path class="cls-3" d="M457.09,214.41c0,.18-15.59.32-34.82.32s-34.83-.14-34.83-.32,15.59-.32,34.83-.32S457.09,214.23,457.09,214.41Z" transform="translate(-11.52 -4.4)"/><path class="cls-3" d="M457.09,223.3c0,.18-15.59.32-34.82.32s-34.83-.14-34.83-.32S403,223,422.27,223,457.09,223.13,457.09,223.3Z" transform="translate(-11.52 -4.4)"/><path class="cls-6" d="M387,184.69a1.92,1.92,0,1,1-1.91-1.92A1.9,1.9,0,0,1,387,184.69Z" transform="translate(-11.52 -4.4)"/><path class="cls-6" d="M425.08,283.36a1.86,1.86,0,1,1-1.85-1.63A1.75,1.75,0,0,1,425.08,283.36Z" transform="translate(-11.52 -4.4)"/><path class="cls-6" d="M425.08,326.58a1.86,1.86,0,1,1-1.85-1.64A1.76,1.76,0,0,1,425.08,326.58Z" transform="translate(-11.52 -4.4)"/><path class="cls-6" d="M423.23,326.58c-.17,0-.32-9.68-.32-21.61s.15-21.61.32-21.61.32,9.68.32,21.61S423.4,326.58,423.23,326.58Z" transform="translate(-11.52 -4.4)"/><path class="cls-6" d="M272.25,179.69a1.39,1.39,0,0,1,0-.33c0-.24,0-.56,0-1,0-.89,0-2.14-.06-3.74,0-3.29-.05-8-.09-13.93,0-11.92-.06-28.58-.11-47.73l.31.31H251.1l-62.12-.1-18.82-.1-5.12-.06-1.33,0a2.77,2.77,0,0,1-.46,0,2.77,2.77,0,0,1,.46,0l1.33,0,5.12-.06,18.82-.1,62.12-.1h21.46V113c-.05,19.15-.09,35.81-.11,47.73,0,5.91-.07,10.64-.09,13.93,0,1.6,0,2.85-.06,3.74,0,.4,0,.72,0,1A1.39,1.39,0,0,1,272.25,179.69Z" transform="translate(-11.52 -4.4)"/><path class="cls-6" d="M274.17,179.69a1.92,1.92,0,1,1-1.92-1.92A1.92,1.92,0,0,1,274.17,179.69Z" transform="translate(-11.52 -4.4)"/><path class="cls-6" d="M165.17,113a1.92,1.92,0,1,1-1.92-1.92A1.92,1.92,0,0,1,165.17,113Z" transform="translate(-11.52 -4.4)"/></g><g id="Character"><path class="cls-13" d="M127.65,116.17l6,7.86s2.93,4.53.64,5.5c-2,.85-3.32-1.69-3.32-1.69s-1.27-5.77-3.78-4.36c-.35.2.26,4.3.6,6.38a3,3,0,0,0,1.14,1.91l6.64,5.09a8.6,8.6,0,0,0,4.25,1.72l2.36.28,1.94,3.88,10.75-4.37-8.55-11.07-4.59-7a2.78,2.78,0,0,0-2.52-.6l-1.06.28-.79-.8a1.82,1.82,0,0,0-1.8-.47l-.66.18-1.8-1.78c-.59-.59-4.68-4.41-5.45-4.07C127.7,113,126.16,114.23,127.65,116.17Z" transform="translate(-11.52 -4.4)"/><path class="cls-14" d="M139.82,123.63a7.39,7.39,0,0,0-.61-.88,4,4,0,0,0-2.24-1.23,11.52,11.52,0,0,1-1.79-2,3.52,3.52,0,0,1-.54-1s.24.35.65.87a14.66,14.66,0,0,0,1.77,1.89c.22.07.46.12.7.21a3.25,3.25,0,0,1,.65.31,3.39,3.39,0,0,1,.9.79,2.81,2.81,0,0,1,.42.69A.71.71,0,0,1,139.82,123.63Z" transform="translate(-11.52 -4.4)"/><path class="cls-14" d="M141.07,122a1.92,1.92,0,0,0-.37-.42,1.37,1.37,0,0,0-1.26-.22l-.06,0,0,0-.14-.14a12.59,12.59,0,0,1-1.43-1.67,11.78,11.78,0,0,1,1.58,1.54l.13.14-.1,0a1.45,1.45,0,0,1,1.41.31C141.07,121.78,141.1,122.05,141.07,122Z" transform="translate(-11.52 -4.4)"/><polygon class="cls-7" points="117.25 454.55 113.45 489.32 132.17 491.74 136.05 456.92 117.25 454.55"/><path class="cls-3" d="M134.37,493.61c.15,0,1-7.6,1.92-17s1.52-17,1.37-17.05-1,7.59-1.93,17S134.21,493.59,134.37,493.61Z" transform="translate(-11.52 -4.4)"/><polygon class="cls-3" points="113.72 486.92 132.44 489.28 132.17 491.74 113.45 489.32 113.72 486.92"/><path class="cls-3" d="M144.93,485a2.44,2.44,0,0,0-.4-.81,13.11,13.11,0,0,0-1.48-2,12.76,12.76,0,0,0-2.82-2.35,10.05,10.05,0,0,0-11.92.94,8.4,8.4,0,0,0-1.59,1.89,2.41,2.41,0,0,0-.38.82,19.17,19.17,0,0,1,2.23-2.41,10.11,10.11,0,0,1,7.34-2.15,11.56,11.56,0,0,1,6.84,3.54C144.19,484,144.85,485.07,144.93,485Z" transform="translate(-11.52 -4.4)"/><g class="cls-10"><polygon points="134.94 466.83 134.52 470.66 115.77 468.14 116.08 465.26 134.94 466.83"/></g><polygon class="cls-7" points="90.31 456.85 91.8 491.79 110.66 491.37 109.25 456.36 90.31 456.85"/><path class="cls-3" d="M112.58,494.67c.16,0-.13-7.66-.65-17.09s-1.07-17.06-1.23-17.05.14,7.65.66,17.08S112.42,494.68,112.58,494.67Z" transform="translate(-11.52 -4.4)"/><polygon class="cls-3" points="91.69 489.38 110.56 488.9 110.66 491.37 91.8 491.79 91.69 489.38"/><path class="cls-3" d="M121.73,484.58s-.14-.29-.52-.74a13.84,13.84,0,0,0-1.76-1.72,13.1,13.1,0,0,0-3.14-1.9A10,10,0,0,0,104.67,483a8.48,8.48,0,0,0-1.28,2.11c-.22.54-.3.86-.26.87a18.36,18.36,0,0,1,1.85-2.72,10,10,0,0,1,6.93-3.23,11.55,11.55,0,0,1,7.29,2.46C120.84,483.66,121.66,484.65,121.73,484.58Z" transform="translate(-11.52 -4.4)"/><g class="cls-10"><polygon points="109.65 466.32 109.8 470.18 90.89 470.51 90.77 467.62 109.65 466.32"/></g><path class="cls-3" d="M123,384.42l-.74-95.63H85.07s-2.94,23.74-1.54,33.31,11.3,62.46,11.3,62.46,3.2,70.22,4.78,88.26l23.2-2.09Z" transform="translate(-11.52 -4.4)"/><path class="cls-3" d="M145.71,268.62a47.09,47.09,0,0,1,14.16,26.51c2.58,16.65-5.23,83.26-5.23,83.26l-6.58,92.34h-23l.75-88.91-4-66.22-2.58-21Z" transform="translate(-11.52 -4.4)"/><path class="cls-8" d="M125.35,377.05a2.3,2.3,0,0,1-.09-.58c0-.45-.1-1-.16-1.65-.11-1.54-.25-3.59-.43-6.08-.34-5.14-.75-12.24-1.12-20.09s-.6-15-.69-20.11c0-2.57,0-4.66,0-6.1,0-.65,0-1.2,0-1.65a2.23,2.23,0,0,1,.06-.58,1.93,1.93,0,0,1,.07.58c0,.45,0,1,.07,1.65.06,1.54.14,3.6.23,6.09.23,5.24.53,12.29.87,20.09s.69,14.86.93,20.09c.1,2.5.18,4.56.24,6.1q0,1,0,1.65A1.57,1.57,0,0,1,125.35,377.05Z" transform="translate(-11.52 -4.4)"/><path class="cls-8" d="M153.41,382.45a28.19,28.19,0,0,1-3.36-.22,51.66,51.66,0,0,0-8.07.1,50.83,50.83,0,0,0-7.94,1.4,27.78,27.78,0,0,1-3.26.83,13.25,13.25,0,0,1,3.14-1.26,39.29,39.29,0,0,1,16.17-1.51A13.07,13.07,0,0,1,153.41,382.45Z" transform="translate(-11.52 -4.4)"/><path class="cls-8" d="M116.65,383.34c0,.1-1.11-.24-2.89-.51a22.28,22.28,0,0,0-13.61,2.3c-1.59.84-2.5,1.51-2.56,1.43a8.39,8.39,0,0,1,2.34-1.82,19.61,19.61,0,0,1,13.91-2.35A8.61,8.61,0,0,1,116.65,383.34Z" transform="translate(-11.52 -4.4)"/><path class="cls-8" d="M116.89,384.54c.07.15-2.91,1.57-6.84,2.54s-7.21,1.13-7.22,1,3.2-.61,7.07-1.58S116.82,384.37,116.89,384.54Z" transform="translate(-11.52 -4.4)"/><path class="cls-8" d="M124.15,319.31a5.75,5.75,0,0,1-.86,1,14.39,14.39,0,0,1-1.09,1c-.43.4-.94.84-1.53,1.3a30.86,30.86,0,0,1-4.37,2.93,20.22,20.22,0,0,1-6.12,2.27h0l-1.12.27A29.32,29.32,0,0,1,96.64,328a26.16,26.16,0,0,1-3.63-1.1,4.88,4.88,0,0,1-1.25-.59c0-.11,1.86.66,5,1.25a31.15,31.15,0,0,0,12.24-.13l1.09-.26h0A20.25,20.25,0,0,0,116,325a33.24,33.24,0,0,0,4.38-2.76C122.77,320.5,124.07,319.23,124.15,319.31Z" transform="translate(-11.52 -4.4)"/><path class="cls-8" d="M132,295.73a10.06,10.06,0,0,1,.24,1c.14.74.33,1.69.56,2.87.47,2.53,1.11,6,1.89,10.19l-.17-.2,10,3.79-.35.09,5-6.52,1.21-1.57-.06.23c-.56-5-1.09-9.59-1.55-13.66l.42.21a26.15,26.15,0,0,1-6.88,2.21c-2.1.43-4,.7-5.48.9s-2.74.31-3.57.37a7.63,7.63,0,0,1-1.27,0,7.2,7.2,0,0,1,1.25-.21l3.54-.53c1.52-.24,3.36-.55,5.43-1a26,26,0,0,0,6.7-2.24l.37-.2,0,.41c.49,4.07,1,8.71,1.63,13.64v.13l-.08.1-1.21,1.57-5.05,6.52-.14.18-.21-.08-9.94-3.87-.14-.06,0-.14c-.68-4.27-1.24-7.82-1.65-10.4-.17-1.17-.31-2.11-.42-2.84A6.83,6.83,0,0,1,132,295.73Z" transform="translate(-11.52 -4.4)"/><path class="cls-8" d="M111.55,299.05a5.59,5.59,0,0,1,0,1c0,.74-.07,1.69-.11,2.87-.12,2.61-.29,6.2-.5,10.52v.15l-.14.07-9.46,4.93-.2.1-.16-.16-5.73-5.92-1.37-1.43-.09-.09v-.13c0-5,.08-9.65.12-13.74v-.41l.39.16a26.55,26.55,0,0,0,6.9,1.49c2.11.24,4,.34,5.51.42l3.57.13a6.52,6.52,0,0,1,1.27.08,7.18,7.18,0,0,1-1.27.09c-.83,0-2,.05-3.58,0s-3.41-.1-5.55-.29a25.8,25.8,0,0,1-7.08-1.45l.39-.25c0,4.1,0,8.77,0,13.74l-.09-.22,1.38,1.43,5.71,5.93-.36-.05,9.51-4.86-.14.22c.31-4.24.57-7.77.76-10.33.1-1.2.18-2.17.24-2.92A8.66,8.66,0,0,1,111.55,299.05Z" transform="translate(-11.52 -4.4)"/><path class="cls-8" d="M122.35,315.34a10.18,10.18,0,0,1-.72-2.68,51.83,51.83,0,0,1-.83-6.64,49.83,49.83,0,0,1,0-6.69,10.15,10.15,0,0,1,.4-2.74c.19,0-.13,4.22.18,9.4S122.54,315.31,122.35,315.34Z" transform="translate(-11.52 -4.4)"/><path class="cls-8" d="M153.4,321.09a3.08,3.08,0,0,1-.91.45,23.25,23.25,0,0,1-2.64.89,33.81,33.81,0,0,1-18.18,0,23.25,23.25,0,0,1-2.64-.89,3.08,3.08,0,0,1-.91-.45c0-.1,1.4.38,3.66.91a39.11,39.11,0,0,0,18,0C152,321.47,153.37,321,153.4,321.09Z" transform="translate(-11.52 -4.4)"/><path class="cls-15" d="M95.52,169.66S78.8,178.8,73.9,180.94l6.68,32L91.1,251.24l-7,40.44s24.79,4.38,37,2.81c16.63-2.16,37.84-8.28,37.84-8.28l-16.51-49.29,4.22-34-7.09-28.69-17.28-2.05Z" transform="translate(-11.52 -4.4)"/><g class="cls-10"><path d="M87.67,201.62c1.13,2.24,3.71,3.33,6.13,4s5,1.15,6.92,2.8c3.38,2.94,3.28,8.43,6.39,11.65A7.77,7.77,0,0,0,115,222c1.71-.59,3.24-1.79,5-2,1.25-.12,2.5.27,3.76.18,3.53-.25,5.59-4,7-7.24s3-6.92,2.6-10.57c-.54-5.47-5.09-9.87-5.78-15.32-.25-2,0-4.07-.18-6.09s-1.12-4.17-3-5" transform="translate(-11.52 -4.4)"/></g><path class="cls-15" d="M154.32,165.76l-12.95-25.9,10.4-6.66s13,13.4,15.46,16c0,0,15,13.8,11.06,20.45a44,44,0,0,1-8.58,10Z" transform="translate(-11.52 -4.4)"/><path class="cls-15" d="M73.9,180.94c-.23.68-34.81,48.51-36.66,53.59-.1.28-.2.57-.29.87a19.77,19.77,0,0,0,4.34,19L69.8,286.21,82.27,271.8,62.44,236.86l18.94-20.92Z" transform="translate(-11.52 -4.4)"/><path class="cls-13" d="M95.58,273.94c-1.16.07-3.26,1.66-4.2,2.42a1.55,1.55,0,0,1-1.09.34h0a1.57,1.57,0,0,1-1.41-1.12l-1.24-4.15a3.86,3.86,0,0,0-3,1.89l-1.37,2.34-2.37-2.28L69.81,286.05s4.36,4.71,7.13,4.79,15.79-10.62,15.79-10.62l3.45-3.05S99,273.73,95.58,273.94Z" transform="translate(-11.52 -4.4)"/><path class="cls-15" d="M131.51,173.24l9.81.44,14-10.69,19.78,10.86s-8.9,9.52-17.29,19.28C151,201,146.18,206,146.18,206Z" transform="translate(-11.52 -4.4)"/><path class="cls-3" d="M140.72,257.46a12.86,12.86,0,0,1-1.4,1.49c-.93.94-2.33,2.24-4.11,3.78a105.68,105.68,0,0,1-31.49,18.81c-2.21.83-4,1.45-5.28,1.82a12.72,12.72,0,0,1-2,.53,13.51,13.51,0,0,1,1.9-.76c1.24-.44,3-1.12,5.19-2A120.14,120.14,0,0,0,120,273a122.71,122.71,0,0,0,15-10.58c1.8-1.49,3.25-2.74,4.22-3.62A13.06,13.06,0,0,1,140.72,257.46Z" transform="translate(-11.52 -4.4)"/><path class="cls-3" d="M106.38,251.81c.15.09-3.34,5.74-7.78,12.62s-8.17,12.37-8.31,12.27,3.33-5.74,7.78-12.62S106.23,251.71,106.38,251.81Z" transform="translate(-11.52 -4.4)"/><path class="cls-3" d="M145,203.32a34.15,34.15,0,0,1-.17-3.67c-.08-2.26-.27-5.39-.58-8.83s-.72-6.54-1.15-8.76-.87-3.54-.77-3.58a11.76,11.76,0,0,1,1.21,3.49,66.2,66.2,0,0,1,1.34,8.79c.31,3.46.43,6.61.4,8.88A15.34,15.34,0,0,1,145,203.32Z" transform="translate(-11.52 -4.4)"/><path class="cls-3" d="M168.82,164a18.64,18.64,0,0,1-2.28-.94,16.35,16.35,0,0,0-5.68-1.24,10.33,10.33,0,0,0-5.58,1.3c-1.28.76-1.9,1.49-2,1.42a4.66,4.66,0,0,1,1.74-1.8,9.81,9.81,0,0,1,5.83-1.55,14,14,0,0,1,5.85,1.47A6.46,6.46,0,0,1,168.82,164Z" transform="translate(-11.52 -4.4)"/><path class="cls-3" d="M162.51,158.46c0,.24-2.76-.07-5.44,1.66s-3.57,4.4-3.77,4.27a3.65,3.65,0,0,1,.58-1.65,8.64,8.64,0,0,1,2.84-3.15,8.37,8.37,0,0,1,4-1.3A3.69,3.69,0,0,1,162.51,158.46Z" transform="translate(-11.52 -4.4)"/><g class="cls-10"><path d="M107.47,246c-.18-1.13-.92-2.35-2.06-2.4-1.31-.06-2.13,1.35-2.64,2.56L90.71,274.84l-.42,1.86c4.86-7.72,9.7-15.13,14.56-22.85C106.36,251.46,107.93,248.78,107.47,246Z" transform="translate(-11.52 -4.4)"/></g><g class="cls-10"><path d="M153.3,164c1.5-2.2,2.79-4.7,5.39-5.24a10.46,10.46,0,0,1,7.66,1.37c.5.31,1,.83.85,1.38a1.31,1.31,0,0,1-1,.72c-2.28.56-4.66-.1-7-.41s-4.14.71-5.7,2.47" transform="translate(-11.52 -4.4)"/></g><path class="cls-3" d="M79.35,210.84a16.76,16.76,0,0,1-1.44-3.32,76.11,76.11,0,0,1-2.51-8.37,72.65,72.65,0,0,1-1.54-8.61,16.8,16.8,0,0,1-.22-3.61,26.61,26.61,0,0,1,.66,3.55c.37,2.2.92,5.22,1.71,8.52s1.66,6.25,2.33,8.37A25.74,25.74,0,0,1,79.35,210.84Z" transform="translate(-11.52 -4.4)"/><path class="cls-16" d="M97.47,179.34l24.53.35-2.29-22.18s1.81.91,2.17-8.17,1.2-24.51,1.2-24.51h0A31.6,31.6,0,0,0,91.24,128l-1.38,1Z" transform="translate(-11.52 -4.4)"/><path class="cls-16" d="M92.41,140.2c-.16-.07-6.2-2-6.17,4.2s6.27,4.91,6.28,4.73S92.41,140.2,92.41,140.2Z" transform="translate(-11.52 -4.4)"/><path class="cls-16" d="M121.62,139.7c.15-.06,5.73-1.4,5.36,4.8s-6.52,4.56-6.52,4.38S121.62,139.7,121.62,139.7Z" transform="translate(-11.52 -4.4)"/><path class="cls-3" d="M107,113.94s-8.47-.31-11.5,1.24c-5,2.57-8.93,9.73-9,18.58s3.94,20.87,10.44,26.8,11.63,7,11.63,7,13.76-7.51,15.3-18.48,2.58-21.55-1.71-26.88S110.16,114.07,107,113.94Z" transform="translate(-11.52 -4.4)"/><path class="cls-3" d="M87.68,139.48c-.5-5.63-1-11.44.79-16.81s6.38-10.21,12-10.42c1.81-.07,3.64.33,5.42,0a23,23,0,0,0,4.4-1.61,11.38,11.38,0,0,1,7.83-.49,6.82,6.82,0,0,1,4.73,5.88,10.14,10.14,0,0,0,.13,3.26c.4,1.06,1.4,1.74,2.1,2.63a7,7,0,0,1,1.25,5,21,21,0,0,1-1.43,5.12l-4.62,12.37" transform="translate(-11.52 -4.4)"/><path class="cls-3" d="M101.86,142.63a11.18,11.18,0,0,1,16,8.85c.39,3.68.4,4.27,2.77,7.1,1.47,1.75,2.88,1.65,4.61,3.14a6.89,6.89,0,0,1,1.57,8.08c4.45-.21,8.61-.5,10.13,3.69-6.65-1.37-13.29,4.83-19.94,3.46a14.45,14.45,0,0,1-6-2.2c-2-1.48-3-3.83-4-6.09q-2.68-6.07-5.35-12.15c-1.2-2.73-2.42-5.56-2.37-8.54s1.77-6.15,4.66-6.9" transform="translate(-11.52 -4.4)"/><path class="cls-7" d="M99.17,146.69a9.38,9.38,0,0,1,3.23-10.35,9.5,9.5,0,0,1,10.89.43,9,9,0,0,1,3.73,7.7,5.92,5.92,0,0,1-5.48,5.46" transform="translate(-11.52 -4.4)"/><path class="cls-3" d="M113.75,140.67a9.9,9.9,0,0,0-12.92.64c-3.18,3.17-3.49,9.71-2.53,14.1,1,4.71,3.91,9.28,3,14-.58,2.88-2.56,5.81-1.42,8.52.93,2.19,3.53,3.15,4.93,5.07,2.07,2.82,1,6.79-.34,10s-3.1,6.68-2.13,10c.75,2.61,3,4.48,4.7,6.56s3.16,5,2,7.43a6.92,6.92,0,0,0,10.93-7,8.19,8.19,0,0,1,2.33,5.32,11.17,11.17,0,0,0,8.45-17.12c-1.5-2.36-3.93-4.26-4.44-7-.6-3.27,1.76-6.47,1.46-9.78-.28-3-2.62-5.31-5-7.08s-5.07-3.37-6.63-5.91c-2.51-4.12-1.34-9.38-.37-14.1s1.43-10.3-2-13.73" transform="translate(-11.52 -4.4)"/><path class="cls-3" d="M99.41,143.56c-3.35,2.26-3.57,7.07-3.11,11.1s1.11,8.54-1.36,11.75c-1.67,2.16-4.59,3.41-5.44,6-1,3.16,1.56,6.33,1.86,9.65.21,2.39-.79,4.72-2,6.83a27,27,0,0,0-3.06,6.51c-.56,2.33-.16,5.1,1.71,6.62a8.63,8.63,0,0,0,4.22,1.51,52.26,52.26,0,0,0,16.18-.05c1.59-6.58,3.2-13.24,3.2-20,0-13.44-6.36-26.26-6.53-39.71" transform="translate(-11.52 -4.4)"/><path class="cls-8" d="M108.84,212.51a3,3,0,0,1-.55-.61l-1.5-1.8a80.16,80.16,0,0,1-5.28-6.84,20.21,20.21,0,0,1-2.6-5.42A10.76,10.76,0,0,1,99,191a45.93,45.93,0,0,1,3.43-6.78c1.21-2.26,2.44-4.79,2.13-7.49s-2-4.91-2.86-7.48a8,8,0,0,1-.36-2,5.75,5.75,0,0,1,.32-2,9.9,9.9,0,0,1,2.11-3.15,17.55,17.55,0,0,0,2.15-2.7,6.31,6.31,0,0,0,.88-3,17.49,17.49,0,0,0-1.07-5.75,19.13,19.13,0,0,1-1-4.84,7.38,7.38,0,0,1,.75-3.67,5,5,0,0,1,1.53-1.81,2.66,2.66,0,0,1,.73-.37,5.3,5.3,0,0,0-2,2.29,7.47,7.47,0,0,0-.62,3.54,19.67,19.67,0,0,0,1.1,4.73,17.43,17.43,0,0,1,1.17,5.9,6.81,6.81,0,0,1-.92,3.29,17.83,17.83,0,0,1-2.2,2.8,9.62,9.62,0,0,0-2,3,5.25,5.25,0,0,0-.28,1.77,7.21,7.21,0,0,0,.34,1.82c.75,2.43,2.6,4.67,2.9,7.61a9.66,9.66,0,0,1-.53,4.18,25.59,25.59,0,0,1-1.69,3.67,47.43,47.43,0,0,0-3.42,6.67,10.31,10.31,0,0,0-.18,6.55,20.4,20.4,0,0,0,2.47,5.32c2,3,3.88,5.3,5.1,6.93.62.81,1.1,1.44,1.41,1.88A4.85,4.85,0,0,1,108.84,212.51Z" transform="translate(-11.52 -4.4)"/><path class="cls-8" d="M95.63,165.76a19.58,19.58,0,0,0,1.29-4.54,31.2,31.2,0,0,0,.21-5.13c-.06-1.94-.2-4.09-.07-6.37a14.84,14.84,0,0,1,1.56-6.23,9.44,9.44,0,0,1,3.68-3.76,6.58,6.58,0,0,1,3.44-.85,4.28,4.28,0,0,1,1,.15c.21.06.32.1.31.12s-.46-.05-1.27,0a6.83,6.83,0,0,0-3.21,1,9.34,9.34,0,0,0-3.4,3.64,14.85,14.85,0,0,0-1.44,6c-.13,2.23,0,4.36,0,6.32a29.3,29.3,0,0,1-.34,5.22,12.77,12.77,0,0,1-1.06,3.37A3.82,3.82,0,0,1,95.63,165.76Z" transform="translate(-11.52 -4.4)"/><path class="cls-8" d="M131.29,209.2a5.45,5.45,0,0,1,.08-.77,11.72,11.72,0,0,0,0-2.21,27.88,27.88,0,0,0-1.91-7.91c-.69-1.54-1.78-3.15-2.6-5a12.64,12.64,0,0,1-.94-3.09,10.92,10.92,0,0,1,0-3.42c.17-1.15.43-2.3.59-3.47a11.58,11.58,0,0,0-.08-3.57,11.91,11.91,0,0,0-3.5-6.52c-1.85-1.8-4.43-2.62-6.33-4.41a11.74,11.74,0,0,1-3.29-6.48,24,24,0,0,1-.21-6.57c.16-2.05.4-3.93.51-5.65a23.57,23.57,0,0,0,0-4.64,6.39,6.39,0,0,0-1.29-3.16,4.27,4.27,0,0,0-2.49-1.5,2.1,2.1,0,0,1,.78.1,4.23,4.23,0,0,1,1.89,1.24,6.36,6.36,0,0,1,1.45,3.27,22.29,22.29,0,0,1,.16,4.71c-.09,1.75-.3,3.64-.44,5.67a24.08,24.08,0,0,0,.26,6.41,11.19,11.19,0,0,0,3.14,6.14c1.76,1.67,4.35,2.5,6.34,4.41a12.47,12.47,0,0,1,3.68,6.87,11.88,11.88,0,0,1,.06,3.76c-.16,1.21-.43,2.36-.6,3.48a10.19,10.19,0,0,0-.08,3.25,12.06,12.06,0,0,0,.87,3c.78,1.87,1.83,3.45,2.53,5.08a26.27,26.27,0,0,1,1.75,8.06,10.3,10.3,0,0,1-.1,2.25,2.94,2.94,0,0,1-.14.57C131.33,209.15,131.3,209.21,131.29,209.2Z" transform="translate(-11.52 -4.4)"/><path class="cls-8" d="M126.48,174.94a10.94,10.94,0,0,0,.53-1.51,8.32,8.32,0,0,0-.25-4.25,8.44,8.44,0,0,0-4.18-4.57,8.61,8.61,0,0,1-3.3-2.17,17.51,17.51,0,0,1-2.07-3.69c-1.14-2.75-1-5.58-1-8a18,18,0,0,0-.77-6.37,7.77,7.77,0,0,0-2.44-3.49,15.37,15.37,0,0,0-1.36-.85s.15,0,.42.1a5,5,0,0,1,1.08.55,7.65,7.65,0,0,1,2.72,3.53,17.59,17.59,0,0,1,.93,6.53c0,2.45-.07,5.21,1,7.78a17.53,17.53,0,0,0,2,3.53,5.68,5.68,0,0,0,1.43,1.21c.52.33,1.09.54,1.67.84a8.73,8.73,0,0,1,4.33,4.95,8,8,0,0,1,.06,4.46,4.42,4.42,0,0,1-.49,1.11Q126.51,175,126.48,174.94Z" transform="translate(-11.52 -4.4)"/><path class="cls-8" d="M97.47,142.13a7.85,7.85,0,0,1-2.49-1.5,16.85,16.85,0,0,1-6.23-12.25,7.75,7.75,0,0,1,.25-2.89c.11,0,0,1.11.19,2.86a18.61,18.61,0,0,0,6.08,11.94C96.58,141.46,97.53,142,97.47,142.13Z" transform="translate(-11.52 -4.4)"/><path class="cls-8" d="M96.34,143.79c-.08.15-2.08-.69-4.27-2.22s-3.68-3.1-3.56-3.22,1.77,1.22,3.92,2.7S96.42,143.62,96.34,143.79Z" transform="translate(-11.52 -4.4)"/><path class="cls-8" d="M122.88,127.87c.15,0-.12,3.48-2.18,7.17s-4.83,5.8-4.9,5.67,2.39-2.38,4.35-6S122.69,127.83,122.88,127.87Z" transform="translate(-11.52 -4.4)"/><path class="cls-8" d="M124.86,132.69c.16,0-.42,2.76-1.86,5.84a17.45,17.45,0,0,1-3.27,5.19c-.15-.11,1.3-2.42,2.7-5.45S124.68,132.64,124.86,132.69Z" transform="translate(-11.52 -4.4)"/><path class="cls-8" d="M122,117a20,20,0,0,1-1.17-2.31,7.56,7.56,0,0,0-1.64-2.14,4.24,4.24,0,0,0-2.94-1.11A8.11,8.11,0,0,0,111,114a13.82,13.82,0,0,1-1.88,1.78,8.17,8.17,0,0,1,1.56-2.09,10.29,10.29,0,0,1,2.19-1.87,6.58,6.58,0,0,1,3.41-1,4.67,4.67,0,0,1,3.33,1.31A9,9,0,0,1,122,117Z" transform="translate(-11.52 -4.4)"/><path class="cls-8" d="M119.56,211.7s-.21-.15-.58-.49-.89-.86-1.53-1.56a20.27,20.27,0,0,1-2.11-2.75,9.6,9.6,0,0,1-1.53-4.36,7.51,7.51,0,0,1,.36-2.7,14.72,14.72,0,0,1,1.25-2.64c1-1.71,2.2-3.52,2.26-5.71a12,12,0,0,0-1.9-6.47c-1.2-2.07-2.85-4-4.29-6.15a17,17,0,0,1-2.89-7,27.58,27.58,0,0,1-.11-7.07c.44-4.48,1.32-8.41,1.46-11.78a21.88,21.88,0,0,0-.77-7.86c-.57-1.79-1.13-2.69-1.07-2.72a3.37,3.37,0,0,1,.41.64,12.56,12.56,0,0,1,.9,2,21.2,21.2,0,0,1,1,8c-.09,3.41-.93,7.39-1.33,11.81a27.23,27.23,0,0,0,.14,6.91,16.39,16.39,0,0,0,2.8,6.79c1.42,2.12,3.07,4,4.31,6.19a12.52,12.52,0,0,1,1.94,6.81c-.09,2.38-1.4,4.27-2.38,5.95a14.13,14.13,0,0,0-1.25,2.53,7,7,0,0,0-.37,2.52,9.32,9.32,0,0,0,1.38,4.2,21.2,21.2,0,0,0,2,2.76c.6.73,1.1,1.26,1.43,1.64A3,3,0,0,1,119.56,211.7Z" transform="translate(-11.52 -4.4)"/></g><g id="Floor"><path class="cls-3" d="M470.66,495c0,.1-98.76.19-220.56.19S29.52,495.13,29.52,495s98.74-.2,220.58-.2S470.66,494.92,470.66,495Z" transform="translate(-11.52 -4.4)"/></g></svg>