<svg xmlns="http://www.w3.org/2000/svg" viewBox="0 0 390.64 377.38"><defs><style>.cls-1{fill:#680202;}.cls-2{fill:#407bff;}.cls-15,.cls-3,.cls-5{opacity:0.5;}.cls-16,.cls-4,.cls-5,.cls-6{fill:#fff;}.cls-6,.cls-7{opacity:0.4;}.cls-8{fill:#7c2c00;}.cls-11,.cls-9{opacity:0.2;}.cls-11,.cls-15,.cls-9{isolation:isolate;}.cls-10{fill:#263238;}.cls-11{fill:#702e01;}.cls-12{fill:#5e4d3e;opacity:0.1;}.cls-13{fill:#020100;}.cls-14{fill:#8c3b03;}.cls-16{opacity:0.7;}</style></defs><title>programmer</title><g id="Background_Complete" data-name="Background Complete"><path class="cls-1" d="M256.33,34c66.78,43.49,105.4,144,70,229.25-37.65,90.78-150.48,143.13-228.1,109-50.19-22-103-87.81-79.91-138.7,16.72-36.8,83-10.05,112.27-50.37,36.4-50.12-32.75-130.47-.35-165C154.11-7.12,217.5,8.7,256.33,34Z" transform="translate(-9.41 -5.38)"/></g><g id="Desk"><g id="Group"><rect class="cls-2" y="183.01" width="390.64" height="7.56"/><polygon class="cls-2" points="23.27 188.44 23.27 368.83 26.32 368.83 30.15 188.44 23.27 188.44"/><polygon class="cls-2" points="59.24 194.34 59.24 361.46 62.29 361.46 66.13 194.34 59.24 194.34"/><polygon class="cls-3" points="59.24 194.34 59.24 361.46 62.29 361.46 66.13 194.34 59.24 194.34"/><polygon class="cls-2" points="368.75 188.44 368.75 368.83 365.72 368.83 361.87 188.44 368.75 188.44"/><polygon class="cls-2" points="332.79 194.34 332.79 361.46 329.74 361.46 325.91 194.34 332.79 194.34"/><polygon class="cls-3" points="332.79 194.34 332.79 361.46 329.74 361.46 325.91 194.34 332.79 194.34"/><polygon class="cls-2" points="375.7 198.67 16.08 198.67 8.13 190.57 383.66 190.57 375.7 198.67"/><polygon class="cls-3" points="375.7 198.67 16.08 198.67 8.13 190.57 383.66 190.57 375.7 198.67"/></g></g><g id="Beverages"><path class="cls-4" d="M65.59,166.21v5.84a3.67,3.67,0,0,0,1.08,2.6l4.68,4.68a3.71,3.71,0,0,0,1.51.9,12,12,0,0,0,10.89,7H85.5a12,12,0,0,0,12-12V161.42H71.74v1.11H69.28A3.69,3.69,0,0,0,65.59,166.21Zm3,0a.74.74,0,0,1,.74-.73h2.46v9.7c0,.13,0,.26,0,.39l-3-3a.74.74,0,0,1-.22-.52Z" transform="translate(-9.41 -5.38)"/><path class="cls-5" d="M65.59,166.21v5.84a3.67,3.67,0,0,0,1.08,2.6l4.68,4.68a3.71,3.71,0,0,0,1.51.9,12,12,0,0,0,10.89,7H85.5a12,12,0,0,0,12-12V161.42H71.74v1.11H69.28A3.69,3.69,0,0,0,65.59,166.21Zm3,0a.74.74,0,0,1,.74-.73h2.46v9.7c0,.13,0,.26,0,.39l-3-3a.74.74,0,0,1-.22-.52Z" transform="translate(-9.41 -5.38)"/><path class="cls-4" d="M103.62,189.15H66.56c-2.42,0-4.37-2.18-4.37-2.18H108S106,189.15,103.62,189.15Z" transform="translate(-9.41 -5.38)"/><path class="cls-5" d="M103.62,189.15H66.56c-2.42,0-4.37-2.18-4.37-2.18H108S106,189.15,103.62,189.15Z" transform="translate(-9.41 -5.38)"/></g><g id="PC"><rect class="cls-2" x="119.45" y="146.95" width="17.39" height="35.32"/><rect class="cls-5" x="119.45" y="146.95" width="17.39" height="35.32"/><polygon class="cls-2" points="144.69 182.9 111.75 182.9 119.78 175.83 136.65 175.83 144.69 182.9"/><polygon class="cls-5" points="144.69 182.9 111.75 182.9 119.78 175.83 136.65 175.83 144.69 182.9"/><polygon class="cls-2" points="217.1 171.47 134.76 171.47 149.64 182.94 231.97 182.94 217.1 171.47"/><polygon class="cls-6" points="217.1 171.47 134.76 171.47 149.64 182.94 231.97 182.94 217.1 171.47"/><polygon class="cls-2" points="136.67 182.94 134.76 171.47 149.64 182.94 136.67 182.94"/><polygon class="cls-3" points="136.67 182.94 134.76 171.47 149.64 182.94 136.67 182.94"/><rect class="cls-2" x="49.95" y="63.36" width="155.55" height="97.59" rx="2.84"/><rect class="cls-3" x="55.6" y="69.46" width="144.1" height="85.04"/><rect class="cls-7" x="122.4" y="86.95" width="72.71" height="50.06"/><rect class="cls-2" x="122.4" y="86.95" width="72.71" height="4.59"/><path class="cls-4" d="M145.14,120,157,126.61a3.79,3.79,0,0,1,1.19.89,1.61,1.61,0,0,1,.3,1,1.88,1.88,0,0,1-.55,1.34,1.79,1.79,0,0,1-1.29.56,3.48,3.48,0,0,1-1.45-.53l-15.34-8.53a1.51,1.51,0,0,1,0-2.64l15.34-8.53a3.61,3.61,0,0,1,1.43-.52,1.82,1.82,0,0,1,1.31.56,1.84,1.84,0,0,1,.55,1.32,1.64,1.64,0,0,1-.3,1,3.79,3.79,0,0,1-1.19.89Z" transform="translate(-9.41 -5.38)"/><path class="cls-4" d="M175.72,107.74,164,133.09a3.83,3.83,0,0,1-.8,1.23,1.75,1.75,0,0,1-1.13.38,1.78,1.78,0,0,1-1.3-.54,1.68,1.68,0,0,1-.55-1.22,3.91,3.91,0,0,1,.43-1.41l11.8-25.33a3.92,3.92,0,0,1,.79-1.24,1.88,1.88,0,0,1,2.42.15,1.66,1.66,0,0,1,.53,1.21A3.7,3.7,0,0,1,175.72,107.74Z" transform="translate(-9.41 -5.38)"/><path class="cls-4" d="M190.51,120l-11.88-6.59a3.79,3.79,0,0,1-1.19-.89,1.64,1.64,0,0,1-.3-1,1.81,1.81,0,0,1,.56-1.32,1.78,1.78,0,0,1,1.3-.56,3.69,3.69,0,0,1,1.44.52l15.33,8.53a1.51,1.51,0,0,1,0,2.64l-15.33,8.53a3.59,3.59,0,0,1-1.44.53,1.81,1.81,0,0,1-1.32-.57,1.86,1.86,0,0,1-.54-1.33,1.61,1.61,0,0,1,.3-1,3.79,3.79,0,0,1,1.19-.89Z" transform="translate(-9.41 -5.38)"/><rect class="cls-4" x="61.5" y="77.31" width="4.92" height="4.92"/><rect class="cls-4" x="61.5" y="90.05" width="4.92" height="4.92"/><rect class="cls-4" x="61.5" y="102.79" width="4.92" height="4.92"/><rect class="cls-4" x="61.5" y="115.54" width="4.92" height="4.92"/><rect class="cls-4" x="61.5" y="128.28" width="4.92" height="4.92"/><rect class="cls-4" x="61.5" y="141.02" width="4.92" height="4.92"/><rect class="cls-4" x="71.1" y="78.42" width="19.62" height="1.47"/><rect class="cls-4" x="75.68" y="91.19" width="6.99" height="1.47"/><rect class="cls-4" x="106.1" y="105.53" width="6.99" height="1.47"/><rect class="cls-4" x="75.68" y="116.9" width="6.99" height="1.47"/><rect class="cls-4" x="85.76" y="116.9" width="6.99" height="1.47"/><rect class="cls-4" x="85.76" y="105.53" width="17.86" height="1.47"/><rect class="cls-4" x="96.16" y="116.9" width="11.76" height="1.47"/><rect class="cls-4" x="96.12" y="144.22" width="6.99" height="1.47"/><rect class="cls-4" x="106.2" y="144.22" width="6.99" height="1.47"/><rect class="cls-4" x="116.6" y="144.22" width="3.91" height="1.47"/><rect class="cls-4" x="86.17" y="91.19" width="21.75" height="1.47"/><rect class="cls-4" x="85.76" y="130.21" width="6.99" height="1.47"/><rect class="cls-4" x="95.08" y="130.21" width="4.04" height="1.47"/><rect class="cls-4" x="102.21" y="130.21" width="11.41" height="1.47"/></g><g id="Character_2" data-name="Character 2"><polygon class="cls-8" points="200.65 360.79 189.9 357.57 192.4 331.22 203.15 334.44 200.65 360.79"/><polygon class="cls-9" points="204.04 328.48 193.29 325.28 191.89 340.04 202.75 342.06 204.04 328.48"/><path class="cls-2" d="M273.68,203.42s-73.92,6.24-72.1,38.34C203.07,268,207,260.9,199.31,339l18.59,1s18.92-63.91,16.37-89.3c20.83,0,68.54,1.82,75.47-17A83.69,83.69,0,0,0,314.68,204Z" transform="translate(-9.41 -5.38)"/><polygon class="cls-10" points="211.45 338.27 187.15 334.11 187.55 323.37 212.7 328.95 211.45 338.27"/><path class="cls-10" d="M198.2,358.53,210.62,361a.94.94,0,0,1,.71,1l-1,11.74a2.07,2.07,0,0,1-2.27,1.94c-4.3-.94-6.34-1.64-11.79-2.72-3.37-.66-11-2.28-15.72-2.8s-4.12-6-2.1-6.27c9.09-1.21,14.25-2.67,17.77-4.95A2.77,2.77,0,0,1,198.2,358.53Z" transform="translate(-9.41 -5.38)"/><path class="cls-2" d="M192.63,360.66a14.56,14.56,0,0,0,3,.09.24.24,0,0,0,.22-.16.28.28,0,0,0,0-.28c-.31-.31-3.09-2.95-4.53-2.66a1,1,0,0,0-.72.62,1.5,1.5,0,0,0,.09,1.48A3.07,3.07,0,0,0,192.63,360.66Zm2.38-.4c-2,0-3.5-.23-3.93-.84a.93.93,0,0,1,0-.94.51.51,0,0,1,.34-.33C192.17,358,193.86,359.23,195,360.26Z" transform="translate(-9.41 -5.38)"/><path class="cls-2" d="M195.6,360.75h.11a.29.29,0,0,0,.18-.19c0-.13.81-3.28-.13-4.53a1.26,1.26,0,0,0-1-.54,1,1,0,0,0-1.07.62c-.45,1.16.81,3.74,1.8,4.58A.2.2,0,0,0,195.6,360.75Zm-.77-4.73a.76.76,0,0,1,.51.32,5.78,5.78,0,0,1,.14,3.63,5.27,5.27,0,0,1-1.33-3.67c0-.15.16-.31.55-.3Z" transform="translate(-9.41 -5.38)"/><polygon class="cls-8" points="152.72 364.88 142.49 360.28 149.57 335.04 159.8 339.64 152.72 364.88"/><polygon class="cls-11" points="161.53 333.14 151.29 328.54 147.65 341.56 157.89 346.17 161.53 333.14"/><path class="cls-2" d="M251.68,203.42c-.48,0-82.87,8.48-83,36.42-.18,46.22-13.37,99.19-13.37,99.19l16.28,8.07s28.35-57.43,27.92-93.45c22.67-6.51,81.3,4.42,88.23-14.37,5.67-15.36,2.61-35.86,2.61-35.86Z" transform="translate(-9.41 -5.38)"/><polygon class="cls-10" points="164.81 344.05 142.99 334.23 144.74 325.3 167.76 333.24 164.81 344.05"/><path class="cls-10" d="M152.92,357.18l12.44,2.59a1,1,0,0,1,.7,1.15l-1,12.9c-.16,1.4-1.17,2.36-2.25,2.15h0c-4.31-1-6.34-1.76-11.8-2.89-3.36-.69-12.52-2.91-17.13-4.12s-3.59-7.08-1.48-7.12c9.13-.14,15-1.63,18.55-4.18A2.53,2.53,0,0,1,152.92,357.18Z" transform="translate(-9.41 -5.38)"/><path class="cls-2" d="M147.81,360a14.36,14.36,0,0,0,2.43-1.67.28.28,0,0,0,.08-.29.25.25,0,0,0-.21-.17c-.44-.07-4.24-.56-5.23.54a1,1,0,0,0-.2.93,1.48,1.48,0,0,0,.94,1.14A3.09,3.09,0,0,0,147.81,360Zm1.66-1.72c-1.6,1.26-2.94,1.87-3.65,1.65a.94.94,0,0,1-.56-.77.43.43,0,0,1,.09-.45C145.88,358.15,147.94,358.1,149.47,358.25Z" transform="translate(-9.41 -5.38)"/><path class="cls-2" d="M150.24,358.3l.1-.08a.21.21,0,0,0,0-.24c-.08-.11-1.29-3.13-2.79-3.59a1.31,1.31,0,0,0-1.15.18,1,1,0,0,0-.48,1.14c.31,1.21,2.86,2.53,4.16,2.62A.28.28,0,0,0,150.24,358.3Zm-3.43-3.36a.72.72,0,0,1,.61-.06,5.88,5.88,0,0,1,2.27,2.84,5.19,5.19,0,0,1-3.25-2.17c-.09-.12-.06-.34.26-.56Z" transform="translate(-9.41 -5.38)"/><path class="cls-8" d="M279.67,114.27c2.17,4.66,3.95,9.14,5.74,13.8s3.36,9.32,4.82,14.1A151.24,151.24,0,0,1,294,156.91a77.07,77.07,0,0,1,1.66,16,32.76,32.76,0,0,1-1.41,9.33,20.64,20.64,0,0,1-2.46,5.25,15.77,15.77,0,0,1-2.11,2.57l-.63.62c-.35.29-.74.62-1.11.87a12.19,12.19,0,0,1-2,1.09,16,16,0,0,1-3.19,1,20.77,20.77,0,0,1-2.61.38,37.37,37.37,0,0,1-4.49,0,64.27,64.27,0,0,1-7.94-.88,150.68,150.68,0,0,1-28.62-8.2l2.14-8.13c9.36,1.12,18.92,2.32,27.93,2.73,2.24,0,4.42.1,6.46,0a18.84,18.84,0,0,0,2.69-.34c.74-.13,1.38-.4,1.15-.38a2.22,2.22,0,0,0-.41.2,3.15,3.15,0,0,0-.41.31h0a2,2,0,0,0,.13-.25,6.73,6.73,0,0,0,.44-1.31,20.37,20.37,0,0,0,.4-4.93,64.51,64.51,0,0,0-1.87-12.51c-1-4.43-2.3-8.73-3.72-13.11s-2.95-8.76-4.63-13.13-3.45-8.74-5.19-12.85Z" transform="translate(-9.41 -5.38)"/><path class="cls-8" d="M245.3,179.07l-9.78-5.5-4.91,10.59s11.43,4.76,13.83,1.78Z" transform="translate(-9.41 -5.38)"/><polygon class="cls-8" points="218.19 170.19 213.72 177.27 221.2 178.7 226.11 168.12 218.19 170.19"/><path class="cls-8" d="M256.87,122.68c-1.87,4.7-3.83,9.2-5.89,13.75s-4.13,9-6.31,13.52a261.42,261.42,0,0,1-14.75,26.55c-1.48,2.18-2.95,4.35-4.6,6.51-.83,1.1-1.74,2.17-2.71,3.28-.54.56-1,1.07-1.58,1.65l-.89.85-.5.48a12.52,12.52,0,0,1-4.83,2.56,21.54,21.54,0,0,1-2.87.61,30,30,0,0,1-4.74.19,62.1,62.1,0,0,1-8.17-.81,149.93,149.93,0,0,1-29.23-8.29l2.15-8.14c9.54,1.15,19.29,2.37,28.46,2.76a63.84,63.84,0,0,0,6.49-.09,17.32,17.32,0,0,0,2.58-.41,3.66,3.66,0,0,0,.8-.3c.09,0,0-.1-.4.15a2.27,2.27,0,0,0-.4.29l.15-.17.41-.46c.27-.27.59-.71.9-1.06.61-.77,1.23-1.59,1.85-2.49,1.22-1.76,2.41-3.7,3.59-5.68,2.36-4,4.56-8.15,6.71-12.4s4.22-8.58,6.25-12.95c4.06-8.7,8-17.62,11.8-26.39Z" transform="translate(-9.41 -5.38)"/><path class="cls-8" d="M176.14,177.51l-9.79-5.57-4.91,10.59s11.43,4.78,13.85,1.8Z" transform="translate(-9.41 -5.38)"/><polygon class="cls-8" points="149.03 168.65 144.55 175.71 152.03 177.14 156.94 166.56 149.03 168.65"/><path class="cls-8" d="M282.19,70.36l-6.25,7.24-9.54,9.87c.19.48.46,1.12.73,1.79A17.79,17.79,0,0,1,268.4,95c.21,4-.17,7.3-6.41,10,0,0-6.55,8.55,9,6.18s17.91-10.46,17.91-10.46C282,95.76,281.65,79.44,282.19,70.36Z" transform="translate(-9.41 -5.38)"/><path class="cls-8" d="M250.45,62.19c0,1-.49,1.8-1.14,1.83s-1.16-.74-1.18-1.71.5-1.8,1.14-1.83S250.43,61.22,250.45,62.19Z" transform="translate(-9.41 -5.38)"/><path class="cls-8" d="M253.7,58.56a.56.56,0,0,1-.47-.26A4.77,4.77,0,0,0,249.66,56a.6.6,0,0,1-.56-.59.58.58,0,0,1,.59-.56h0a5.88,5.88,0,0,1,4.52,2.8.59.59,0,0,1-.18.79A.63.63,0,0,1,253.7,58.56Z" transform="translate(-9.41 -5.38)"/><path class="cls-8" d="M250.09,62.73a31.07,31.07,0,0,1-3.39,7.55,4.71,4.71,0,0,0,4,.3Z" transform="translate(-9.41 -5.38)"/><path class="cls-8" d="M283.08,57.28c-.58,12-.31,19.17-6.28,25.54a15.68,15.68,0,0,1-26.87-6.95c-2.71-10.66-1.3-28.54,10.32-33.91a15.84,15.84,0,0,1,22.83,15.32Z" transform="translate(-9.41 -5.38)"/><path class="cls-10" d="M288.54,61.29a44.54,44.54,0,0,1-7.82,14l-15.66,3s-12.37-5.18-9.07-13.7c-2.09-1.77-1.31-7.24.17-10.25,2.36,1.89,6.23,2.05,8.36-.22,1.71,3.14,6.84,3.58,9.07.75,2.55,2.83,8,2,9.52-1.53a5.42,5.42,0,0,0,6.31-.41l.22-.21A21.61,21.61,0,0,1,288.54,61.29Z" transform="translate(-9.41 -5.38)"/><path class="cls-12" d="M288.54,61.29a44.54,44.54,0,0,1-7.82,14l-15.66,3s-12.37-5.18-9.07-13.7c-2.09-1.77-1.31-7.24.17-10.25,2.36,1.89,6.23,2.05,8.36-.22,1.71,3.14,6.84,3.58,9.07.75,2.55,2.83,8,2,9.52-1.53a5.42,5.42,0,0,0,6.31-.41l.22-.21A21.61,21.61,0,0,1,288.54,61.29Z" transform="translate(-9.41 -5.38)"/><path class="cls-13" d="M290.79,46.71a5.42,5.42,0,0,1-1.15,6l-.22.21a5.42,5.42,0,0,1-6.31.41c-1.53,3.49-7,4.36-9.52,1.53-2.23,2.83-7.36,2.39-9.07-.75-2.13,2.27-6,2.11-8.36.22a5,5,0,0,1-1.48-1.83,2.45,2.45,0,0,1-.2-.48,5.25,5.25,0,0,1-.42.4,4.56,4.56,0,0,1-5.25.3,4.44,4.44,0,0,1-1.88-4,3.78,3.78,0,0,1,.16-.95,2.71,2.71,0,0,1-.44.61,3.69,3.69,0,0,1-5.25-.13c-1.57-1.94-.68-5.15,1.46-6.43a5.4,5.4,0,0,1,2.77-.74,7.12,7.12,0,0,1,4.23,1.46,4.36,4.36,0,0,1,7-5.21c-.19-2.09.5-3.34,1.58-4,2-1.18,5.42-.16,7.08,1.81,0,0,2.27-5.48,6.19-4.86.85.11,4.88,1.9,4.78,3.34a.51.51,0,0,1-.08.28,3.37,3.37,0,0,1,.19-.32,4.37,4.37,0,0,1,3.78-1.78,12.54,12.54,0,0,1,4.54,1.2c3,1.26,6.3,2.66,8.07,5.45S294,45.82,290.79,46.71Z" transform="translate(-9.41 -5.38)"/><path class="cls-14" d="M262.91,65.67a14.14,14.14,0,0,1-3.9,7.87c-2.67,2.55-4.94,0-5-3.88,0-3.5,1.32-9.06,4.43-10.1S263.48,61.85,262.91,65.67Z" transform="translate(-9.41 -5.38)"/><path class="cls-10" d="M310.06,104.86c-1.1-3-6.27-5.9-9.44-5.9h-2.09a113.85,113.85,0,0,0-12.64.82A226.31,226.31,0,0,0,260.83,104c-3.81,1-7.48,2.27-10.4,3.36-3.72,1.48-5.9,2.47-5.9,2.47s4.08,27.11,6.18,54c1.17,15,.69,29.87,1.06,40.1h62.91c2.16-12.29,1.82-23,2-45.23C316.78,145.39,314.62,117,310.06,104.86Z" transform="translate(-9.41 -5.38)"/><path class="cls-9" d="M249.35,148.8c.47,5.65,1,11.58,1.48,17.51,7.37-10.77,11.45-40.22,11.45-40.22Z" transform="translate(-9.41 -5.38)"/><path class="cls-10" d="M241,111.8c-9,5.07-17.84,31-17.84,31l20.62,15.57c7.88-7.45,19.39-25.93,20.65-33.31C266.43,113.75,255.41,103.72,241,111.8Z" transform="translate(-9.41 -5.38)"/><path class="cls-10" d="M223.17,376a6.41,6.41,0,1,1-6.41-6.41,6.41,6.41,0,0,1,6.41,6.41Z" transform="translate(-9.41 -5.38)"/><path class="cls-10" d="M318.86,376a6.42,6.42,0,1,0,6.41-6.41,6.41,6.41,0,0,0-6.41,6.41Z" transform="translate(-9.41 -5.38)"/><path class="cls-10" d="M264.77,374a6.42,6.42,0,1,0,6.42-6.42,6.42,6.42,0,0,0-6.42,6.42Z" transform="translate(-9.41 -5.38)"/><path class="cls-10" d="M269.2,366.06v-12.4H250.82a58.83,58.83,0,0,0-10.75,1l-34.21,6.65a3.11,3.11,0,0,0,.7,6.17Z" transform="translate(-9.41 -5.38)"/><path class="cls-10" d="M269.2,366.06v-12.4h18.38a58.67,58.67,0,0,1,10.75,1l38.45,6.15a3.11,3.11,0,0,1-.69,6.16Z" transform="translate(-9.41 -5.38)"/><rect class="cls-10" x="248.4" y="291.51" width="22.75" height="56.79"/><rect class="cls-10" x="251.67" y="265.08" width="16.22" height="26.41"/><polygon class="cls-15" points="251.67 272.84 267.89 276.92 267.89 265.08 251.67 265.08 251.67 272.84"/><rect class="cls-10" x="199.11" y="205.33" width="8.24" height="35.17"/><path class="cls-2" d="M258.09,270.47V117.58a20.06,20.06,0,0,1,6.85-15.11l10.9-9.54a20.1,20.1,0,0,1,13.22-5h39.37l19.23,20.47v162Z" transform="translate(-9.41 -5.38)"/><path class="cls-2" d="M199.48,240.89h89.8v29.58H184.85a10.62,10.62,0,0,1-9.14-16h0A27.6,27.6,0,0,1,199.48,240.89Z" transform="translate(-9.41 -5.38)"/><path class="cls-16" d="M347.67,108.43v162H184.85a10.63,10.63,0,0,1-9.15-16,27.59,27.59,0,0,1,23.73-13.55h45.23a13.43,13.43,0,0,0,13.43-13.43V117.58a20,20,0,0,1,6.85-15.1l10.9-9.54a20,20,0,0,1,13.23-5h39.35Z" transform="translate(-9.41 -5.38)"/><path class="cls-2" d="M271.19,270.47V117.58A20.09,20.09,0,0,1,278,102.47l10.9-9.54a20.1,20.1,0,0,1,13.23-5h30.68a20.08,20.08,0,0,1,14.63,6.33l7.84,8.34a20.07,20.07,0,0,1,5.45,13.75V255.16a15.32,15.32,0,0,1-15.31,15.31Z" transform="translate(-9.41 -5.38)"/><path class="cls-5" d="M271.19,270.47V117.58A20.09,20.09,0,0,1,278,102.47l10.9-9.54a20.1,20.1,0,0,1,13.23-5h30.68a20.08,20.08,0,0,1,14.63,6.33l7.84,8.34a20.07,20.07,0,0,1,5.45,13.75V255.16a15.32,15.32,0,0,1-15.31,15.31Z" transform="translate(-9.41 -5.38)"/><path class="cls-2" d="M240.63,221.45a85,85,0,0,0-56,0,8,8,0,0,1-9.86-3.76h0c-1.69-3.55.57-8.15,5.14-9.76a99.23,99.23,0,0,1,65.44,0c4.57,1.59,6.83,6.21,5.15,9.76h0A8,8,0,0,1,240.63,221.45Z" transform="translate(-9.41 -5.38)"/><path class="cls-16" d="M240.63,221.45a85,85,0,0,0-56,0,8,8,0,0,1-9.86-3.76h0c-1.69-3.55.57-8.15,5.14-9.76a99.23,99.23,0,0,1,65.44,0c4.57,1.59,6.83,6.21,5.15,9.76h0A8,8,0,0,1,240.63,221.45Z" transform="translate(-9.41 -5.38)"/></g></svg>